<svg width="1401" height="1313" viewBox="0 0 1401 1313" fill="none" xmlns="http://www.w3.org/2000/svg">
<path d="M0.705736 939.509C17.5825 927.833 6.97841 938.648 23.8876 927.017C28.1976 924.054 31.1607 921.443 31.8106 915.163C33.3255 900.511 40.4888 895.255 58.6869 892.761C62.1665 892.282 65.7127 892.269 66.4465 892.223C72.9364 878.638 78.8991 866.725 84.2936 854.557C86.0624 850.567 86.3637 845.926 87.3384 841.582C105.62 829.676 123.902 817.768 142.184 805.865C136.848 805.49 132.159 806.581 127.903 808.591C117.699 813.406 107.697 818.652 97.6135 823.722C99.1371 815.618 100.661 807.518 102.158 799.536C95.737 796.846 86.9984 795.052 80.8465 790.066C75.0602 785.376 72.0025 777.32 66.8789 769.409C39.697 772.798 40.2952 775.865 11.1036 779.503C10.9378 778.451 14.1377 776.245 13.9719 775.198C43.5293 769.763 39.9293 766.054 70.3411 760.462C75.0472 733.15 82.8929 707.507 117.755 706.549C119.427 698.715 121.275 691.283 122.534 683.757C123.547 677.703 121.919 673.286 114.86 671.433C103.385 668.419 93.1914 663.515 87.2653 651.816C86.0668 649.449 79.3874 649.317 75.1871 649.103C54.6779 648.063 34.1537 647.345 13.5952 645.429C36.6372 630.667 62.7991 628.04 88.933 624.502C89.6581 611.014 95.494 601.083 105.956 593.735C108.017 592.285 110.417 590.273 111.088 588.046C118.29 564.133 137.896 555.015 158.985 548.23C167.405 545.519 172.679 542.294 175.914 533.002C179.036 524.029 186.618 516.613 192.789 507.721C177.557 504.332 161.827 501.324 146.393 497.214C137.739 494.911 129.215 491.454 121.286 487.278C114.406 483.655 114.538 477.579 121.794 475.357C129.493 473 138.238 472.491 146.32 473.283C162.1 474.83 177.732 477.844 193.131 480.205C195.428 469.146 197.623 458.58 200.071 446.81C154.64 429.381 104.766 419.233 60.9419 393.786C61.1528 392.905 61.3617 392.023 61.5703 391.141C73.2892 393.473 85.0984 395.432 96.7032 398.234C108.332 401.042 119.917 404.232 131.227 408.109C142.86 412.099 154.263 416.843 165.533 421.788C176.418 426.56 187.008 432.012 198.426 437.503C200.035 420.535 203.44 405.845 216.356 393.929C219.491 391.037 217.089 377.45 212.92 372.237C201.65 358.151 188.055 345.922 176.054 331.963C194.664 335.089 208.909 347.43 226.65 355.086C225.127 346.999 223.775 339.82 222.42 332.617C203.603 327.55 202.608 325.945 206.097 306.294C206.265 305.334 206.402 304.366 206.537 303.397C209.953 278.761 232.345 268.779 253.901 282.259C255.486 283.252 257.706 285.176 258.802 284.712C269.789 280.037 279.701 285.558 288.432 289.729C298.324 294.457 305.789 290.924 314.392 288.356C320.538 286.519 327.032 285.838 335.18 284.302C338.361 273.479 346.923 264.463 360.34 260.147C359.186 251.222 347.056 245.67 353.048 233.941C364.945 242.506 368.493 259.581 386.265 261.454C388.883 250.953 391.557 240.465 394.053 229.931C394.384 228.53 394.247 226.663 393.572 225.426C384.22 208.255 387.548 198.51 406.056 190.804C393.032 175.495 397.54 159.187 404.263 143.378C405.952 139.413 411.255 135.347 415.556 134.434C429.74 131.425 447.749 140.802 453.706 153.84C455.83 158.491 457.564 159.667 462.879 159.404C468.039 159.15 473.365 162.216 479.368 164.054C482.256 161.555 485.796 157.766 490.011 154.996C500.041 148.405 510.677 145.953 521.745 152.716C527.932 156.496 533.089 156.707 539.051 151.33C543.172 147.61 549.208 146.022 554.343 143.505C549.058 122.404 566.033 102.725 587.607 103.055C590.162 97.0357 591.771 91.0366 594.996 86.0985C601.961 75.4414 610.363 73.7494 621.111 80.575C629.847 86.1222 637.773 93.0039 646.71 98.1552C653.227 101.909 660.812 103.804 669.168 107.002C668.776 103.14 668.396 100.179 668.193 97.2079C667.311 84.4326 675.477 74.7417 688.259 74.944C696.903 75.0796 705.596 76.7629 714.12 78.4721C721.774 80.0046 723.269 85.7951 721.723 92.61C720.867 96.3835 719.074 99.9957 718.626 103.791C718.402 105.661 719.721 108.739 721.28 109.639C741.247 121.147 742.541 122.976 744.52 143.456C759.106 153.132 772.112 162.737 786.138 170.501C790.715 173.03 799.254 172.907 803.668 170.21C811.474 165.442 819 164.437 827.632 164.566C831.319 164.62 835.303 162.041 838.708 159.936C843.751 156.817 848.399 153.054 853.276 149.52C853.154 149.208 853.098 148.409 852.693 148.151C848.908 145.727 841.481 142.139 841.797 141.239C844.362 133.933 847.143 125.925 852.367 120.596C856.072 116.814 859.358 114.556 859.63 108.647C860.056 99.3175 874.695 90.6794 886.406 91.2755C912.913 92.621 913.909 110.582 908.222 127.671C907.323 130.379 905.988 132.945 904.863 135.558C917.05 147.29 918.483 151.278 913.571 159.783C913.084 160.625 912.699 161.815 911.948 162.168C899.998 167.793 901.295 178.717 900.248 189.222C899.631 195.415 896.333 201.343 894.441 206.819C908.09 217.16 922.413 228.007 936.345 238.561C942.067 234.535 948.165 229.535 954.926 225.697C961.215 222.126 967.045 223.11 971.853 229.634C975.64 234.776 980.629 239.03 985.232 243.83C997.925 221.82 1007.73 216.503 1023.64 222.509C1042.76 229.727 1046.97 236.43 1043.68 253.09C1052.31 252.143 1061.28 251.157 1070.46 250.15C1075.85 244.131 1082.23 236.989 1088.62 229.849C1089.86 230.872 1091.09 231.894 1092.32 232.919C1086.67 240.614 1081.02 248.307 1075.41 255.953C1090.9 266.218 1111.43 270.053 1118.8 289.12C1132.59 297.826 1141.96 290.99 1150.1 280.758C1153.71 276.213 1157.76 271.655 1159.94 266.407C1162.93 259.215 1167.93 257.136 1174.95 256.389C1179.33 255.92 1183.71 254.169 1187.76 252.274C1191.84 250.365 1195.46 247.489 1199.36 245.171C1206.02 241.21 1213.13 239.086 1214.28 228.583C1215.32 219.054 1225.65 215.674 1235.63 218.118C1238.6 218.845 1242.35 217.857 1245.34 216.656C1250.53 214.566 1255.42 211.696 1260.43 209.154C1261.06 209.841 1261.68 210.525 1262.31 211.212C1260.97 213.434 1259.9 215.877 1258.25 217.836C1253.11 223.945 1247.92 228.936 1249.78 238.952C1251.25 246.826 1243.06 250.793 1235.58 251.984C1222.75 254.027 1209.03 267.357 1207.47 279.884C1205.69 294.22 1196.19 302.363 1181.95 301.757C1172.81 301.364 1158.78 315.759 1161.04 323.204C1175.6 315.759 1193.45 317.382 1198.65 326.625C1207.04 341.514 1200.72 352.408 1173.94 367.44C1184.1 372.449 1190.94 381.587 1203.22 380.612C1206.57 380.344 1211.04 381.058 1213.33 383.147C1220.56 389.748 1225.75 386.782 1232.47 381.957C1254.11 366.421 1270.05 360.209 1289.96 358.913C1282.85 368.551 1277.16 377.221 1270.49 385.052C1263.54 393.208 1255.99 400.945 1248.05 408.137C1240.19 415.256 1231.5 421.465 1222.86 428.323C1246.02 427.867 1261.82 441.052 1276.61 455.288C1285.09 463.444 1284.47 474.465 1275.04 481.609C1265.87 488.547 1255.18 493.489 1245.05 499.117C1242.16 500.725 1238.9 501.68 1235.82 502.934C1235.86 503.879 1235.9 504.824 1235.95 505.769C1238.42 506.373 1240.86 507.094 1243.35 507.566C1261.43 510.987 1269.77 520.289 1271.51 538.301C1271.82 541.506 1273.53 544.841 1275.39 547.578C1279.92 554.255 1285.39 560.324 1289.57 567.195C1293.42 573.524 1291.33 577.995 1283.34 577.87C1278.18 577.789 1273.04 576.795 1267.88 576.604C1265.31 576.51 1262.71 577.297 1260.13 577.684C1260.08 578.65 1260.04 579.616 1259.99 580.581C1265.55 582.675 1271.29 584.395 1276.62 586.948C1283.88 590.428 1291.33 593.86 1297.82 598.54C1308.81 606.474 1310.22 617.365 1302.07 628.165C1298.6 632.774 1293.83 636.374 1289.88 640.652C1287.9 642.794 1286.45 645.429 1284.76 647.841C1277.08 647.469 1274.52 652.088 1279.59 656.774C1284.59 661.39 1292.28 663.09 1298.79 666.068C1302.63 668.325 1306.62 670.384 1310.3 672.878C1320.28 679.63 1321.68 687.963 1314.65 697.68C1313.14 699.767 1311.48 701.746 1309.62 704.111C1315.5 711.779 1318.17 722.279 1331.6 721.056C1336.51 720.607 1342.09 724.11 1346.9 726.674C1358.07 732.62 1360.84 741.94 1355.41 753.596C1354.04 756.525 1352.09 759.211 1350.93 762.212C1346.84 772.803 1340.48 778.525 1328.08 775.689C1325.04 774.994 1319.91 777.409 1317.72 780.044C1306.63 793.371 1299.79 794.329 1285.88 783.506C1284.06 782.087 1281.76 781.279 1280.54 780.635C1280.11 788.043 1279.27 794.655 1279.44 801.236C1279.73 812.481 1268.93 808.632 1263.29 813.832C1289.84 829.131 1319.37 840.805 1332.54 873.232C1300.76 868.929 1273.73 855.181 1246.79 839.47C1253.51 853.074 1255.68 865.451 1241.26 876.042C1246.19 879.089 1250.24 881.489 1254.18 884.052C1268.64 893.451 1269.85 899.334 1260.17 912.671C1276.29 927.211 1269.12 961.646 1247.77 972.181C1235.51 978.227 1224.97 976.204 1218.37 963.42C1213.14 953.272 1211.47 941.292 1207.78 928.648C1200.64 928.151 1190.43 925.868 1183.69 937.387C1184.78 938.77 1186.56 940.1 1187 941.777C1188.4 947.122 1192 954.505 1189.81 957.616C1185.49 963.743 1178.08 967.883 1171.42 971.998C1169.97 972.892 1165.6 970.925 1163.85 969.073C1160.35 965.356 1156.7 961.19 1154.98 956.518C1151.52 947.099 1147.67 938.615 1139.16 932.268C1135.48 929.527 1134.17 923.601 1131.76 919.066C1118.49 924.926 1117.62 929.891 1127.92 945.292C1142.53 967.134 1157.25 988.902 1171.71 1010.84C1174 1014.31 1175.21 1018.5 1176.91 1022.36C1176.01 1022.99 1175.11 1023.63 1174.21 1024.27C1159.9 1011.81 1145.5 999.457 1131.33 986.843C1125.01 981.221 1119.29 974.943 1113.05 969.231C1111.23 967.57 1108.57 966.834 1105.9 965.465C1111.57 978.945 1117.25 990.713 1121.49 1002.99C1125.78 1015.43 1121.88 1027.4 1115.87 1038.46C1114.69 1040.62 1110.74 1042.61 1108.2 1042.46C1096.94 1041.8 1085.71 1040.44 1074.5 1039.09C1070.77 1038.65 1067.11 1037.51 1062.62 1036.51C1073.96 1056.86 1071.58 1063.4 1046.25 1082.28C1048.88 1084.72 1051.35 1087.03 1053.84 1089.31C1067.68 1101.92 1070.75 1116.96 1059.53 1131.64C1051.43 1142.24 1041.15 1152.03 1029.93 1159.19C1012 1170.64 994.171 1159.25 989.248 1133.79C977.805 1136.96 966.436 1140.1 953.472 1143.69C958.882 1161.11 964.556 1178.06 969.372 1195.26C974.186 1212.43 978.141 1229.84 980.764 1247.79C967.432 1239.43 958.482 1227.78 952.708 1214.69C944.005 1194.97 937.435 1174.3 929.983 1154.03C929.099 1151.62 928.979 1148.68 927.494 1146.78C913.451 1128.81 913.387 1128.86 909.33 1109.43C889.676 1109.43 869.988 1109.48 850.296 1109.4C840.032 1109.36 833.645 1103.94 832.547 1092.62C831.034 1077.03 830.171 1061.29 842.645 1048.63C844.148 1047.1 843.878 1043.83 844.831 1039.59C840.246 1041.49 837.712 1042.76 835.043 1043.6C826.009 1046.48 823.238 1051.06 825.159 1061.49C826.972 1071.36 825.839 1082.88 817.149 1088.65C821.527 1116.72 825.785 1144 830.038 1171.28C828.918 1171.53 827.795 1171.77 826.674 1172.02C814.701 1153.53 807.585 1132.88 801.203 1111.97C799.137 1105.2 799.639 1097.23 796.229 1091.41C792.752 1085.48 785.909 1081.53 780.54 1076.71C778.701 1078.88 775.805 1080.79 775.197 1083.26C771.832 1096.87 765.233 1107.17 749.654 1110.12C752.514 1114.57 755.917 1118.27 757.376 1122.61C758.82 1126.92 760.394 1133.56 758.25 1136.22C752.685 1143.15 754.519 1150.19 754.603 1157.52C754.712 1166.88 755.158 1176.34 753.941 1185.56C752.792 1194.26 752.387 1201.21 758.026 1209.56C773.521 1232.52 749.315 1260.09 731.538 1262.43C711.395 1265.07 698.485 1252.24 701.923 1229.98C703.77 1218.03 700.971 1211.34 691.603 1204.16C683.306 1197.8 676.913 1188.66 670.663 1180.03C667.604 1175.81 665.111 1174.11 659.826 1174.39C653.184 1174.75 646.458 1173.51 639.237 1172.92C639.607 1206.74 647.813 1241.61 633.326 1275.15C621.86 1265.63 618.108 1252.55 611.55 1199.29C600.887 1204.18 590.648 1209.53 579.946 1213.66C561.874 1220.64 543.651 1224.27 526.342 1211.17C514.762 1202.41 511.677 1196.56 511.598 1182.67C504.918 1181.69 498.113 1181.23 491.588 1179.62C475.092 1175.54 467.882 1165.81 470.217 1148.98C471.659 1138.58 475.43 1128.51 478.624 1116.52C474.857 1118.89 472.379 1120.54 469.81 1122.04C455.043 1130.63 441.868 1127.79 433.491 1112.64C426.177 1099.41 420.551 1085.25 414.247 1071.65C413.501 1073.35 412.319 1076.09 411.089 1078.82C402.664 1097.54 389.392 1103.25 370.772 1094.47C362.693 1090.65 359.209 1092.16 354.653 1099.2C345.843 1112.8 335.987 1125.73 326.365 1138.8C324.643 1141.13 321.954 1142.76 318.668 1144.05C324.327 1121.45 338.068 1103.06 350.362 1084.03C328.698 1068.22 328.565 1049.99 353.209 1026.35C344.109 1014.16 334.976 1001.93 325.802 989.638C290.016 1014.3 279.064 1007.05 264.063 991.873C231.051 1033.51 205.46 1081.98 156.82 1109.12C183.985 1061.35 216.391 1017.32 250.904 974.737C250.392 973.98 249.877 973.228 249.363 972.477C242.514 973.384 235.62 974.033 228.825 975.254C210.238 978.584 200.937 969.865 203.226 950.966C203.754 946.61 204.373 942.258 205.182 936.141C192.109 942.319 180.74 947.713 169.356 953.068C149.475 962.421 146.757 962 131.72 946.803C130.293 960.321 123.455 970.777 112.362 976.456C104.742 980.359 94.885 982.077 86.3421 981.302C79.2475 980.658 72.3812 975.338 65.8289 971.394C57.1721 966.184 63.6964 957.657 62.2503 952.082C52.8467 947.412 44.261 942.65 35.2298 938.989C32.8176 938.008 28.6711 939.743 25.9597 941.323C9.74788 950.773 16.1581 935 0 944.538" fill="#B03025"/>
<path fill-rule="evenodd" clip-rule="evenodd" d="M242.947 1108.79C245.8 1085.14 254.306 1069.12 273.11 1060.4C276.709 1058.73 283.106 1059.02 286.226 1061.23C293.123 1066.1 303.881 1067.03 304.9 1078.81C306.15 1093.26 301.355 1105.16 291.027 1114.68C284.606 1120.6 277.414 1125.77 270.153 1130.67C263.195 1135.36 255.552 1134.13 251.1 1127.63C246.752 1121.3 244.812 1113.31 242.947 1108.79Z" fill="#B03025"/>
<path fill-rule="evenodd" clip-rule="evenodd" d="M1284.59 647.701C1301.31 648.04 1318.14 649.75 1334.72 648.376C1356.21 646.595 1380.92 649.398 1401 659.184C1376.25 671.67 1350.33 672.19 1324.02 668.835C1315.74 667.78 1307.63 665.456 1299.44 663.716C1293.31 659.469 1284.98 657.263 1284.59 647.701Z" fill="#B03025"/>
<path fill-rule="evenodd" clip-rule="evenodd" d="M1286.59 1067.59C1259.07 1069.09 1222.22 1041 1218.62 1016.34C1242.75 1014.55 1278.62 1041.34 1286.59 1067.59Z" fill="#B03025"/>
<path fill-rule="evenodd" clip-rule="evenodd" d="M931.368 219.25C940.687 195.008 950.167 170.979 979.998 160.468C970.544 187.545 954.501 206.277 931.368 219.25Z" fill="#B03025"/>
<path fill-rule="evenodd" clip-rule="evenodd" d="M698.75 6.16943C708.337 28.1515 718.045 48.3747 704.249 70.8412C689.123 53.7927 686.719 27.8458 698.75 6.16943Z" fill="#B03025"/>
<path fill-rule="evenodd" clip-rule="evenodd" d="M798.803 162.312C784.406 140.576 777.519 117.042 781.337 89.6204C795.528 106.23 799.473 121.607 798.803 162.312Z" fill="#B03025"/>
<path d="M634.234 159.761C627.712 174.974 627.551 187.975 630.752 201.187C633.859 213.988 637.164 226.74 640.124 238.497C634.442 240.749 629.291 242.792 623.087 245.25C610.324 222.943 579.836 213.245 578.283 181.293C573.596 190.03 570.143 198.052 568.414 206.437C564.145 227.179 566.371 249.332 554.719 268.468C554.421 268.962 554.659 269.759 554.56 270.399C552.777 281.774 550.98 293.139 549.536 302.3C543.538 304.575 538.491 306.748 533.265 308.356C531.008 309.049 528.334 308.962 525.958 308.57C503.7 304.891 488.968 314.789 484.113 336.366C475.663 336.366 466.461 334.145 459.271 336.998C452.273 339.778 444.999 346.798 442.175 353.723C439.579 360.102 442.741 368.831 443.528 378.548C432.568 366.908 422.036 354.646 410.349 343.611C398.32 332.248 385.159 322.079 372.494 311.391C371.271 312.721 370.05 314.052 368.828 315.382C383.039 347.125 416.259 360.423 438.17 381.016C432.577 386.3 428.13 390.8 423.337 394.905C421.047 396.864 417.426 399.944 415.582 399.274C409.324 397.004 401.995 394.601 398.022 389.809C392.287 382.892 386.696 383.524 379.995 385.873C377.329 386.811 374.909 388.471 372.902 389.525C352.919 375.936 333.468 362.708 311.697 347.906C313.569 355.057 314.657 359.202 315.846 363.74C310.291 361.248 305.444 359.073 300.6 356.897C306.31 363.218 312.307 369.308 317.597 375.966C319.793 378.731 320.571 382.627 321.945 386.047C310.892 377.007 299.84 367.973 288.79 358.933C291.46 365.776 292.69 373.762 297.063 379.245C309.991 395.446 323.395 411.435 338.111 425.99C347.774 435.549 356.077 445.016 358.267 458.931C351.895 465.313 332.671 467.586 323.342 461.713C315.842 456.992 309.632 457.774 304.276 463.858C300.407 468.247 297.317 468.118 292.621 465.45C280.189 458.385 267.51 451.749 254.88 445.033C249.751 442.305 244.497 439.804 237.485 436.29C243.516 453.686 254.564 463.612 267.102 471.959C277.962 479.192 290.642 484.686 287.93 501.392C287.792 502.246 288.319 503.339 288.82 504.144C293.053 510.906 292.373 517.34 287.462 523.844C279.172 519.031 272.093 511.019 260.476 518.748C246.619 527.969 249.541 540.626 250.786 552.824C226.242 558.914 219.816 579.364 213.563 598.599C207.033 597.493 201.515 597.321 196.551 595.579C178.662 589.296 166.458 595.484 162.263 613.532C167.538 614.399 172.814 615.268 178.096 616.145C178.191 617.029 178.281 617.913 178.375 618.802C172.148 620.29 165.921 621.783 159.691 623.27C161.082 633.596 163.794 635.459 174.56 634.402C177.315 634.134 181.378 634.184 182.832 635.845C190.434 644.538 195.739 654.381 194.089 665.716C176.118 672.152 158.54 678.446 138.58 685.6C160.213 699.231 179.927 695.376 198.287 691.218C199.632 697.753 200.942 703.152 201.764 708.63C202.047 710.507 201.763 713.124 200.63 714.467C186.612 731.131 185.703 737.907 195.516 756.031L249.021 733.998C249.573 735.182 250.127 736.363 250.677 737.55L204.664 767.123H226.596C228.807 771.284 231.489 776.337 234.341 781.708C222.786 790.225 211.381 798.175 200.511 806.802C193.092 812.687 186.418 819.518 179.415 825.925L179.494 826.02C193.163 820.364 206.83 814.712 220.443 809.081C219.111 815.799 217.345 822.282 216.637 828.876C215.721 837.401 219.577 847.425 207.903 851.935C206.769 852.373 206.693 855.09 205.545 856.05C203.186 858.017 200.589 859.871 197.795 861.086C195.5 862.084 191.746 861.207 190.448 862.718C186.991 866.746 182.594 871.424 182.115 876.198C181.476 882.572 186.814 884.813 193.477 884.772C206.038 884.698 218.606 885.608 231.172 886.11C230.722 886.982 230.273 887.854 229.824 888.728C233.156 892.547 235.878 898.227 240.017 899.59C243.323 900.676 248.353 896.505 254.537 893.848C265.654 901.025 280.775 907.787 295.173 899.158C307.937 891.507 317.992 879.324 329.555 868.863C332.698 873.207 336.237 879.555 341.165 884.533C346.223 889.639 347.623 895.041 347.801 901.909C347.967 908.286 349.863 914.657 351.338 920.953C355.484 938.629 370.115 955.489 392.675 953.168C402.6 952.149 412.57 951.595 421.894 950.879C424.283 960.107 426.803 969.821 429.375 979.755C417.278 984.692 417.166 984.673 415.164 997.534C414.316 1002.95 414.359 1007.7 408.802 1012C405.786 1014.34 406.724 1022.8 407.483 1028.27C407.672 1029.63 415.101 1031.96 417.477 1030.67C425.573 1026.27 433.756 1021.3 440.21 1014.86C444.091 1010.98 446.459 1009.32 451.491 1011.34C461.962 1015.54 467.697 1009.82 471.981 1001.14C477.299 990.375 477.498 979.502 473.005 967.991C476.006 969.917 477.829 972.261 479.691 974.575C491.86 989.7 503.958 990.69 518.949 978.033C524.335 973.48 530.08 969.346 535.662 965.026C546.823 979.927 548.157 980.069 563.036 969.529C568.003 966.01 573.233 962.861 577.173 960.303C578.656 970.912 578.307 982.001 582.048 991.468C585.894 1001.2 593.735 1009.35 600.12 1018.61C582.57 1028.75 564.415 1039.94 567.145 1065.71C555.297 1071.14 549.74 1080.25 550.774 1093.07C551.829 1106.16 557.929 1110.34 570.513 1106.35C579.093 1103.62 586.86 1100.38 596.538 1104.76C600.988 1106.77 608.471 1103.67 613.939 1101.36C618.564 1099.41 622.364 1095.38 626.365 1092.07C655.852 1067.65 673.502 1037.26 674.024 998.066C674.067 994.864 676.284 991.687 677.491 988.503C679.653 991.155 682.478 993.503 683.868 996.514C690.197 1010.23 696.119 1024.14 702.189 1037.98C703.342 1037.52 704.495 1037.06 705.651 1036.6C702.73 1023.04 700.408 1009.31 696.677 995.977C694.039 986.552 693.692 978.036 697.12 968.658C698.956 963.634 698.191 957.201 697.165 951.675C694.855 939.255 696.705 934.425 708.024 928.173C708.76 928.733 709.61 929.237 710.282 929.915C721.638 941.4 731.772 954.468 751.271 951.317C757.383 950.328 759.323 957.682 754.474 963.05C747.137 971.177 744.996 980.387 747.316 990.971C748.875 998.058 753.334 1001.12 760.055 999.813C781.21 995.706 800.436 988.201 810.44 967.011C815.147 957.044 819.175 946.759 823.767 936.025C824.961 937.727 825.616 938.821 826.428 939.792C837.558 953.101 848.349 966.871 868.66 965.095C870.54 964.93 874.122 967.318 874.331 968.867C874.654 971.285 873.324 974.434 871.719 976.52C861.384 989.949 859.875 1000.87 869.64 1013.88C875.928 1022.25 884.303 1029.32 892.661 1035.79C899.24 1040.88 905.54 1043.49 905.008 1054.73C904.236 1071.07 910.889 1074.87 927.273 1071.99C927.591 1071.93 927.93 1071.9 928.218 1071.77C936.434 1067.86 939.421 1071.69 941.718 1079.46C945.439 1092.06 950.919 1094.15 962.989 1088.75C967.711 1086.63 972.267 1084.02 976.594 1081.16C995.221 1068.87 996.097 1062.51 984.473 1049.41C984.473 1039.28 987.007 1030.84 983.941 1025.82C977.691 1015.59 976.931 1003.4 977.698 994.111C979.364 973.876 976.443 955.468 968.978 937.239C966.136 930.286 968.427 927.193 972.957 926.645C978.736 935.947 982.454 945.314 989.114 951.521C994.035 956.101 1002.76 958.353 1009.84 958.457C1022.34 958.641 1035.06 957.336 1047.32 954.845C1056.33 953.018 1057.04 946.078 1049.8 939.971C1045.69 936.509 1041.27 933.409 1037.04 930.183C1053.48 907.59 1053.22 906.918 1020.69 887.817C1039.74 875.007 1058.63 862.3 1077.92 849.332C1095.27 871.658 1112.81 891.862 1143.41 898.909C1136.64 890.888 1131.35 884.876 1126.35 878.626C1121.24 872.237 1116.42 865.61 1110.19 857.408C1128.4 857.408 1144.37 855.9 1159.93 857.821C1176.14 859.821 1187.25 851.592 1198.38 843.097C1205.22 837.869 1205.22 829.979 1199.34 823.233C1196.38 819.847 1192.4 817.37 1189.26 814.127C1185.82 810.578 1181.85 807.07 1179.76 802.747C1171.72 786.107 1149.38 774.003 1133.31 777.16C1129.39 767.919 1125.59 758.989 1123.35 753.718C1126.69 748.732 1132.13 744.26 1132.27 739.625C1132.54 730.752 1137.56 728.258 1143.89 725.682C1154 742.156 1162.24 747.175 1173.23 738.416C1184.82 729.186 1196.52 730.519 1208.9 730.096C1209.7 730.068 1210.5 729.556 1213.97 728.305C1201.66 724.881 1191.68 722.105 1180.14 718.895C1184.28 717.456 1186.75 716.701 1189.13 715.75C1199.73 711.521 1200.76 706.415 1192.18 698.772C1187.93 694.989 1183.05 691.914 1177.22 687.606C1182.67 682.306 1186.65 676.144 1192.3 673.349C1209.42 664.891 1221.3 652.093 1228.81 634.835L1226.8 618.498C1226.8 618.498 1212.1 604.433 1203.41 600.087C1195.78 596.265 1191.48 592.015 1190.62 583.97C1193.54 581.577 1196.45 579.506 1198.99 577.058C1216.63 560.041 1213.57 547.14 1190.26 539.872C1174.6 534.988 1163.77 503.445 1168.2 487.409C1165.14 484.935 1162.37 480.873 1158.97 480.264C1144.75 477.716 1130.23 476.746 1116.03 474.083C1108.53 472.677 1100.69 470.127 1094.47 465.908C1090.29 463.067 1088.69 456.411 1085.63 450.9C1093.68 441.899 1079.49 439.492 1078.39 431.026C1081.9 429.77 1085.92 428.93 1089.27 426.945C1092.46 425.05 1097.53 421.681 1097.29 419.436C1096.01 407.37 1100.88 399.044 1110.13 392.158C1111.77 390.94 1113.13 387.26 1112.45 385.619C1111.75 383.933 1108.19 382.183 1106.24 382.519C1101.09 383.403 1095.82 387.331 1091.17 386.575C1080.91 384.911 1077.71 391.734 1073.07 397.935C1070.87 400.88 1067.64 404.105 1064.3 404.951C1056.2 407.002 1047.77 407.732 1040.64 408.818C1032.93 403.037 1018.57 393.254 1009.86 386.858C1009.74 385.205 1009.49 383.526 1009.84 381.977C1013.58 365.416 1012.51 363.804 999.351 353.389C994.227 349.333 988.652 344.114 991.601 335.316C992.446 332.797 990.453 327.695 988.159 326.131C984.697 323.771 979.828 323.478 974.459 322.005C975.778 315.835 975.96 309.116 978.663 303.644C983.221 294.403 981.477 288.56 971.882 285.217C964.83 282.761 958.069 279.476 950.94 276.46C952.83 272.628 954.122 270.397 955.064 268.025C959.437 256.999 955.039 250.302 943.374 251.669C938.78 252.207 934.545 256.013 930.202 258.436C927.592 259.891 925.086 261.545 922.532 263.104C910.585 270.395 891.34 267.815 890.273 284.436C881.377 288.189 874.293 289.925 868.779 293.856C863.184 297.846 858.978 299.114 854.16 294.702C859.09 256.325 863.95 218.539 868.809 180.755C864.574 186.991 860.717 193.619 859.587 200.684C855.132 228.452 851.509 256.355 847.643 284.217C846.963 289.114 848.839 295.367 841.117 296.269C833.632 297.141 824.076 287.564 824.229 280.022C824.438 269.74 825.075 259.361 823.995 249.181C822.398 234.057 818.039 219.64 807.704 205.984C798.795 227.994 799.649 248.948 803.948 269.478C796.456 269.478 789.503 268.3 783.151 269.747C772.882 272.088 779.882 280.544 777.455 286.855C771.727 271.927 766.002 256.999 760.274 242.07C759.11 242.417 757.946 242.759 756.782 243.105C751.698 257.467 753.334 272.559 754.508 287.178C755.046 293.866 753.846 297.338 748.161 300.778C743.732 272.561 742.975 243.35 722.185 220.29C719.832 225.585 715.627 231.208 714.982 237.213C713.164 254.176 712.847 271.3 711.824 288.352C711.683 290.691 711.454 293.438 710.142 295.12C709.511 295.925 704.944 295.347 704.402 294.269C698.488 282.554 692.046 270.954 687.797 258.615C685.207 251.095 683.468 245.113 674.212 245.334C671.709 245.395 669.194 244.837 666.736 244.568C659.467 215.31 651.741 186.845 634.234 159.761Z" fill="#CA8341"/>
<path fill-rule="evenodd" clip-rule="evenodd" d="M1242.33 722.136C1247.55 719.232 1249.94 716.837 1252.43 716.732C1258.22 716.49 1264.47 718.297 1263.33 725.412C1262.81 728.689 1256.85 733.886 1254.29 733.387C1250.59 732.668 1247.74 727.573 1242.33 722.136Z" fill="#CA8341"/>
<path fill-rule="evenodd" clip-rule="evenodd" d="M1098.55 354.362C1097.81 347.84 1096.58 341.252 1105.45 341.601C1108.79 341.733 1114.98 346.097 1114.73 347.738C1113.35 356.635 1106.18 355.369 1098.55 354.362Z" fill="#CA8341"/>
<path fill-rule="evenodd" clip-rule="evenodd" d="M293.887 351.774C290.337 350.913 286.787 350.054 283.236 349.193C277.916 343.331 272.598 337.466 267.28 331.606L267.423 331.436C276.243 338.215 285.065 344.995 293.887 351.774Z" fill="#CA8341"/>
<path fill-rule="evenodd" clip-rule="evenodd" d="M97.613 823.719C107.699 818.649 117.698 813.404 127.902 808.588C132.159 806.578 136.848 805.49 142.184 805.862C123.902 817.765 105.62 829.673 87.3382 841.579C81.5046 842.924 75.6688 844.272 69.8331 845.617C69.392 844.891 68.9509 844.165 68.5098 843.439C78.2123 836.868 87.9128 830.295 97.613 823.719Z" fill="#DFC25B"/>
<path d="M949.061 996.234C943.531 990.313 938.231 984.158 932.427 978.52C916.861 963.399 900.854 948.716 885.478 933.402C879.068 927.015 874.109 919.188 867.892 912.572C864.683 909.158 860.015 907.163 856.304 904.154C853.981 902.269 851.75 899.943 850.334 897.346C848.895 894.709 848.505 891.497 847.12 886.669C844.178 889.948 842.892 892.58 840.905 893.316C837.936 894.414 832.058 895.313 831.594 894.327C826.653 883.828 810.177 883.224 809.908 868.282C809.859 865.461 802.394 862.774 796.43 858.725C795.558 869.851 794.777 879.826 793.878 891.29C787.546 887.454 782.18 884.208 774.241 879.403C776.08 901.201 777.72 920.617 779.358 940.036C778.759 940.324 778.158 940.612 777.56 940.895C773.177 933.583 768.878 926.22 764.387 918.972C759.431 910.977 754.804 902.702 749.073 895.293C745.258 890.363 739.736 886.758 735.025 882.511C730.463 878.399 725.639 874.514 721.519 869.994C716.539 864.537 715.35 855.806 705.993 853.946C703.876 853.525 702.975 847.882 701.126 844.883C699.926 842.937 698.026 841.424 696.445 839.714C694.812 841.722 692.207 843.525 691.736 845.778C690.07 853.704 689.425 861.841 687.78 869.77C687.149 872.83 684.872 875.548 682.735 879.566C679.921 874.944 678.242 872.195 676.579 869.464C661.137 879.247 661.092 896.33 656.202 911.068C653.881 918.054 651.459 925.007 649.083 931.978C648.008 931.998 646.931 932.021 645.851 932.041C640.156 897.851 634.456 863.66 628.611 828.593C623.401 826.379 620.377 829.171 618.91 835.444C616.19 847.087 611.817 857.935 600.968 864.424C598.991 865.604 595.701 864.593 591.206 864.593C589.176 868.368 585.885 874.491 582.712 880.394C566.929 877.915 565.704 875.5 571.574 858.878C564.385 855.762 559.999 858.901 556.841 865.089C550.387 877.747 543.954 890.417 537.51 903.076C536.484 902.88 535.457 902.686 534.433 902.493C534.433 890.001 534.433 877.512 534.433 863.546C515.342 867.133 496.954 863.749 479.554 872.745C462.001 881.82 441.677 874.458 431.619 857.13C429.984 854.31 428.843 849.892 429.872 847.092C432.666 839.459 428.973 839.327 423.51 839.999C419.231 856.876 399.615 866.85 381.028 860.126C373.23 857.306 366.86 850.534 359.838 845.566C357.918 844.208 356.173 842.297 354.036 841.61C337.953 836.445 333.073 819.946 343.589 806.762C345.204 804.741 346.006 801.238 345.66 798.619C342.387 773.773 356.107 751.613 378.991 744.745C378.991 733.308 378.991 722.024 378.991 710.098C375.789 709.731 373.303 709.458 370.82 709.163C355.091 707.293 339.377 704.478 322.025 710.465C327.857 697.201 339.262 695.369 347.909 689.787C353.389 686.246 358.119 681.535 363.172 677.326C369.59 671.984 375.993 666.623 383.855 660.053C364.804 660.053 346.841 660.183 328.889 659.961C324.337 659.907 318.011 662.623 317.262 653.772C317.145 652.371 311.239 651.202 307.895 650.392C302.134 648.995 296.286 647.961 290.823 644.542C297.453 644.542 304.082 644.542 310.714 644.542C310.757 644.183 310.801 643.824 310.847 643.464C304.044 641.65 297.244 639.839 290.444 638.025C290.525 637.566 290.607 637.108 290.688 636.649C294.521 636.389 298.352 636.129 303.901 635.752C278.789 631.286 255.409 627.128 232.031 622.97C232.077 622.242 232.123 621.513 232.171 620.784C238.001 620.784 243.831 620.784 252.279 620.784C248.191 617.63 246.126 616.038 242.67 613.373C280.569 608.838 317.257 604.448 353.942 600.059C354.039 599.671 354.138 599.284 354.235 598.894C343.258 595.992 332.278 593.088 321.299 590.186C321.393 589.18 321.487 588.173 321.582 587.167C337.408 585.264 353.234 583.358 369.063 581.455C369.152 580.861 369.239 580.268 369.328 579.674C361.774 577.57 354.22 575.473 346.666 573.371C346.513 572.265 346.363 571.16 346.21 570.054C352.088 568.798 358.504 565.402 363.742 566.709C376.928 570 383.167 565.967 390.128 554.029C398.408 539.82 411.483 528.411 423 515.193C422.911 494.259 404.701 481.772 392.56 465.153C381.925 450.593 369.646 438.259 357.062 425.653C348.795 417.373 344.455 405.172 338.36 394.729C339.18 394.048 339.998 393.371 340.818 392.691C370.568 411.462 400.321 430.237 428.061 447.739C434.808 442.672 441.335 439.301 445.548 434.066C448.41 430.507 448.553 424.384 449.001 419.325C451.123 395.338 461.005 375.99 482.964 364.813C501.714 355.269 522.025 353.134 542.841 355.766C545.092 356.051 547.336 356.451 549.597 356.632C550.843 356.729 552.116 356.474 553.907 356.337C552.162 337.751 569.685 331.025 574.88 317.746C572.952 314.926 569.883 311.257 567.907 307.074C567.268 305.721 569.272 301.346 570.431 301.199C578.331 300.187 577.524 294.562 578.255 288.985C580.45 272.183 583.188 255.449 585.931 237.256C611.331 275.168 628.808 316.029 644.112 361.351C646.424 356.691 647.937 354.811 648.255 352.745C648.795 349.231 648.314 345.57 648.737 342.026C649.977 331.624 654.075 329.425 663.386 333.955C663.386 321.79 663.386 309.639 663.386 297.487C664.321 297.178 665.251 296.873 666.183 296.567C673.337 310.202 680.741 323.716 687.533 337.532C690.648 343.866 693.48 348.513 701.714 349.914C712.971 351.83 716.417 358.951 717.044 376.438C721.776 370.609 724.952 364.721 729.821 361.15C738.071 355.101 747.435 350.582 756.243 345.275C758.744 343.766 762.09 342.255 763.104 339.906C772.815 317.471 794.71 308.939 817.757 319.637C824.577 322.801 830.84 325.043 838.157 322.047C839.576 321.463 841.372 321.764 842.996 321.716C857.641 321.293 863.463 325.435 863.427 336.235C863.384 348.528 855.285 356.956 843.142 356.811C837.903 356.75 835.076 358.265 831.569 362.918C825.813 370.566 817.566 376.329 810.366 382.889C809.638 382.263 808.909 381.636 808.178 381.009C809.915 385.264 811.647 389.519 812.882 392.548C832.598 393.198 838.868 373.965 855.586 365.845C854.992 373.682 854.501 380.087 854.024 386.372C860.812 388.308 867.668 390.263 875.571 392.517C888.888 378.334 903.413 362.864 917.941 347.394C919.234 347.878 920.526 348.36 921.819 348.844C918.437 369.295 915.05 389.743 911.413 411.725C913.883 410.606 916.838 410.079 918.598 408.341C927.83 399.236 933.838 399.116 941.754 408.104C949.73 402.619 957.539 396.966 965.702 391.885C967.25 390.922 970.798 393.223 972.405 392.28C976.503 389.878 979.998 386.451 983.792 383.511C988.545 379.827 993.353 376.217 998.139 372.576L998.042 372.474C993.603 385.012 989.159 397.552 984.689 410.173C993.211 402.841 1001.54 395.676 1009.87 388.51C1011.8 389.04 1013.73 389.57 1015.66 390.102C1004.73 409.549 1006.54 428.95 1015.98 448.078C1019.99 447.566 1024.14 447.031 1028.3 446.501C1028.76 447.436 1029.22 448.376 1029.67 449.314C1025.25 453.339 1021.22 457.969 1016.31 461.258C1007.23 467.321 995.256 470.213 994.497 484.292C994.397 486.149 991.57 487.721 990.562 489.708C989.378 492.04 988.802 494.674 987.129 499.655C998.33 497.456 1007.24 494.424 1016.19 494.271C1027.63 494.073 1039.71 494.409 1050.34 497.986C1056.71 500.129 1062.01 501.402 1068.55 500.661C1090.75 498.144 1113.04 496.473 1135.21 493.782C1146.3 492.437 1157.2 489.581 1168.19 487.405C1184.59 484.865 1200.99 482.338 1217.38 479.78C1220.51 479.291 1223.62 478.679 1226.74 478.124L1226.62 477.996C1220.9 483.308 1215.74 489.469 1209.32 493.736C1198.61 500.86 1187.1 506.771 1175.93 513.193C1161.33 519.728 1146.73 526.263 1132.39 532.689C1139.57 553.825 1134.61 555.532 1121.37 560.38C1112.56 563.608 1104.48 569.055 1095.54 571.689C1084.43 574.963 1085.88 584.12 1084.51 591.773C1083.82 595.646 1098.16 605.768 1103 605.205C1126.05 602.522 1148.53 607.312 1171.12 610.214C1189.72 612.604 1208.24 615.709 1226.79 618.496C1240.71 619.218 1254.67 619.498 1268.53 620.823C1277.7 621.696 1286.72 624.071 1295.81 625.77C1295.74 626.881 1295.68 627.989 1295.62 629.1C1273.35 631.006 1251.08 632.914 1228.8 634.817C1193.3 638.399 1157.81 642.022 1122.3 645.543C1106.17 647.146 1090.02 648.55 1073.88 650.043C1073.68 651.153 1073.5 652.267 1073.3 653.378C1077.51 654.007 1081.72 655.143 1085.94 655.176C1108.31 655.357 1130.68 655.263 1153.32 656.881C1127.15 659.994 1100.99 663.11 1071.77 666.585C1075.89 668.244 1078.31 669.214 1082.23 670.796C1076.04 673.347 1073.07 674.575 1070.09 675.798C1070.08 676.761 1070.06 677.721 1070.05 678.682C1094.59 683.757 1119.13 688.832 1143.67 693.91C1143.48 695.043 1143.28 696.174 1143.08 697.308C1105.1 697.148 1067.63 683.596 1029.39 690.279C1029.26 691.29 1029.12 692.299 1028.98 693.311C1040.97 696.21 1052.95 699.112 1064.94 702.009C1064.97 702.62 1065 703.229 1065.04 703.838C1063.16 704.233 1061.26 705.069 1059.41 704.946C1045.24 703.988 1041.37 715.471 1036.15 724.76C1035.34 726.207 1038.44 730.691 1040.64 732.844C1049.82 741.835 1059.34 750.472 1068.75 759.241C1068.44 759.529 1068.15 759.822 1067.85 760.118C1054.73 754.543 1041.52 749.155 1028.53 743.297C1023.82 741.178 1019.68 739.012 1015.61 743.998C1015.41 744.235 1015.04 744.52 1014.79 744.492C996.735 742.454 990.266 761.412 975.624 765.532C976.057 773.305 976.465 780.619 976.801 786.673C985.015 789.536 992.658 791.259 999.366 794.772C1008.97 799.799 1017.51 804.828 1029.65 802.836C1040.3 801.088 1043.33 812.517 1046.54 820.109C1050.17 828.675 1045.13 840.096 1037.63 845.052C1027.1 852.002 1020.19 850.853 1008 839.887C1003.47 842.725 998.826 845.622 994.201 848.55C985.814 853.859 977.514 854.763 968.508 849.479C966.12 848.081 961.81 848.376 959.021 849.492C944.932 855.12 930.998 861.143 917.171 867.39C914.999 868.368 912.722 870.952 912.106 873.232C909.869 881.561 907.898 890.017 906.729 898.549C906.299 901.69 907.855 905.448 909.398 908.462C917.823 924.91 927.069 940.961 934.951 957.656C940.725 969.893 944.838 982.915 949.692 995.587L949.061 996.234Z" fill="#DFC25B"/>
<path fill-rule="evenodd" clip-rule="evenodd" d="M195.509 756.021C213.345 748.676 231.181 741.33 249.016 733.985C249.567 735.173 250.117 736.357 250.672 737.542C235.335 747.399 219.997 757.256 204.66 767.114C192.234 771.921 179.808 776.736 167.379 781.547C166.712 780.341 166.047 779.136 165.38 777.931C175.422 770.627 185.467 763.328 195.509 756.021Z" fill="#DFC25B"/>
<path fill-rule="evenodd" clip-rule="evenodd" d="M162.262 613.534C167.539 614.4 172.814 615.266 178.088 616.132C178.183 617.019 178.279 617.903 178.374 618.79C172.147 620.28 165.917 621.771 159.69 623.261C142.506 623.261 125.324 623.261 108.141 623.261C108.015 622.155 107.888 621.052 107.761 619.946C120.179 618.239 132.582 616.423 145.018 614.871C150.733 614.16 156.511 613.964 162.262 613.534Z" fill="#DFC25B"/>
<path fill-rule="evenodd" clip-rule="evenodd" d="M300.595 356.892C306.308 363.213 312.308 369.305 317.595 375.962C319.839 378.785 320.59 382.792 322.017 386.262L322.096 386.173C310.994 377.091 299.892 368.008 288.793 358.925V358.915C288.294 358.084 287.794 357.259 287.295 356.434C285.94 354.018 284.585 351.606 283.23 349.193C286.781 350.051 290.331 350.913 293.881 351.774C293.881 351.774 294.103 352.021 294.108 352.011C296.273 353.634 298.435 355.267 300.6 356.9L300.595 356.892Z" fill="#DFC25B"/>
<path fill-rule="evenodd" clip-rule="evenodd" d="M474.519 321.672C462.006 315.374 454.824 304.633 448.215 289.907C452.715 290.776 456.719 290.401 457.636 291.907C463.59 301.662 468.872 311.828 474.376 321.861L474.519 321.672Z" fill="#DFC25B"/>
<path fill-rule="evenodd" clip-rule="evenodd" d="M1068.88 333.904C1061.9 343.015 1054.92 352.128 1047.94 361.239C1046.95 360.454 1045.97 359.67 1044.98 358.882C1049.92 347.978 1057.48 339.267 1068.34 333.331L1068.88 333.904Z" fill="#DFC25B"/>
<path fill-rule="evenodd" clip-rule="evenodd" d="M1095.39 784.079C1117.1 793.213 1133.04 806.01 1144.6 824.665C1128.99 824.889 1102.65 803.776 1095.39 784.079Z" fill="#DFC25B"/>
<path fill-rule="evenodd" clip-rule="evenodd" d="M260.615 559.358C275.858 550.732 303.125 552.617 311.242 562.861C296.569 571.674 271.228 571.345 260.615 559.358Z" fill="#DFC25B"/>
<path fill-rule="evenodd" clip-rule="evenodd" d="M661.637 251.692C648.615 228.143 640.696 205.859 637.571 180.502C649.511 191.428 660.73 224.769 661.637 251.692Z" fill="#DFC25B"/>
<path fill-rule="evenodd" clip-rule="evenodd" d="M377.327 939.527C389.3 923.056 399.969 908.378 411.919 891.948C416.529 911.328 399.34 934.368 377.327 939.527Z" fill="#DFC25B"/>
<path fill-rule="evenodd" clip-rule="evenodd" d="M638.31 1040.77C632.432 1018.37 635.221 996.838 643.6 975.868C644.598 975.962 645.596 976.059 646.597 976.156C644.98 997.997 643.363 1019.84 641.743 1041.68C640.599 1041.38 639.451 1041.08 638.31 1040.77Z" fill="#DFC25B"/>
<path fill-rule="evenodd" clip-rule="evenodd" d="M729.898 298.351C719.234 280.72 716.927 263.658 724.723 257.052C735.071 269.788 732.498 283.935 729.898 298.351Z" fill="#DFC25B"/>
<path fill-rule="evenodd" clip-rule="evenodd" d="M563.995 925.894C560.676 936.189 557.964 945.631 554.431 954.752C553.667 956.721 549.939 957.536 547.573 958.882C546.651 956.635 545.059 954.423 544.921 952.128C544.297 941.707 553.611 927.623 563.995 925.894Z" fill="#DFC25B"/>
<path fill-rule="evenodd" clip-rule="evenodd" d="M1011.89 934.006C1006.73 927.576 1001.63 923.889 1000.93 919.494C1000.39 916.106 1005.36 911.833 1007.88 907.958C1011.76 913.059 1016.11 917.904 1019.16 923.469C1019.83 924.689 1015.83 928.462 1011.89 934.006Z" fill="#DFC25B"/>
<path fill-rule="evenodd" clip-rule="evenodd" d="M514.632 937.056C515.116 951.96 510.154 965.221 501.857 972.005C498.276 961.203 505.05 941.626 514.632 937.056Z" fill="#DFC25B"/>
<path fill-rule="evenodd" clip-rule="evenodd" d="M924.586 297.283C930.961 299.537 935.163 301.097 939.419 302.511C946.718 304.936 949.352 312.243 945.172 319.035C940.333 326.905 935.357 334.696 930.265 342.796C925.162 337.015 920.804 332.08 915.99 326.625C918.652 317.54 921.629 307.382 924.586 297.283Z" fill="#B03025"/>
<path d="M827.318 1256C511.438 1299.93 413.791 1217.06 413.791 1217.06C430.768 1311.27 627.501 1329.46 820.419 1300.22C1223.66 1239.11 1168.03 1096.55 1168.03 1096.55C1168.03 1096.55 1112.21 1216.38 827.318 1256Z" fill="#38312B"/>
<path d="M1023.69 41.5635C1013.62 -2.32127 834.959 -13.4167 618.366 17.7294C401.09 48.9698 234.258 108.966 238.098 153.952L242.688 185.906C242.688 185.906 547.782 263.576 649.348 247.553C753.388 231.141 1026.23 59.2576 1026.23 59.2576" fill="#38312B"/>
<path d="M1001.39 44.4778C1001.39 44.4778 854.305 11.4643 643.802 41.7339C359.436 82.6276 257.088 152.382 257.088 152.382C257.088 152.382 308.611 197.393 641.227 148.685C899.178 110.92 1001.39 44.4778 1001.39 44.4778Z" fill="#67452B"/>
<path d="M413.881 1215.5C413.881 1215.5 510.066 1300.65 825.951 1256.81C1110.84 1217.27 1168.78 1095.4 1168.78 1095.4L1025.97 57.3059C1025.97 57.3059 935.143 133.872 654.404 176.939C388.667 217.696 242.242 182.366 242.242 182.366L413.881 1215.5Z" fill="#006561"/>
<path d="M968.022 217.108L1082.94 980.365C765.234 1173.35 471.673 1073.96 471.673 1073.96L350 320.356C350 320.356 648.389 322.285 968.022 217.108Z" fill="#B58C51"/>
<path d="M942.915 260.53C942.915 260.53 1048.17 952.382 1048.17 956.242C773.924 1108.7 496.78 1043.09 496.78 1043.09L383.798 357.988C383.798 357.988 664.123 355.525 942.915 260.53Z" fill="black"/>
<path d="M548.121 604.591L506.564 610.423L517.205 595.158L532.985 707.294L503.806 711.388L488.023 599.253L502.629 610.974L460.99 616.819L457.878 594.718L545.011 582.49L548.121 604.591ZM622.989 696.747C615.338 697.823 607.909 697.5 600.704 695.786C593.542 694.008 586.994 690.837 581.06 686.274C575.123 681.709 570.106 675.763 566.01 668.436C561.961 661.048 559.223 652.279 557.794 642.129C556.365 631.979 556.582 622.823 558.441 614.662C560.303 606.498 563.433 599.438 567.831 593.477C572.286 587.511 577.713 582.714 584.111 579.09C590.567 575.458 597.673 573.098 605.433 572.007C613.191 570.919 620.648 571.237 627.8 572.958C635.007 574.675 641.576 577.788 647.505 582.297C653.431 586.806 658.39 592.732 662.376 600.074C666.418 607.409 669.153 616.15 670.582 626.3C672.011 636.45 671.771 645.636 669.864 653.861C668.002 662.024 664.821 669.12 660.321 675.15C655.874 681.17 650.429 686.025 643.983 689.712C637.582 693.337 630.584 695.681 622.989 696.747ZM619.752 673.749C624.341 673.105 628.485 671.272 632.183 668.248C635.876 665.17 638.571 660.562 640.269 654.425C642.024 648.281 642.21 640.298 640.827 630.476C639.436 620.601 637.058 613.004 633.691 607.689C630.316 602.32 626.44 598.719 622.057 596.885C617.668 594.998 613.206 594.372 608.67 595.008C604.134 595.644 599.991 597.478 596.236 600.509C592.531 603.477 589.798 608.007 588.036 614.098C586.322 620.125 586.159 628.078 587.549 637.953C588.937 647.831 591.298 655.483 594.624 660.916C597.999 666.284 601.885 669.939 606.281 671.882C610.726 673.764 615.216 674.385 619.752 673.749ZM702.049 683.566L667.844 565.253L697.925 561.031L725.808 674.807L721.675 675.137L724.155 557.351L760.222 552.29L795.035 664.84L790.972 665.661L786.368 548.62L816.451 544.398L816.23 667.543L771.474 673.822L743.453 574.507L746.405 574.093L746.884 677.274L702.049 683.566ZM876.511 659.082L847.987 663.085L830.996 542.356L875.997 536.041L928.618 642.088L923.453 643.98L907.637 531.601L936.078 527.61L953.07 648.337L907.741 654.7L855.176 549.062L860.754 547.112L876.511 659.082Z" fill="white"/>
<path d="M538.166 418.466C546.909 417.24 554.211 417.466 560.076 419.147C565.942 420.828 570.47 423.7 573.659 427.759C576.903 431.81 578.933 436.729 579.748 442.512C580.571 448.351 580.128 453.532 578.424 458.056C576.715 462.524 574.275 466.179 571.107 469.015C567.987 471.789 564.643 473.567 561.075 474.345C564.752 473.941 568.715 474.386 572.966 475.683C577.214 476.978 581.022 479.475 584.384 483.178C587.748 486.878 589.913 492.168 590.881 499.043C591.78 505.426 591.314 511.418 589.482 517.018C587.644 522.562 583.963 527.308 578.447 531.252C572.974 535.136 565.183 537.788 555.074 539.208L504.83 546.26L487.837 425.531L538.166 418.466ZM523.539 477.278L512.842 470.765L536.696 467.418C542.378 466.619 546.356 464.783 548.626 461.904C550.948 459.017 551.832 455.584 551.269 451.601C550.895 448.926 550.006 446.769 548.605 445.129C547.258 443.483 545.345 442.359 542.865 441.762C540.384 441.164 537.34 441.118 533.734 441.624L505.619 445.571L516.914 430.213L523.539 477.278ZM546.216 517.832C551.789 517.049 555.757 515.156 558.12 512.153C560.484 509.152 561.375 505.576 560.792 501.428C560.484 499.246 559.822 497.308 558.803 495.614C557.838 493.915 556.526 492.512 554.868 491.41C553.261 490.299 551.343 489.539 549.112 489.129C546.881 488.72 544.4 488.704 541.667 489.088L515.931 492.7L524.415 483.498L531.477 533.671L516.38 522.018L546.216 517.832ZM607.563 431.263L618.858 415.907L625.689 464.445L618.002 457.341L662.02 451.166L665.129 473.265L621.112 479.442L626.552 470.581L633.431 519.447L618.333 507.794L678.088 499.409L681.198 521.507L605.214 532.171L588.222 411.441L664.205 400.778L667.315 422.878L607.563 431.263ZM685.777 520.866L697.872 395.971L744.266 389.46L790.285 506.199L760.285 510.408L723.544 410.312L723.707 410.289L715.695 516.667L685.777 520.866ZM705.136 490.937L701.99 468.593L760.515 460.378L763.66 482.725L705.136 490.937ZM825.381 501.273L796.858 505.276L779.866 384.547L824.866 378.232L877.49 484.277L872.322 486.171L856.506 373.792L884.947 369.799L901.94 490.528L856.611 496.888L804.046 391.253L809.623 389.3L825.381 501.273Z" fill="white"/>
<path d="M560.881 737.805C570.371 736.472 578.22 736.739 584.429 738.603C590.639 740.468 595.414 743.553 598.761 747.856C602.097 752.103 604.18 757.166 605.008 763.046C605.851 769.041 605.41 774.399 603.686 779.125C601.952 783.791 599.486 787.601 596.288 790.554C593.145 793.496 589.826 795.388 586.332 796.23C589.892 795.846 593.832 796.312 598.157 797.626C602.538 798.931 606.455 801.497 609.908 805.32C613.418 809.135 615.677 814.61 616.68 821.746C617.597 828.254 617.129 834.46 615.28 840.368C613.42 846.217 609.585 851.265 603.77 855.515C598.004 859.701 589.633 862.565 578.658 864.106L523.348 871.868L505.573 745.567L560.881 737.805ZM546.672 799L534.075 791.513L558.772 788.046C563.917 787.324 567.411 785.64 569.253 782.995C571.145 780.284 571.853 777.245 571.379 773.878C571.051 771.538 570.284 769.608 569.079 768.09C567.931 766.561 566.24 765.518 564.003 764.959C561.76 764.343 558.922 764.275 555.492 764.755L526.508 768.825L539.923 751.05L546.672 799ZM568.257 839.282C573.401 838.56 576.944 836.81 578.885 834.035C580.876 831.194 581.625 828.033 581.136 824.552C580.894 822.837 580.375 821.222 579.578 819.704C578.783 818.186 577.695 816.884 576.318 815.798C574.998 814.702 573.343 813.916 571.351 813.438C569.418 812.952 567.164 812.891 564.592 813.252L537.666 817.029L547.709 806.365L554.842 857.056L537.042 843.661L568.257 839.282ZM626.04 857.456L637.677 727.027L692.643 719.313L739.661 841.51L704.247 846.479L668.023 743.812L668.193 743.787L661.457 852.486L626.04 857.456ZM648.03 827.301L644.38 801.355L706.806 792.593L710.456 818.539L648.03 827.301ZM798.654 835.5C789.279 836.817 780.665 836.512 772.816 834.587C764.959 832.603 758.439 828.949 753.259 823.623C748.137 818.288 744.956 811.225 743.718 802.433C743.614 801.691 743.509 800.948 743.405 800.205C743.3 799.465 743.196 798.723 743.091 797.98L777.65 793.13C777.739 793.758 777.826 794.386 777.915 795.015C778.004 795.643 778.091 796.271 778.18 796.899C778.743 800.894 780.441 804.061 783.276 806.398C786.169 808.73 790.16 809.536 795.249 808.822C800.164 808.133 803.923 806.879 806.524 805.058C809.172 803.173 810.265 800.574 809.799 797.263C809.453 794.809 807.79 792.713 804.805 790.979C801.878 789.236 798.022 787.738 793.242 786.49C788.517 785.231 783.291 784.13 777.561 783.189C771.351 782.138 765.333 780.394 759.511 777.95C753.745 775.5 748.817 771.971 744.729 767.362C740.634 762.698 738.051 756.571 736.982 748.977C735.881 741.157 737.114 734.173 740.68 728.026C744.238 721.823 749.466 716.724 756.366 712.729C763.321 708.723 771.288 706.094 780.263 704.832C789.582 703.525 798.104 703.815 805.831 705.699C813.614 707.574 820.048 711.038 825.131 716.088C830.215 721.137 833.342 727.83 834.516 736.165C834.621 736.905 834.72 737.619 834.817 738.303C834.914 738.99 835.013 739.702 835.117 740.445L800.562 745.295C800.521 745.01 800.46 744.583 800.381 744.01C800.292 743.382 800.228 742.927 800.187 742.64C799.665 738.929 798.165 735.938 795.689 733.667C793.27 731.386 789.516 730.603 784.427 731.317C779.397 732.024 775.638 733.481 773.152 735.694C770.722 737.899 769.752 740.742 770.241 744.224C770.587 746.678 772.037 748.687 774.589 750.249C777.13 751.754 780.518 753.026 784.743 754.064C789.027 755.094 793.84 756.164 799.186 757.276C807.224 758.883 814.36 760.91 820.59 763.354C826.815 765.74 831.87 769.135 835.754 773.537C839.694 777.932 842.2 783.926 843.267 791.518C844.385 799.452 843.188 806.49 839.681 812.629C836.164 818.71 830.834 823.71 823.69 827.621C816.604 831.528 808.258 834.155 798.654 835.5ZM953.855 682.655L971.632 808.957L936.987 813.817L928.768 755.419L945.57 761.706L875.681 771.513L890.168 761.36L898.315 819.244L863.67 824.106L845.896 697.805L880.538 692.943L888.805 751.683L872.055 745.74L941.941 735.933L927.467 746.172L919.212 687.515L953.855 682.655Z" fill="#00919E"/>
<mask id="mask0_89_51" style="mask-type:luminance" maskUnits="userSpaceOnUse" x="383" y="260" width="666" height="798">
<path d="M942.915 260.53C942.915 260.53 1048.17 952.382 1048.17 956.242C773.924 1108.7 496.78 1043.09 496.78 1043.09L383.798 357.988C383.798 357.988 664.123 355.525 942.915 260.53Z" fill="white"/>
</mask>
<g mask="url(#mask0_89_51)">
<path d="M847.735 851.67C847.23 851.721 846.702 851.805 846.188 851.884C847.542 859.264 848.887 866.654 850.222 874.067C847.894 875.323 845.568 876.562 843.143 877.877C842.756 876.844 842.708 875.843 842.502 874.867C842.293 873.857 842.128 872.842 841.93 871.792C841.418 871.866 840.932 871.932 840.402 872.001C840.746 873.918 841.101 875.832 841.442 877.668C840.95 878.07 840.515 878.422 840.064 878.781C839.822 878.974 839.605 879.159 839.358 879.342C838.8 879.749 838.468 880.254 838.239 880.877C837.869 881.917 837.627 882.995 836.99 883.972C836.802 884.267 836.946 884.551 837.139 884.851C837.656 885.683 838.101 886.567 838.562 887.429C838.801 887.889 838.727 888.28 838.557 888.725C838.007 890.221 837.574 891.729 836.94 893.186C836.696 893.768 836.677 894.278 836.776 894.825C842.03 923.162 847.071 951.519 851.913 979.894C851.961 980.25 852.021 980.617 852.092 981.001C851.04 981.245 850.027 981.307 848.898 981.18C848.852 980.918 848.805 980.611 848.749 980.296C846.23 965.673 843.665 951.066 841.039 936.45C841.024 936.417 841.012 936.381 841.009 936.351C841.052 935.471 840.487 935.093 839.517 935.05C839.282 933.801 839.055 932.539 838.82 931.26C838.089 931.356 837.399 931.455 836.612 931.577C836.523 931.112 836.43 930.698 836.348 930.276C836.269 929.851 836.188 929.412 836.114 928.98C836.025 928.557 835.962 928.121 835.885 927.663C835.129 927.77 834.439 927.867 833.662 927.981C833.425 926.59 833.087 925.289 832.239 924.112C831.378 922.921 830.15 922.079 828.787 921.474C827.455 920.884 825.912 920.651 824.33 920.61C824.238 920.152 824.153 919.685 824.056 919.194C823.57 919.265 823.127 919.331 822.569 919.408C822.414 918.83 822.331 918.253 822.206 917.699C822.101 917.134 821.992 916.561 821.878 915.951C821.305 916.037 820.788 916.12 820.142 916.214C820.361 917.31 820.581 918.437 820.808 919.596C820.444 919.67 820.162 919.736 819.808 919.81C819.892 920.27 819.985 920.765 820.077 921.236C818.2 921.627 816.796 922.552 815.764 923.814C814.913 924.854 814.49 926.091 814.307 927.365C814.238 927.864 814.411 928.368 814.307 928.816C814.195 929.34 814.338 929.796 814.386 930.356C813.339 930.521 812.28 930.682 811.193 930.857C811.485 932.332 811.761 933.726 812.018 935.109C811.547 935.643 811.106 936.153 810.556 936.768C810.724 937.638 810.931 938.677 811.148 939.778C810.725 939.842 810.33 939.908 809.894 939.982C809.971 940.379 810.037 940.682 810.088 941C811.912 950.25 813.696 959.488 815.461 968.742C816.462 971.545 816.758 974.471 817.346 977.355C817.939 980.27 818.467 983.196 819.012 986.108C819.073 986.459 819.139 986.811 819.251 987.414C818.433 986.422 817.765 985.628 816.978 984.697C816.794 985.607 816.645 986.327 816.505 987.051C816.334 987.891 816.333 987.888 815.5 988.025C815.419 988.033 815.345 988.048 815.187 988.075C813.312 978.227 811.417 968.4 809.496 958.53C808.572 958.669 807.725 958.807 806.79 958.957C806.536 957.642 806.292 956.377 806.024 955.062C805.094 955.212 804.258 955.347 803.328 955.5C803.247 955.07 803.204 954.676 803.069 954.307C802.805 953.621 803.085 952.991 803.338 952.375C803.679 951.523 804.106 950.692 804.547 949.728C802.619 950.038 800.826 950.324 799.035 950.622C798.37 950.734 797.694 950.751 797.065 950.96C794.661 951.758 792.102 951.925 789.609 952.385C787.087 952.861 784.498 953.095 782.038 953.736C779.552 954.385 776.984 954.658 774.447 955.261C774.974 957.718 775.504 960.189 776.049 962.732C775.348 962.752 774.706 962.837 774.059 962.802C773.274 962.74 772.467 962.739 771.721 962.871C764.037 964.183 756.397 965.599 748.675 967.053C748.978 968.404 749.284 969.736 749.595 971.117C747.631 971.496 745.747 971.853 743.77 972.229C743.857 972.57 743.92 972.885 744.004 973.193C745.153 978.234 746.305 983.272 747.446 988.318C747.594 988.931 747.58 988.922 746.854 989.336C746.533 989.504 746.278 989.846 745.934 989.927C745.124 990.121 744.638 990.746 743.919 991.11C743.306 991.405 742.659 991.856 742.213 992.451C741.836 992.944 741.375 993.411 740.95 993.891C741.11 994.596 741.267 995.26 741.432 995.973C740.806 996.087 740.218 996.198 739.597 996.315C739.974 997.956 740.336 999.552 740.721 1001.21C739.506 1001.44 738.344 1001.68 737.129 1001.92C734.244 989.474 731.299 977.031 728.33 964.605C727.703 964.566 727.135 964.485 726.544 964.61C725.966 964.734 725.354 964.767 724.778 964.739C723.444 964.688 722.133 965.033 720.794 964.898C720.305 964.857 719.786 965.007 719.262 965.027C718.729 965.047 718.168 964.968 717.62 965.062C717.075 965.158 716.511 965.204 715.974 965.181C714.54 965.102 713.247 965.56 711.895 965.817C710.043 966.158 708.193 966.57 706.293 966.964C706.492 967.73 706.684 968.46 706.875 969.264C706.616 969.346 706.375 969.484 706.179 969.438C705.519 969.321 704.928 969.545 704.299 969.632C703.471 969.749 702.627 969.805 701.812 969.935C700.989 970.077 700.191 970.424 699.394 970.417C698.429 970.394 697.567 970.636 696.658 970.809C695.441 971.043 694.347 971.691 693.077 971.803C692.402 972.286 691.525 972.391 690.853 972.91C690.328 973.33 690.118 973.671 690.296 974.276C690.887 976.425 691.419 978.596 691.987 980.773C692.028 980.911 692.066 981.053 692.102 981.186C691.404 981.455 690.76 981.701 690.072 981.98C692.061 989.638 694.05 997.323 696.041 1005.12C695.405 1005.3 694.77 1005.41 694.156 1005.56C693.529 1005.69 692.9 1005.87 692.266 1005.95C691.907 1006 691.533 1005.89 691.151 1005.86C690.606 1005.79 690.045 1005.71 689.485 1005.69C689.057 1005.68 688.838 1005.56 688.754 1005.18C688.644 1004.71 688.523 1004.26 688.386 1003.73C687.362 1003.79 686.343 1003.76 685.307 1003.87C684.779 1003.93 684.225 1003.93 683.7 1004.04C683.203 1004.14 682.712 1003.95 682.183 1004.15C681.671 1004.34 681.094 1004.4 680.536 1004.53C680.04 1004.64 679.519 1004.77 678.994 1004.88C677.963 1005.08 677.063 1005.53 676.268 1006.18C676.003 1006.38 675.754 1006.77 675.283 1006.47C674.173 1006.59 673.061 1006.56 671.94 1006.69C670.423 1006.85 668.96 1007.18 667.503 1007.54C667.014 1007.66 666.582 1007.88 666.116 1008.08C665.662 1008.27 665.143 1008.2 664.703 1008.58C664.346 1008.9 663.732 1008.94 663.225 1009.18C662.24 1009.63 661.309 1010.13 660.39 1010.69C660.143 1010.86 659.957 1010.88 659.654 1010.83C657.782 1010.49 655.909 1010.12 654.063 1009.68C653.159 1009.45 652.249 1009.32 651.327 1009.13C650.443 1008.96 649.546 1008.82 648.7 1008.6C648.369 1008.51 647.967 1008.24 647.85 1007.96C647.445 1006.99 646.739 1006.17 646.273 1005.24C646.044 1004.78 645.656 1004.41 645.358 1003.99C644.841 1004.12 644.364 1004.23 643.786 1004.36C643.6 1003.84 643.466 1003.28 643.313 1002.73C643.14 1002.17 642.984 1001.61 642.816 1001.01C642.194 1001.16 641.61 1001.31 640.94 1001.47C639.112 995.108 637.291 988.783 635.429 982.422C632.846 983.063 630.358 983.674 627.783 984.32C627.508 983.401 627.242 982.501 626.967 981.578C619.375 983.475 611.872 985.404 604.354 987.359C604.504 987.822 604.629 988.259 604.782 988.77C603.585 989.429 602.415 990.081 601.205 990.732C604.03 999.781 606.801 1008.78 609.567 1017.83C607.942 1018.25 606.342 1018.68 604.727 1019.1C604.954 1019.87 605.191 1020.61 605.438 1021.4C604.249 1021.71 603.106 1022.02 601.917 1022.34C602.711 1024.89 603.479 1027.37 604.289 1029.97C603.602 1029.8 603.01 1029.67 602.419 1029.53C600.44 1029.06 598.437 1028.59 596.44 1028.13C596.086 1028.05 595.684 1027.98 595.34 1028.04C593.7 1028.28 592.01 1028.14 590.426 1028.67C589.152 1028.59 588.01 1029.09 586.869 1029.46C584.709 1030.18 582.657 1031.12 580.805 1032.38C579.394 1033.33 578.247 1034.51 577.129 1035.71C576.793 1036.06 576.63 1036.55 576.378 1037C575.398 1037.05 574.51 1036.8 573.593 1036.66C573.521 1036.65 573.455 1036.59 573.384 1036.58C571.851 1036.29 570.314 1036.04 568.768 1035.78C568.358 1035.71 567.962 1036.01 567.544 1035.81C566.357 1036.14 565.107 1036.18 563.903 1036.34C561.819 1036.62 559.905 1037.37 557.938 1037.94C557.129 1038.17 556.352 1038.61 555.576 1038.99C554.804 1039.37 554.061 1039.79 553.307 1040.19C552.385 1040.66 551.527 1041.25 550.636 1041.74C549.864 1042.18 549.438 1042.95 549.099 1043.75C544.469 1043.5 540.336 1044.74 536.753 1047.43C536.167 1047.22 535.585 1047.04 535.012 1046.82C534.352 1046.56 533.659 1046.71 533.022 1046.78C531.894 1046.9 530.75 1046.77 529.644 1047.06C529.323 1046.83 529.039 1047.11 528.744 1047.14C528.443 1047.17 528.144 1047.14 527.854 1047.19C527.013 1047.37 526.182 1047.52 525.356 1047.74C524.506 1047.96 523.675 1048.25 522.844 1048.51C522.722 1048.56 522.606 1048.58 522.491 1048.62C530.975 1072.29 539.302 1095.98 547.472 1119.71C705.668 1070.3 873.122 1040.28 1045.61 1032.16C1044.2 1008.86 1042.65 985.624 1040.97 962.325C1040.27 962.618 1040.13 963.29 1039.63 963.766C1038.18 962.664 1036.66 962.704 1035.07 963.368C1034.52 963.595 1033.94 963.775 1033.43 964.098C1033.16 964.246 1032.96 964.237 1032.67 964.158C1031.94 963.949 1031.32 963.458 1030.49 963.448C1030.36 963.45 1030.16 963.152 1030.1 962.961C1030.02 962.732 1030.05 962.458 1030.03 962.201C1029.54 955.919 1029.04 949.654 1028.53 943.375C1028.51 943.014 1028.47 942.654 1028.44 942.257C1025.25 942.435 1022.14 942.601 1018.96 942.794C1018.87 941.708 1018.79 940.655 1018.7 939.615C1017.63 939.513 1011.99 939.806 1009.15 940.117C1009.21 940.788 1009.28 941.472 1009.36 942.257C1008.4 942.324 1007.43 942.222 1006.61 942.476C1005.82 942.72 1004.99 942.934 1004.2 943.191C1003.4 943.448 1002.54 943.591 1001.7 943.897C1002.31 950.338 1002.9 956.779 1003.5 963.239C1003.16 963.366 1003.09 963.049 1002.9 962.986C1002.69 962.907 1002.45 962.837 1002.29 962.717C1001.7 962.265 1000.93 962.452 1000.29 962.211C999.442 962.513 998.49 962.647 997.83 963.303C997.535 963.586 997.262 963.905 996.989 964.203C995.662 963.948 994.427 963.539 993.065 963.562C992.711 963.567 992.318 963.407 991.906 963.443C990.887 963.529 989.83 963.51 988.826 963.706C988.383 963.813 987.922 963.889 987.474 964.004C986.997 964.126 986.561 964.335 986.11 964.52C985.693 964.696 985.297 964.889 984.887 965.062C984.854 965.039 984.808 965.028 984.787 965.002C984.762 964.969 984.73 964.949 984.723 964.913C983.788 955.742 982.845 946.566 981.877 937.355C961.029 938.924 940.29 940.786 919.554 942.958C919.47 942.518 919.396 942.104 919.305 941.652C911.634 942.463 903.99 943.302 896.278 944.195C897.827 954.513 899.34 964.859 900.835 975.235C899.742 975.171 898.757 975.079 897.746 975.135C897.173 975.169 896.561 975.015 895.985 975.161C894.238 975.586 892.449 975.924 891.046 977.058C890.814 977.231 890.555 977.386 890.255 977.595C890.074 976.389 889.896 975.168 889.707 973.929C889.28 973.972 888.925 974.017 888.469 974.068C888.298 972.954 888.103 971.888 887.996 970.805C887.961 970.433 887.778 970.072 887.553 969.866C886.443 968.866 885.689 967.6 884.604 966.578C884.387 966.387 884.188 966.161 884.216 965.833C884.236 965.66 884.179 965.479 884.141 965.296C879.944 938.048 875.551 910.804 870.944 883.526C870.366 883.493 869.789 883.634 869.213 883.685C868.622 883.756 868.041 883.839 867.333 883.923C867.419 882.87 867.771 881.951 868.188 880.977C867.692 881.038 867.206 881.098 866.686 881.161C866.526 880.261 866.378 879.448 866.243 878.668C866.893 877.706 867.527 876.751 868.173 875.767C864.926 875.347 861.756 874.942 858.473 874.55C858.244 873.22 857.987 871.795 857.732 870.333C857.182 870.412 856.723 870.465 856.175 870.541C856.417 871.879 856.652 873.225 856.892 874.629C855.937 874.762 855.178 874.353 854.345 874.277C853.509 874.218 852.695 874.027 851.753 873.879C850.436 866.509 849.097 859.088 847.735 851.67Z" fill="white"/>
</g>
</svg>
