<?xml version="1.0" encoding="utf-8"?>
<!-- Generator: Adobe Illustrator 16.0.0, SVG Export Plug-In . SVG Version: 6.00 Build 0)  -->
<!DOCTYPE svg PUBLIC "-//W3C//DTD SVG 1.1//EN" "http://www.w3.org/Graphics/SVG/1.1/DTD/svg11.dtd">
<svg version="1.1"
	 id="Logo" xmlns:inkscape="http://www.inkscape.org/namespaces/inkscape" xmlns:sodipodi="http://sodipodi.sourceforge.net/DTD/sodipodi-0.dtd" xmlns:svg="http://www.w3.org/2000/svg" inkscape:version="1.1.2 (b8e25be833, 2022-02-05)" sodipodi:docname="logo.svg"
	 xmlns="http://www.w3.org/2000/svg" xmlns:xlink="http://www.w3.org/1999/xlink" x="0px" y="0px" width="554px" height="516px"
	 viewBox="39 0 554 516" enable-background="new 39 0 554 516" xml:space="preserve">
<path id="path232" fill="#1A191C" d="M412.299,189.466l30.077,1.645c0,0-0.635,189.409-5.283,190.927
	c-118.173,38.346-191.011,26.208-191.011,26.208L191.43,223.145l32.854-7.564l-17.979-54.39c0,0,82.844-30.034,206.864-28.946
	C415.603,132.266,412.299,189.466,412.299,189.466z"/>
<g id="Explosion" inkscape:label="Flame" inkscape:groupmode="layer">
	<g id="layer6" inkscape:label="Red" inkscape:groupmode="layer">
		<path id="path2" fill="#B03025" d="M41.816,368.762c6.626-4.582,2.463-0.338,9.102-4.902c1.692-1.164,2.856-2.188,3.111-4.653
			c0.595-5.751,3.408-7.813,10.553-8.793c1.366-0.188,2.759-0.192,3.047-0.211c2.548-5.332,4.889-10.009,7.007-14.784
			c0.694-1.566,0.813-3.389,1.196-5.093c7.178-4.673,14.356-9.347,21.535-14.019c-2.096-0.147-3.937,0.28-5.608,1.069
			c-4.006,1.89-7.934,3.949-11.893,5.938c0.598-3.181,1.196-6.359,1.784-9.492c-2.521-1.057-5.952-1.76-8.368-3.717
			c-2.272-1.842-3.472-5.004-5.484-8.108c-10.673,1.33-10.438,2.534-21.9,3.962c-0.065-0.413,1.191-1.279,1.126-1.689
			c11.605-2.134,10.192-3.59,22.133-5.785c1.848-10.719,4.928-20.784,18.616-21.16c0.657-3.075,1.382-5.992,1.876-8.946
			c0.398-2.376-0.242-4.11-3.013-4.837c-4.506-1.184-8.508-3.107-10.835-7.7c-0.471-0.929-3.093-0.981-4.743-1.065
			c-8.053-0.408-16.111-0.69-24.183-1.442c9.047-5.794,19.319-6.825,29.581-8.214c0.285-5.294,2.576-9.192,6.684-12.076
			c0.81-0.569,1.752-1.359,2.015-2.233c2.828-9.386,10.526-12.965,18.806-15.628c3.306-1.064,5.377-2.33,6.647-5.977
			c1.226-3.522,4.203-6.433,6.626-9.923c-5.981-1.33-12.157-2.511-18.217-4.124c-3.398-0.904-6.745-2.261-9.858-3.9
			c-2.701-1.422-2.65-3.807,0.199-4.679c3.023-0.925,6.457-1.125,9.63-0.814c6.196,0.607,12.334,1.79,18.38,2.717
			c0.902-4.341,1.764-8.488,2.725-13.108c-17.838-6.841-37.42-10.824-54.628-20.812c0.083-0.346,0.165-0.692,0.247-1.038
			c4.601,0.915,9.238,1.684,13.794,2.784c4.566,1.102,9.115,2.354,13.556,3.876c4.567,1.566,9.044,3.428,13.47,5.369
			c4.274,1.873,8.432,4.013,12.915,6.168c0.632-6.66,1.969-12.426,7.04-17.103c1.231-1.135,0.288-6.468-1.349-8.514
			c-4.425-5.529-9.763-10.329-14.475-15.808c7.307,1.227,12.9,6.071,19.866,9.076c-0.598-3.174-1.129-5.992-1.661-8.819
			c-7.388-1.989-7.779-2.619-6.409-10.332c0.066-0.377,0.12-0.757,0.173-1.137c1.341-9.67,10.133-13.588,18.597-8.297
			c0.622,0.39,1.494,1.145,1.924,0.963c4.314-1.835,8.206,0.332,11.634,1.969c3.884,1.856,6.815,0.469,10.193-0.539
			c2.413-0.721,4.963-0.988,8.162-1.591c1.249-4.248,4.611-7.787,9.879-9.481c-0.453-3.503-5.216-5.682-2.863-10.286
			c4.671,3.361,6.064,10.063,13.042,10.799c1.028-4.122,2.078-8.238,3.058-12.373c0.13-0.55,0.076-1.283-0.189-1.769
			c-3.672-6.739-2.365-10.564,4.902-13.589c-5.114-6.009-3.344-12.41-0.704-18.615c0.663-1.556,2.745-3.152,4.434-3.51
			c5.569-1.181,12.64,2.499,14.979,7.617c0.834,1.826,1.515,2.287,3.602,2.184c2.026-0.1,4.117,1.104,6.474,1.825
			c1.134-0.98,2.524-2.468,4.179-3.555c3.938-2.587,8.114-3.549,12.46-0.895c2.429,1.483,4.454,1.566,6.795-0.544
			c1.618-1.46,3.988-2.083,6.004-3.071c-2.075-8.283,4.59-16.007,13.061-15.877c1.003-2.362,1.635-4.717,2.901-6.655
			c2.735-4.183,6.034-4.847,10.254-2.168c3.43,2.177,6.542,4.878,10.051,6.9c2.559,1.474,5.537,2.217,8.818,3.473
			c-0.154-1.516-0.303-2.679-0.383-3.845c-0.347-5.014,2.859-8.818,7.879-8.738c3.394,0.053,6.807,0.714,10.153,1.385
			c3.005,0.602,3.593,2.874,2.985,5.549c-0.336,1.481-1.04,2.899-1.216,4.389c-0.088,0.734,0.43,1.942,1.042,2.295
			c7.84,4.517,8.348,5.235,9.125,13.273c5.727,3.798,10.834,7.568,16.341,10.615c1.797,0.993,5.15,0.945,6.883-0.114
			c3.065-1.871,6.021-2.266,9.409-2.215c1.448,0.021,3.012-0.991,4.349-1.817c1.98-1.224,3.806-2.701,5.721-4.088
			c-0.049-0.123-0.07-0.436-0.229-0.537c-1.486-0.952-4.402-2.36-4.278-2.713c1.008-2.868,2.1-6.011,4.15-8.103
			c1.455-1.485,2.745-2.371,2.852-4.69c0.167-3.662,5.915-7.053,10.514-6.818c10.408,0.528,10.799,7.578,8.565,14.285
			c-0.353,1.063-0.877,2.07-1.318,3.096c4.785,4.605,5.348,6.17,3.419,9.509c-0.191,0.33-0.342,0.797-0.638,0.936
			c-4.691,2.208-4.183,6.496-4.594,10.619c-0.242,2.431-1.537,4.757-2.279,6.907c5.358,4.059,10.982,8.316,16.452,12.459
			c2.247-1.58,4.642-3.542,7.296-5.049c2.47-1.401,4.759-1.016,6.646,1.545c1.487,2.019,3.446,3.688,5.253,5.572
			c4.984-8.639,8.835-10.726,15.08-8.369c7.506,2.833,9.162,5.464,7.868,12.003c3.391-0.372,6.913-0.758,10.515-1.154
			c2.116-2.362,4.624-5.166,7.133-7.968c0.484,0.401,0.969,0.803,1.451,1.205c-2.218,3.021-4.435,6.04-6.639,9.041
			c6.082,4.029,14.143,5.534,17.036,13.018c5.414,3.417,9.093,0.734,12.289-3.282c1.42-1.784,3.01-3.573,3.864-5.633
			c1.173-2.823,3.136-3.639,5.893-3.932c1.72-0.184,3.441-0.871,5.032-1.615c1.602-0.75,3.021-1.878,4.552-2.788
			c2.615-1.555,5.406-2.389,5.858-6.511c0.41-3.741,4.467-5.067,8.384-4.108c1.165,0.285,2.637-0.103,3.812-0.574
			c2.039-0.82,3.958-1.947,5.927-2.945c0.245,0.27,0.49,0.539,0.736,0.808c-0.525,0.872-0.947,1.831-1.594,2.6
			c-2.018,2.398-4.054,4.357-3.324,8.289c0.575,3.09-2.641,4.647-5.575,5.115c-5.037,0.802-10.425,6.034-11.037,10.951
			c-0.7,5.627-4.432,8.823-10.021,8.585c-3.59-0.154-9.099,5.496-8.209,8.418c5.715-2.922,12.722-2.285,14.767,1.343
			c3.291,5.844,0.813,10.12-9.705,16.02c3.991,1.966,6.676,5.553,11.498,5.17c1.314-0.105,3.071,0.175,3.97,0.995
			c2.838,2.591,4.876,1.427,7.515-0.467c8.498-6.098,14.754-8.536,22.572-9.045c-2.79,3.783-5.024,7.186-7.646,10.26
			c-2.729,3.201-5.689,6.238-8.81,9.061c-3.087,2.794-6.496,5.231-9.889,7.923c9.093-0.179,15.297,4.996,21.104,10.584
			c3.328,3.201,3.086,7.527-0.619,10.331c-3.599,2.723-7.798,4.663-11.773,6.872c-1.136,0.631-2.413,1.006-3.625,1.498
			c0.018,0.371,0.033,0.742,0.051,1.113c0.969,0.237,1.928,0.52,2.906,0.705c7.101,1.343,10.372,4.994,11.056,12.064
			c0.122,1.258,0.794,2.567,1.525,3.641c1.777,2.621,3.927,5.003,5.568,7.7c1.511,2.484,0.691,4.239-2.447,4.19
			c-2.024-0.032-4.044-0.422-6.07-0.497c-1.008-0.037-2.029,0.272-3.044,0.424c-0.019,0.379-0.036,0.758-0.055,1.137
			c2.184,0.822,4.436,1.497,6.531,2.499c2.851,1.366,5.776,2.713,8.322,4.55c4.316,3.114,4.869,7.389,1.67,11.628
			c-1.364,1.809-3.238,3.222-4.788,4.901c-0.777,0.841-1.346,1.875-2.008,2.822c-3.016-0.146-4.022,1.667-2.031,3.506
			c1.961,1.813,4.982,2.479,7.537,3.648c1.511,0.885,3.075,1.693,4.521,2.672c3.918,2.65,4.469,5.922,1.706,9.735
			c-0.593,0.819-1.246,1.597-1.974,2.524c2.309,3.01,3.357,7.131,8.63,6.65c1.928-0.176,4.118,1.199,6.008,2.205
			c4.386,2.334,5.475,5.992,3.339,10.567c-0.538,1.149-1.303,2.204-1.758,3.382c-1.604,4.157-4.103,6.402-8.972,5.29
			c-1.193-0.272-3.208,0.675-4.068,1.709c-4.353,5.231-7.038,5.606-12.499,1.358c-0.716-0.557-1.621-0.873-2.1-1.127
			c-0.169,2.908-0.496,5.504-0.43,8.086c0.111,4.414-4.126,2.904-6.344,4.945c10.428,6.004,22.021,10.586,27.192,23.314
			c-12.479-1.689-23.092-7.085-33.667-13.252c2.637,5.34,3.49,10.197-2.172,14.355c1.934,1.195,3.523,2.137,5.073,3.144
			c5.675,3.688,6.149,5.997,2.35,11.233c6.331,5.707,3.514,19.223-4.869,23.357c-4.812,2.373-8.953,1.579-11.542-3.439
			c-2.054-3.982-2.71-8.685-4.157-13.647c-2.805-0.195-6.813-1.091-9.459,3.43c0.428,0.543,1.126,1.065,1.3,1.724
			c0.547,2.098,1.963,4.996,1.102,6.217c-1.694,2.404-4.607,4.029-7.222,5.645c-0.569,0.352-2.285-0.421-2.971-1.148
			c-1.373-1.459-2.808-3.094-3.481-4.928c-1.359-3.697-2.87-7.027-6.214-9.518c-1.444-1.076-1.957-3.402-2.906-5.182
			c-5.207,2.3-5.549,4.248-1.507,10.293c5.735,8.574,11.517,17.117,17.195,25.728c0.899,1.362,1.371,3.006,2.04,4.521
			c-0.353,0.249-0.706,0.499-1.059,0.75c-5.618-4.891-11.274-9.738-16.837-14.689c-2.48-2.207-4.729-4.671-7.179-6.913
			c-0.714-0.652-1.757-0.941-2.808-1.479c2.229,5.291,4.458,9.91,6.122,14.728c1.687,4.885,0.154,9.584-2.207,13.923
			c-0.462,0.849-2.013,1.628-3.01,1.569c-4.421-0.259-8.83-0.793-13.233-1.32c-1.466-0.175-2.899-0.621-4.664-1.014
			c4.453,7.986,3.52,10.554-6.429,17.966c1.034,0.958,2.003,1.864,2.982,2.758c5.433,4.951,6.637,10.853,2.232,16.616
			c-3.179,4.16-7.216,8.003-11.621,10.814c-7.041,4.491-14.041,0.022-15.974-9.972c-4.493,1.243-8.957,2.478-14.047,3.885
			c2.124,6.838,4.352,13.492,6.243,20.242c1.89,6.739,3.442,13.573,4.473,20.62c-5.235-3.282-8.749-7.854-11.016-12.994
			c-3.417-7.74-5.997-15.852-8.923-23.81c-0.348-0.946-0.395-2.099-0.978-2.845c-5.514-7.054-5.539-7.033-7.132-14.661
			c-7.717,0-15.447,0.021-23.179-0.009c-4.03-0.017-6.538-2.146-6.97-6.587c-0.594-6.12-0.933-12.299,3.966-17.269
			c0.59-0.599,0.483-1.884,0.857-3.545c-1.8,0.745-2.795,1.241-3.843,1.574c-3.547,1.129-4.635,2.926-3.881,7.021
			c0.712,3.871,0.267,8.394-3.146,10.659c1.72,11.018,3.392,21.725,5.062,32.432c-0.44,0.098-0.881,0.194-1.321,0.291
			c-4.701-7.256-7.495-15.361-10.001-23.57c-0.811-2.656-0.614-5.786-1.953-8.069c-1.365-2.327-4.052-3.879-6.16-5.771
			c-0.722,0.852-1.858,1.601-2.098,2.57c-1.321,5.342-3.912,9.388-10.029,10.543c1.123,1.749,2.459,3.198,3.032,4.904
			c0.567,1.689,1.186,4.296,0.343,5.343c-2.185,2.718-1.465,5.483-1.432,8.358c0.043,3.673,0.218,7.389-0.26,11.008
			c-0.451,3.415-0.61,6.139,1.604,9.419c6.084,9.012-3.42,19.832-10.399,20.75c-7.909,1.038-12.979-3.997-11.628-12.734
			c0.725-4.69-0.374-7.318-4.053-10.136c-3.258-2.497-5.768-6.085-8.222-9.472c-1.201-1.656-2.181-2.322-4.255-2.212
			c-2.608,0.14-5.249-0.346-8.084-0.579c0.145,13.276,3.367,26.962-2.321,40.128c-4.502-3.739-5.975-8.872-8.55-29.778
			c-4.187,1.922-8.207,4.021-12.409,5.644c-7.096,2.738-14.251,4.162-21.047-0.978c-4.547-3.438-5.758-5.737-5.789-11.187
			c-2.623-0.388-5.295-0.568-7.857-1.2c-6.477-1.599-9.308-5.417-8.391-12.025c0.566-4.081,2.047-8.035,3.301-12.738
			c-1.479,0.928-2.452,1.576-3.461,2.165c-5.798,3.371-10.971,2.256-14.26-3.689c-2.872-5.192-5.081-10.751-7.556-16.088
			c-0.293,0.665-0.757,1.743-1.24,2.813c-3.308,7.347-8.519,9.589-15.83,6.141c-3.172-1.496-4.54-0.903-6.329,1.857
			c-3.459,5.338-7.329,10.415-11.107,15.542c-0.676,0.918-1.732,1.557-3.022,2.064c2.222-8.873,7.617-16.092,12.444-23.561
			c-8.506-6.203-8.558-13.358,1.118-22.639c-3.573-4.784-7.159-9.587-10.761-14.41c-14.051,9.678-18.351,6.833-24.241,0.877
			c-12.962,16.342-23.01,35.367-42.108,46.021c10.666-18.749,23.39-36.031,36.941-52.746c-0.201-0.298-0.403-0.593-0.605-0.888
			c-2.689,0.356-5.396,0.611-8.064,1.09c-7.298,1.308-10.95-2.114-10.051-9.532c0.207-1.71,0.45-3.418,0.768-5.819
			c-5.133,2.426-9.597,4.543-14.067,6.645c-7.806,3.671-8.873,3.506-14.777-2.459c-0.56,5.306-3.245,9.41-7.601,11.639
			c-2.992,1.532-6.862,2.206-10.216,1.902c-2.786-0.254-5.482-2.342-8.055-3.889c-3.399-2.045-0.837-5.393-1.405-7.58
			c-3.692-1.834-7.063-3.703-10.609-5.14c-0.947-0.385-2.575,0.296-3.64,0.916c-6.366,3.709-3.849-2.481-10.193,1.263"/>
		<path id="path4" fill="#B03025" d="M136.93,435.205c1.12-9.282,4.46-15.569,11.843-18.992c1.413-0.656,3.925-0.541,5.15,0.324
			c2.708,1.911,6.932,2.277,7.332,6.902c0.491,5.671-1.392,10.34-5.447,14.079c-2.521,2.322-5.345,4.353-8.196,6.273
			c-2.732,1.841-5.733,1.359-7.481-1.191C138.424,440.114,137.662,436.979,136.93,435.205L136.93,435.205z"/>
		<path id="path6" fill="#B03025" d="M545.92,254.226c6.564,0.133,13.174,0.804,19.682,0.265c8.438-0.699,18.141,0.401,26.025,4.241
			c-9.718,4.901-19.896,5.105-30.225,3.789c-3.251-0.414-6.437-1.326-9.652-2.01C549.343,258.845,546.075,257.979,545.92,254.226
			L545.92,254.226z"/>
		<path id="path8" fill="#B03025" d="M546.706,419.035c-10.805,0.59-25.275-10.438-26.69-20.118
			C529.49,398.216,543.575,408.73,546.706,419.035z"/>
		<path id="path10" fill="#B03025" d="M407.231,86.057c3.658-9.515,7.381-18.946,19.094-23.072
			C422.613,73.612,416.314,80.965,407.231,86.057z"/>
		<path id="path12" fill="#B03025" d="M315.896,2.421c3.764,8.628,7.575,16.566,2.158,25.384
			C312.116,21.114,311.172,10.93,315.896,2.421z"/>
		<path id="path14" fill="#B03025" d="M355.181,63.708c-5.652-8.532-8.356-17.769-6.857-28.532
			C353.895,41.696,355.444,47.731,355.181,63.708z"/>
	</g>
	<g id="layer5" inkscape:label="Orange" inkscape:groupmode="layer">
		<path id="path7680" fill="#CA8341" d="M290.564,62.707c-2.561,5.971-2.624,11.074-1.367,16.26c1.22,5.024,2.518,10.03,3.68,14.645
			c-2.231,0.884-4.253,1.686-6.689,2.65c-5.011-8.756-16.982-12.562-17.592-25.104c-1.84,3.429-3.196,6.578-3.875,9.869
			c-1.676,8.142-0.802,16.837-5.377,24.348c-0.117,0.194-0.023,0.507-0.063,0.758c-0.7,4.465-1.406,8.925-1.973,12.521
			c-2.355,0.893-4.337,1.746-6.389,2.377c-0.886,0.272-1.936,0.238-2.869,0.084c-8.739-1.444-14.524,2.441-16.43,10.91
			c-3.318,0-6.931-0.872-9.754,0.248c-2.748,1.091-5.604,3.847-6.713,6.564c-1.019,2.504,0.222,5.93,0.531,9.744
			c-4.303-4.569-8.438-9.382-13.027-13.713c-4.723-4.46-9.89-8.451-14.863-12.646c-0.48,0.522-0.959,1.044-1.439,1.566
			c5.58,12.459,18.624,17.679,27.227,25.762c-2.196,2.074-3.942,3.84-5.824,5.451c-0.899,0.769-2.321,1.978-3.045,1.715
			c-2.457-0.891-5.334-1.834-6.895-3.715c-2.252-2.715-4.447-2.467-7.078-1.545c-1.047,0.368-1.997,1.02-2.785,1.434
			c-7.846-5.334-15.483-10.526-24.031-16.336c0.735,2.807,1.162,4.434,1.629,6.215c-2.181-0.978-4.084-1.832-5.986-2.686
			c2.242,2.481,4.597,4.872,6.674,7.484c0.862,1.085,1.167,2.614,1.707,3.957c-4.339-3.548-8.679-7.094-13.018-10.643
			c1.048,2.686,1.531,5.821,3.248,7.973c5.076,6.359,10.339,12.635,16.117,18.348c3.794,3.752,7.054,7.468,7.914,12.93
			c-2.502,2.505-10.05,3.397-13.713,1.092c-2.945-1.853-5.383-1.546-7.486,0.842c-1.519,1.723-2.732,1.672-4.576,0.625
			c-4.881-2.773-9.859-5.378-14.818-8.014c-2.014-1.071-4.077-2.053-6.83-3.432c2.368,6.828,6.706,10.724,11.629,14
			c4.264,2.839,9.243,4.996,8.178,11.553c-0.054,0.335,0.153,0.764,0.35,1.08c1.662,2.654,1.395,5.18-0.533,7.732
			c-3.255-1.889-6.035-5.034-10.596-2c-5.441,3.619-4.293,8.587-3.805,13.375c-9.637,2.39-12.16,10.417-14.615,17.967
			c-2.564-0.434-4.73-0.501-6.68-1.186c-7.024-2.466-11.816-0.037-13.463,7.047c2.071,0.34,4.143,0.682,6.217,1.025
			c0.037,0.347,0.072,0.694,0.109,1.043c-2.445,0.584-4.89,1.17-7.336,1.754c0.546,4.053,1.611,4.784,5.838,4.369
			c1.082-0.105,2.677-0.085,3.248,0.566c2.985,3.412,5.068,7.275,4.42,11.725c-7.056,2.525-13.958,4.996-21.795,7.805
			c8.494,5.35,16.234,3.837,23.443,2.205c0.528,2.564,1.042,4.684,1.365,6.834c0.111,0.736,0,1.764-0.445,2.291
			c-5.504,6.541-5.861,9.2-2.008,16.314l21.008-8.648c0.217,0.465,0.435,0.929,0.65,1.395L121.898,301.1h8.611
			c0.868,1.633,1.921,3.617,3.041,5.725c-4.537,3.343-9.015,6.464-13.283,9.85c-2.913,2.311-5.533,4.99-8.283,7.506l0.031,0.037
			c5.367-2.221,10.733-4.438,16.078-6.648c-0.523,2.637-1.216,5.182-1.494,7.77c-0.36,3.346,1.154,7.281-3.43,9.051
			c-0.445,0.172-0.475,1.238-0.926,1.615c-0.926,0.771-1.946,1.5-3.043,1.977c-0.901,0.393-2.375,0.048-2.885,0.641
			c-1.357,1.581-3.083,3.417-3.271,5.291c-0.251,2.502,1.845,3.381,4.461,3.365c4.932-0.029,9.867,0.328,14.801,0.525
			c-0.177,0.342-0.354,0.685-0.529,1.027c1.308,1.499,2.377,3.729,4.002,4.264c1.298,0.426,3.273-1.211,5.701-2.254
			c4.365,2.816,10.302,5.471,15.955,2.084c5.012-3.003,8.96-7.785,13.5-11.891c1.234,1.705,2.624,4.196,4.559,6.15
			c1.986,2.004,2.536,4.125,2.605,6.82c0.065,2.503,0.81,5.004,1.389,7.475c1.628,6.938,7.373,13.556,16.23,12.645
			c3.897-0.4,7.812-0.617,11.473-0.898c0.938,3.622,1.928,7.436,2.938,11.334c-4.75,1.938-4.794,1.931-5.58,6.979
			c-0.333,2.127-0.316,3.99-2.498,5.68c-1.184,0.916-0.815,4.235-0.518,6.385c0.074,0.532,2.991,1.447,3.924,0.941
			c3.179-1.727,6.392-3.677,8.926-6.207c1.524-1.522,2.454-2.174,4.43-1.381c4.111,1.649,6.363-0.596,8.045-4.002
			c2.088-4.227,2.167-8.494,0.402-13.012c1.178,0.756,1.894,1.676,2.625,2.584c4.778,5.938,9.528,6.325,15.414,1.357
			c2.115-1.787,4.371-3.41,6.563-5.105c4.382,5.85,4.906,5.904,10.748,1.768c1.95-1.381,4.004-2.617,5.551-3.621
			c0.582,4.164,0.445,8.517,1.914,12.232c1.51,3.818,4.589,7.019,7.096,10.654c-6.891,3.979-14.019,8.37-12.947,18.486
			c-4.652,2.131-6.834,5.708-6.428,10.74c0.414,5.138,2.809,6.778,7.75,5.209c3.369-1.069,6.419-2.341,10.219-0.623
			c1.747,0.791,4.685-0.429,6.832-1.334c1.816-0.767,3.308-2.346,4.879-3.645c11.578-9.585,18.508-21.514,18.713-36.898
			c0.017-1.257,0.888-2.504,1.361-3.754c0.849,1.041,1.958,1.963,2.504,3.145c2.485,5.384,4.811,10.844,7.193,16.275
			c0.453-0.181,0.905-0.362,1.359-0.543c-1.147-5.322-2.059-10.71-3.523-15.943c-1.036-3.699-1.172-7.041,0.174-10.723
			c0.721-1.973,0.421-4.497,0.018-6.666c-0.907-4.875-0.181-6.771,4.264-9.225c0.289,0.221,0.623,0.418,0.887,0.684
			c4.459,4.508,8.438,9.637,16.094,8.4c2.4-0.389,3.162,2.498,1.258,4.605c-2.881,3.189-3.722,6.805-2.811,10.959
			c0.612,2.782,2.363,3.982,5.002,3.471c8.306-1.611,15.855-4.559,19.783-12.875c1.848-3.912,3.43-7.949,5.232-12.162
			c0.469,0.668,0.726,1.098,1.045,1.479c4.37,5.225,8.607,10.629,16.582,9.932c0.738-0.064,2.145,0.873,2.227,1.48
			c0.127,0.949-0.396,2.186-1.025,3.004c-4.058,5.271-4.65,9.559-0.816,14.662c2.469,3.287,5.757,6.063,9.039,8.602
			c2.583,1.997,5.057,3.021,4.848,7.434c-0.303,6.413,2.31,7.905,8.742,6.775c0.125-0.022,0.258-0.035,0.371-0.088
			c3.226-1.534,4.398-0.029,5.301,3.021c1.461,4.945,3.612,5.766,8.352,3.643c1.854-0.831,3.643-1.856,5.342-2.977
			c7.314-4.823,7.658-7.321,3.094-12.461c0-3.977,0.995-7.291-0.209-9.26c-2.454-4.015-2.752-8.801-2.451-12.447
			c0.654-7.941-0.493-15.168-3.424-22.322c-1.116-2.729-0.217-3.943,1.563-4.158c2.27,3.65,3.729,7.328,6.344,9.764
			c1.932,1.798,5.359,2.682,8.139,2.723c4.906,0.072,9.902-0.439,14.715-1.418c3.537-0.717,3.815-3.441,0.973-5.838
			c-1.613-1.359-3.347-2.576-5.008-3.842c6.456-8.868,6.352-9.132-6.42-16.629c7.479-5.027,14.896-10.016,22.469-15.105
			c6.815,8.764,13.7,16.693,25.717,19.459c-2.658-3.148-4.736-5.508-6.699-7.961c-2.007-2.508-3.899-5.109-6.346-8.328
			c7.151,0,13.422-0.592,19.529,0.162c6.364,0.785,10.727-2.445,15.096-5.779c2.686-2.052,2.688-5.148,0.379-7.797
			c-1.161-1.329-2.723-2.301-3.959-3.574c-1.351-1.393-2.908-2.77-3.729-4.467c-3.156-6.531-11.931-11.282-18.238-10.043
			c-1.54-3.627-3.031-7.133-3.91-9.201c1.31-1.957,3.447-3.713,3.502-5.531c0.107-3.482,2.075-4.462,4.563-5.473
			c3.971,6.466,7.204,8.436,11.521,4.998c4.55-3.623,9.141-3.1,14.002-3.266c0.317-0.011,0.628-0.212,1.994-0.703
			c-4.835-1.344-8.753-2.434-13.283-3.693c1.624-0.564,2.593-0.861,3.527-1.234c4.162-1.66,4.566-3.664,1.197-6.664
			c-1.668-1.484-3.584-2.691-5.873-4.383c2.139-2.08,3.702-4.498,5.922-5.596c6.72-3.32,11.386-8.343,14.334-15.117l-0.789-6.412
			c0,0-5.771-5.521-9.182-7.227c-2.999-1.5-4.686-3.168-5.021-6.326c1.146-0.939,2.287-1.752,3.283-2.713
			c6.926-6.679,5.727-11.743-3.428-14.596c-6.146-1.917-10.4-14.298-8.662-20.592c-1.2-0.971-2.289-2.565-3.621-2.805
			c-5.586-1-11.284-1.381-16.859-2.426c-2.945-0.552-6.026-1.553-8.467-3.209c-1.643-1.115-2.269-3.728-3.473-5.891
			c3.162-3.533-2.408-4.478-2.84-7.801c1.377-0.493,2.957-0.823,4.27-1.602c1.253-0.744,3.244-2.066,3.15-2.947
			c-0.502-4.736,1.411-8.004,5.041-10.707c0.643-0.478,1.179-1.922,0.912-2.566c-0.275-0.662-1.673-1.349-2.441-1.217
			c-2.021,0.347-4.088,1.889-5.916,1.592c-4.026-0.653-5.282,2.025-7.105,4.459c-0.866,1.156-2.133,2.422-3.443,2.754
			c-3.182,0.805-6.492,1.092-9.289,1.518c-3.029-2.269-8.667-6.109-12.086-8.619c-0.048-0.649-0.146-1.308-0.008-1.916
			c1.468-6.5,1.048-7.133-4.119-11.221c-2.012-1.592-4.201-3.641-3.043-7.094c0.332-0.989-0.451-2.991-1.352-3.605
			c-1.359-0.926-3.271-1.041-5.379-1.619c0.518-2.422,0.589-5.059,1.65-7.207c1.79-3.627,1.104-5.92-2.662-7.232
			c-2.77-0.964-5.424-2.253-8.223-3.438c0.742-1.504,1.249-2.379,1.619-3.311c1.717-4.328-0.01-6.957-4.59-6.42
			c-1.804,0.211-3.467,1.705-5.172,2.656c-1.025,0.571-2.009,1.22-3.012,1.832c-4.691,2.862-12.247,1.849-12.666,8.373
			c-3.493,1.473-6.274,2.154-8.439,3.697c-2.197,1.566-3.849,2.064-5.74,0.332c1.936-15.063,3.844-29.894,5.752-44.725
			c-1.663,2.448-3.178,5.049-3.621,7.822c-1.749,10.899-3.172,21.851-4.689,32.787c-0.268,1.922,0.47,4.376-2.563,4.73
			c-2.939,0.342-6.691-3.417-6.631-6.377c0.082-4.036,0.332-8.109-0.092-12.105c-0.627-5.936-2.339-11.595-6.396-16.955
			c-3.498,8.639-3.163,16.864-1.475,24.922c-2.942,0-5.672-0.462-8.166,0.105c-4.032,0.919-1.283,4.238-2.236,6.715
			c-2.249-5.859-4.497-11.719-6.746-17.578c-0.457,0.136-0.914,0.271-1.371,0.406c-1.996,5.637-1.354,11.561-0.893,17.299
			c0.211,2.625-0.261,3.988-2.492,5.338c-1.739-11.075-2.036-22.541-10.199-31.592c-0.924,2.078-2.575,4.285-2.828,6.643
			c-0.714,6.658-0.839,13.379-1.24,20.072c-0.055,0.918-0.146,1.996-0.66,2.656c-0.248,0.316-2.041,0.089-2.254-0.334
			c-2.322-4.598-4.852-9.151-6.52-13.994c-1.018-2.952-1.7-5.3-5.334-5.213c-0.983,0.023-1.971-0.195-2.936-0.301
			C300.473,84.51,297.438,73.337,290.564,62.707L290.564,62.707z"/>
		<path id="path40" fill="#CA8341" d="M529.326,283.441c2.049-1.14,2.99-2.08,3.968-2.121c2.272-0.094,4.726,0.615,4.278,3.408
			c-0.206,1.285-2.546,3.326-3.55,3.129C532.57,287.576,531.45,285.576,529.326,283.441L529.326,283.441z"/>
		<path id="path42" fill="#CA8341" d="M472.874,139.089c-0.293-2.56-0.775-5.146,2.709-5.009c1.31,0.052,3.742,1.765,3.642,2.409
			C478.686,139.981,475.871,139.484,472.874,139.089z"/>
		<path id="path46" fill="#CA8341" d="M156.931,138.073c-1.394-0.338-2.788-0.675-4.182-1.013c-2.089-2.301-4.177-4.603-6.265-6.903
			l0.056-0.067C150.003,132.751,153.467,135.412,156.931,138.073z"/>
	</g>
	<g id="layer4" inkscape:label="Yellow" inkscape:groupmode="layer">
		<path id="path16" fill="#DFC25B" d="M79.866,323.314c3.96-1.99,7.886-4.049,11.893-5.939c1.671-0.789,3.512-1.216,5.607-1.07
			c-7.178,4.672-14.356,9.346-21.534,14.02c-2.291,0.527-4.582,1.057-6.874,1.585c-0.173-0.285-0.346-0.57-0.52-0.854
			C72.249,328.475,76.058,325.895,79.866,323.314z"/>
		<path id="path26" fill="#DFC25B" d="M414.178,391.027c-2.171-2.324-4.252-4.74-6.53-6.953
			c-6.112-5.936-12.397-11.698-18.435-17.709c-2.517-2.508-4.464-5.579-6.905-8.176c-1.26-1.34-3.093-2.123-4.55-3.305
			c-0.912-0.74-1.788-1.652-2.344-2.672c-0.565-1.035-0.718-2.296-1.262-4.191c-1.155,1.287-1.66,2.32-2.44,2.609
			c-1.166,0.432-3.474,0.784-3.656,0.396c-1.939-4.12-8.408-4.357-8.515-10.223c-0.019-1.106-2.95-2.162-5.292-3.75
			c-0.342,4.366-0.649,8.281-1.002,12.781c-2.486-1.506-4.593-2.779-7.71-4.666c0.722,8.557,1.366,16.178,2.009,23.799
			c-0.235,0.113-0.471,0.227-0.706,0.338c-1.721-2.871-3.409-5.761-5.172-8.605c-1.946-3.139-3.763-6.387-6.013-9.294
			c-1.498-1.935-3.666-3.351-5.517-5.017c-1.791-1.615-3.685-3.14-5.303-4.914c-1.955-2.142-2.422-5.568-6.096-6.299
			c-0.831-0.164-1.186-2.38-1.911-3.557c-0.471-0.764-1.217-1.357-1.838-2.029c-0.642,0.788-1.664,1.496-1.85,2.381
			c-0.653,3.11-0.906,6.305-1.553,9.416c-0.248,1.201-1.142,2.269-1.98,3.846c-1.105-1.814-1.765-2.894-2.417-3.965
			c-6.063,3.84-6.082,10.545-8.002,16.33c-0.91,2.741-1.861,5.471-2.794,8.207c-0.422,0.008-0.845,0.017-1.269,0.024
			c-2.236-13.42-4.474-26.84-6.769-40.604c-2.046-0.869-3.233,0.228-3.809,2.689c-1.068,4.57-2.785,8.828-7.045,11.375
			c-0.776,0.463-2.068,0.066-3.833,0.066c-0.797,1.481-2.089,3.885-3.335,6.201c-6.197-0.973-6.678-1.92-4.373-8.444
			c-2.823-1.224-4.545,0.009-5.785,2.438c-2.534,4.968-5.06,9.941-7.59,14.91c-0.403-0.077-0.806-0.153-1.208-0.229
			c0-4.902,0-9.805,0-15.287c-7.496,1.408-14.716,0.08-21.548,3.611c-6.892,3.563-14.872,0.672-18.821-6.129
			c-0.642-1.107-1.09-2.841-0.686-3.939c1.097-2.996-0.353-3.049-2.498-2.784c-1.68,6.624-9.382,10.539-16.68,7.899
			c-3.062-1.106-5.563-3.765-8.32-5.715c-0.754-0.533-1.439-1.283-2.278-1.553c-6.315-2.027-8.231-8.503-4.102-13.678
			c0.634-0.793,0.949-2.168,0.813-3.196c-1.285-9.752,4.102-18.45,13.087-21.146c0-4.489,0-8.918,0-13.6
			c-1.257-0.144-2.233-0.251-3.208-0.367c-6.176-0.733-12.346-1.839-19.159,0.512c2.29-5.207,6.768-5.926,10.163-8.116
			c2.152-1.39,4.009-3.239,5.993-4.892c2.52-2.097,5.034-4.201,8.121-6.779c-7.48,0-14.533,0.051-21.582-0.036
			c-1.787-0.021-4.271,1.045-4.565-2.429c-0.046-0.55-2.365-1.009-3.678-1.327c-2.262-0.548-4.558-0.954-6.703-2.296
			c2.603,0,5.206,0,7.81,0c0.017-0.141,0.034-0.282,0.052-0.423c-2.671-0.712-5.341-1.423-8.011-2.135
			c0.032-0.18,0.064-0.36,0.096-0.54c1.505-0.102,3.009-0.204,5.188-0.352c-9.86-1.753-19.04-3.385-28.219-5.017
			c0.018-0.286,0.036-0.572,0.055-0.858c2.289,0,4.578,0,7.895,0c-1.605-1.238-2.416-1.863-3.773-2.909
			c14.881-1.78,29.286-3.503,43.69-5.226c0.038-0.152,0.077-0.304,0.115-0.457c-4.31-1.139-8.621-2.279-12.932-3.418
			c0.037-0.395,0.074-0.79,0.111-1.185c6.214-0.747,12.428-1.495,18.643-2.242c0.035-0.233,0.069-0.466,0.104-0.699
			c-2.966-0.826-5.932-1.649-8.898-2.474c-0.06-0.434-0.119-0.868-0.179-1.302c2.308-0.493,4.827-1.826,6.884-1.313
			c5.177,1.292,7.627-0.291,10.36-4.977c3.251-5.577,8.385-10.055,12.907-15.243c-0.035-8.217-7.185-13.118-11.952-19.641
			c-4.176-5.715-8.997-10.556-13.938-15.504c-3.246-3.25-4.95-8.039-7.343-12.138c0.322-0.267,0.643-0.533,0.965-0.8
			c11.681,7.368,23.363,14.737,34.255,21.607c2.649-1.989,5.212-3.313,6.866-5.367c1.124-1.397,1.18-3.8,1.356-5.786
			c0.833-9.415,4.713-17.009,13.335-21.396c7.362-3.746,15.337-4.584,23.51-3.551c0.884,0.112,1.765,0.269,2.653,0.34
			c0.489,0.038,0.989-0.062,1.692-0.116c-0.685-7.295,6.195-9.935,8.235-15.147c-0.757-1.107-1.962-2.547-2.738-4.189
			c-0.251-0.531,0.536-2.248,0.991-2.306c3.102-0.397,2.785-2.605,3.072-4.794c0.862-6.595,1.937-13.163,3.014-20.304
			c9.973,14.881,16.835,30.919,22.844,48.708c0.908-1.829,1.502-2.567,1.627-3.378c0.212-1.379,0.023-2.816,0.189-4.207
			c0.487-4.083,2.097-4.946,5.752-3.168c0-4.775,0-9.544,0-14.314c0.367-0.121,0.732-0.241,1.099-0.361
			c2.809,5.352,5.716,10.656,8.383,16.079c1.223,2.486,2.335,4.31,5.567,4.86c4.42,0.752,5.773,3.547,6.02,10.411
			c1.857-2.288,3.104-4.599,5.017-6.001c3.239-2.374,6.916-4.148,10.374-6.231c0.982-0.592,2.296-1.185,2.694-2.107
			c3.813-8.806,12.41-12.155,21.459-7.956c2.678,1.242,5.137,2.122,8.01,0.946c0.557-0.229,1.262-0.111,1.9-0.13
			c5.75-0.166,8.036,1.46,8.021,5.699c-0.017,4.825-3.196,8.133-7.965,8.076c-2.057-0.024-3.167,0.571-4.544,2.397
			c-2.26,3.002-5.498,5.264-8.325,7.839c-0.286-0.246-0.572-0.492-0.858-0.738c0.682,1.67,1.361,3.34,1.847,4.529
			c7.741,0.255,10.203-7.294,16.767-10.481c-0.232,3.076-0.426,5.59-0.612,8.057c2.665,0.76,5.356,1.527,8.46,2.412
			c5.229-5.567,10.932-11.639,16.636-17.711c0.508,0.19,1.015,0.379,1.522,0.569c-1.327,8.027-2.657,16.053-4.086,24.681
			c0.971-0.439,2.13-0.646,2.821-1.328c3.625-3.574,5.984-3.621,9.092-0.093c3.132-2.153,6.198-4.372,9.403-6.366
			c0.608-0.378,2.001,0.525,2.632,0.155c1.609-0.943,2.981-2.288,4.471-3.442c1.866-1.446,3.755-2.863,5.634-4.292l-0.038-0.04
			c-1.743,4.921-3.488,9.843-5.243,14.797c3.346-2.878,6.616-5.69,9.886-8.503c0.758,0.208,1.517,0.416,2.274,0.625
			c-4.29,7.633-3.58,15.248,0.128,22.756c1.57-0.201,3.204-0.411,4.837-0.619c0.179,0.367,0.357,0.736,0.537,1.104
			c-1.738,1.58-3.318,3.397-5.248,4.688c-3.563,2.38-8.266,3.515-8.563,9.041c-0.039,0.729-1.148,1.346-1.545,2.126
			c-0.465,0.915-0.69,1.949-1.348,3.904c4.397-0.863,7.895-2.053,11.412-2.113c4.488-0.078,9.232,0.054,13.407,1.458
			c2.502,0.841,4.583,1.341,7.15,1.05c8.715-0.988,17.469-1.644,26.174-2.7c4.353-0.528,8.635-1.649,12.947-2.503
			c6.439-0.997,12.879-1.989,19.316-2.993c1.228-0.192,2.448-0.432,3.673-0.65l-0.045-0.05c-2.248,2.085-4.275,4.503-6.794,6.178
			c-4.204,2.796-8.726,5.116-13.112,7.637c-5.731,2.565-11.462,5.13-17.095,7.652c2.819,8.296,0.874,8.966-4.324,10.869
			c-3.461,1.267-6.632,3.405-10.144,4.439c-4.362,1.285-3.793,4.879-4.329,7.883c-0.272,1.52,5.356,5.493,7.26,5.272
			c9.048-1.053,17.874,0.827,26.745,1.966c7.305,0.938,14.574,2.157,21.859,3.251c5.465,0.283,10.945,0.394,16.389,0.913
			c3.599,0.343,7.142,1.275,10.71,1.942c-0.026,0.436-0.052,0.871-0.076,1.307c-8.744,0.748-17.488,1.497-26.233,2.244
			c-13.938,1.406-27.875,2.828-41.815,4.21c-6.333,0.629-12.675,1.18-19.015,1.766c-0.075,0.436-0.149,0.873-0.226,1.309
			c1.654,0.247,3.307,0.693,4.962,0.706c8.783,0.071,17.565,0.034,26.456,0.669c-10.274,1.222-20.547,2.444-32.019,3.809
			c1.616,0.651,2.565,1.032,4.105,1.653c-2.429,1.001-3.598,1.482-4.766,1.963c-0.005,0.378-0.012,0.755-0.016,1.132
			c9.636,1.992,19.271,3.984,28.907,5.978c-0.078,0.445-0.156,0.889-0.234,1.334c-14.91-0.063-29.622-5.383-44.637-2.76
			c-0.054,0.397-0.107,0.793-0.162,1.19c4.706,1.138,9.411,2.277,14.117,3.414c0.014,0.24,0.026,0.479,0.04,0.718
			c-0.737,0.155-1.485,0.483-2.208,0.436c-5.565-0.377-7.086,4.131-9.135,7.777c-0.318,0.567,0.899,2.327,1.764,3.172
			c3.605,3.529,7.343,6.92,11.035,10.361c-0.12,0.113-0.235,0.229-0.35,0.344c-5.153-2.188-10.34-4.303-15.441-6.602
			c-1.848-0.832-3.473-1.682-5.073,0.275c-0.076,0.093-0.222,0.205-0.32,0.193c-7.09-0.8-9.63,6.641-15.379,8.258
			c0.171,3.051,0.33,5.922,0.463,8.299c3.225,1.123,6.226,1.799,8.859,3.179c3.771,1.973,7.123,3.946,11.89,3.165
			c4.183-0.686,5.372,3.8,6.634,6.779c1.423,3.362-0.556,7.846-3.501,9.791c-4.132,2.728-6.848,2.276-11.632-2.027
			c-1.777,1.113-3.603,2.251-5.418,3.4c-3.293,2.084-6.553,2.438-10.089,0.364c-0.938-0.549-2.63-0.433-3.725,0.005
			c-5.532,2.209-11.003,4.573-16.432,7.025c-0.854,0.384-1.747,1.398-1.989,2.293c-0.878,3.27-1.652,6.588-2.111,9.938
			c-0.169,1.232,0.442,2.707,1.048,3.891c3.309,6.455,6.938,12.756,10.033,19.309c2.268,4.803,3.882,9.914,5.788,14.889
			L414.178,391.027z"/>
		<path id="path32" fill="#DFC25B" d="M118.304,296.742c7.003-2.883,14.006-5.766,21.009-8.649c0.216,0.466,0.432,0.931,0.65,1.396
			c-6.022,3.868-12.044,7.737-18.066,11.606c-4.879,1.887-9.758,3.777-14.638,5.666c-0.262-0.474-0.523-0.947-0.785-1.42
			C110.417,302.475,114.361,299.609,118.304,296.742z"/>
		<path id="path34" fill="#DFC25B" d="M105.25,240.815c2.072,0.34,4.143,0.68,6.214,1.02c0.037,0.348,0.075,0.695,0.112,1.043
			c-2.445,0.585-4.891,1.17-7.336,1.755c-6.747,0-13.494,0-20.24,0c-0.05-0.434-0.1-0.867-0.149-1.301
			c4.876-0.67,9.746-1.383,14.628-1.992C100.723,241.061,102.992,240.984,105.25,240.815z"/>
		<path id="path36" fill="#DFC25B" d="M159.565,140.082c2.243,2.481,4.599,4.872,6.675,7.485c0.881,1.108,1.176,2.681,1.736,4.043
			l0.031-0.035c-4.359-3.565-8.718-7.13-13.076-10.695v-0.004c-0.196-0.326-0.392-0.65-0.588-0.974
			c-0.532-0.948-1.064-1.895-1.596-2.842c1.394,0.337,2.788,0.675,4.182,1.013c0,0,0.087,0.097,0.089,0.093
			c0.85,0.637,1.699,1.278,2.549,1.919L159.565,140.082z"/>
		<path id="path38" fill="#DFC25B" d="M227.854,126.258c-4.913-2.472-7.733-6.688-10.328-12.468
			c1.767,0.341,3.339,0.194,3.699,0.785c2.338,3.829,4.412,7.819,6.573,11.757L227.854,126.258z"/>
		<path id="path44" fill="#DFC25B" d="M461.225,131.059c-2.741,3.576-5.482,7.153-8.223,10.729
			c-0.388-0.308-0.773-0.616-1.161-0.925c1.94-4.28,4.907-7.699,9.172-10.029L461.225,131.059z"/>
		<path id="path66" fill="#DFC25B" d="M471.633,307.755c8.524,3.585,14.783,8.608,19.323,15.931
			C484.824,323.773,474.484,315.486,471.633,307.755z"/>
		<path id="path68" fill="#DFC25B" d="M143.867,219.551c5.985-3.386,16.691-2.646,19.878,1.375
			C157.984,224.385,148.034,224.256,143.867,219.551z"/>
		<path id="path70" fill="#DFC25B" d="M301.324,98.79c-5.113-9.243-8.222-17.989-9.449-27.942
			C296.563,75.137,300.968,88.223,301.324,98.79z"/>
		<path id="path72" fill="#DFC25B" d="M189.693,368.77c4.701-6.465,8.89-12.227,13.582-18.676
			C205.085,357.701,198.336,366.744,189.693,368.77z"/>
		<path id="path74" fill="#DFC25B" d="M292.165,408.508c-2.308-8.792-1.213-17.244,2.077-25.475
			c0.392,0.037,0.784,0.074,1.177,0.113c-0.635,8.572-1.27,17.146-1.906,25.719C293.064,408.746,292.613,408.628,292.165,408.508z"
			/>
		<path id="path76" fill="#DFC25B" d="M328.126,117.104c-4.187-6.92-5.093-13.617-2.032-16.21
			C330.157,105.893,329.147,111.446,328.126,117.104z"/>
		<path id="path78" fill="#DFC25B" d="M262.986,363.418c-1.303,4.041-2.368,7.747-3.755,11.327c-0.3,0.772-1.764,1.093-2.693,1.621
			c-0.362-0.882-0.987-1.75-1.041-2.651C255.252,369.625,258.909,364.098,262.986,363.418z"/>
		<path id="path80" fill="#DFC25B" d="M438.849,366.602c-2.026-2.523-4.028-3.971-4.304-5.695c-0.213-1.33,1.738-3.008,2.728-4.528
			c1.524,2.002,3.233,3.904,4.431,6.088C441.964,362.945,440.396,364.426,438.849,366.602z"/>
		<path id="path82" fill="#DFC25B" d="M243.604,367.799c0.19,5.85-1.758,11.055-5.016,13.719
			C237.182,377.277,239.842,369.593,243.604,367.799z"/>
		<path id="path94" display="none" fill="#DFC25B" d="M397.363,148.508c-0.792,1.98-1.317,4.122-2.414,5.913
			c-7.274,11.854-14.671,23.631-22.021,35.438c-0.328,0.527-0.592,1.094-1.014,1.879c3.353,0.89,6.277-3.687,9.52-0.222
			c11.603-9.9,23.703-19.11,38.356-26.623c-1.934,3.93-3.37,6.849-4.805,9.766c0.164,0.237,0.329,0.476,0.493,0.713
			c5.12-2.802,10.24-5.605,15.325-8.388c2.687,3.113,3.143,6.72,0.076,9.587c-4.606,4.31-9.983,7.785-14.856,11.828
			c-2.727,2.263-5.097,4.956-7.627,7.455c0.277,0.393,0.555,0.785,0.831,1.178c4.883-1.073,9.766-2.146,15.569-3.421
			c-4.385,6.098-9.892,9.304-15.518,12.148c-5.49,2.775-11.275,4.966-16.802,7.746c8.361-1.524,16.701-3.161,25.083-4.548
			c13.816-2.287,27.653-4.442,41.5-6.531c0.898-0.136,1.953,0.767,2.905,2.07c7.251-1.147,14.504-2.293,21.757-3.439
			c0.256,0.345,0.511,0.691,0.766,1.036c-2.489,2.378-4.827,4.946-7.507,7.087c-3.447,2.754-7.242,5.066-10.758,7.742
			c-7.835,5.965-16.957,8.713-26.383,10.636c-7.093,1.446-14.245,2.602-21.284,3.872c0.54,2.178,1.016,4.099,1.532,6.185
			c7.974,5.964,17.31,3.523,26.393,3.164c4.969-0.197,10.001-0.841,14.272,2.753c0.605,0.509,1.656,0.752,2.476,0.701
			c5.209-0.328,10.405-0.858,15.618-1.136c1.882-0.1,3.786,0.37,5.686,0.477c4.831,0.271,9.678,0.345,14.491,0.788
			c1.943,0.178,3.816,1.112,5.721,1.702c-0.089,0.451-0.181,0.903-0.271,1.355c-5.885,0.51-11.766,1.068-17.654,1.519
			c-7.498,0.573-15.196,0.195-22.454,1.815c-7.877,1.758-15.653,1.09-23.474,1.511c-1.058,0.058-2.195,0.542-3.104,1.127
			c-2.555,1.649-5.011,3.454-7.623,5.281c2.701,1.362,5.536,2.79,9.139,4.608c-7.426,3.735-14.546,4.978-22.249,5.069
			c7.79,2.922,15.323,5.752,22.858,8.579c-0.08,0.427-0.159,0.854-0.237,1.281c-12.053,0-24.104,0-36.156,0
			c7.044,2.341,15.191,2.435,19.07,11.209c-6.45-1.142-13.025-1.821-19.308-3.567c-5.054-1.404-9.101,0.435-12.923,1.623
			c2.524,6.297,5.011,12.34,7.362,18.436c0.856,2.219,1.391,4.561,1.458,7.263c-4.449-3.819-8.9-7.644-13.352-11.463
			c-0.248,0.224-0.497,0.447-0.745,0.671c7.021,9.055,16.798,16.155,20.98,28.668c-12.208-6.104-22.099-13.717-31.355-21.927
			c-1.193,1.603-2.33,3.129-4.009,5.386c2.457,4.821,5.474,10.395,8.175,16.118c4.507,9.554,8.811,19.204,13.201,28.813
			l-0.236,0.197c-5.596-6.74-11.518-13.24-16.694-20.291c-5.069-6.904-10.563-13.262-17.438-18.849
			c-0.6,4.679-1.151,8.983-1.703,13.289c-0.408,0.106-0.814,0.211-1.222,0.317c-2.789-5.369-5.606-10.726-8.353-16.117
			c-1.147-2.254-1.081-2.289-4.152-1.771c2.019,6.815,4.03,13.611,6.042,20.405c-0.328,0.242-0.654,0.484-0.982,0.727
			c-3.191-3.777-6.583-7.408-9.52-11.373c-2.496-3.371-4.433-7.152-6.699-10.699c-0.656-1.027-1.597-1.873-2.408-2.801
			c-0.31,0.199-0.62,0.397-0.93,0.596c4.114,10.392,8.229,20.785,12.345,31.174c-11.564-8.739-18.476-20.563-24.303-33.434
			c0,4.469,0,8.937,0,13.402c-0.38,0.082-0.759,0.163-1.142,0.244c-2.143-8.938-4.285-17.876-6.126-25.547
			c-1.037,8.771-2.24,18.963-3.445,29.154c-0.363-0.004-0.727-0.006-1.09-0.008c0-9.101,0-18.201,0-27.303
			c-0.49-0.059-0.98-0.118-1.472-0.177c-2.329,13.665-4.659,27.329-6.643,38.967c-1.992-10.699-1.634-23.735-0.937-36.754
			c-7.408,9.821-14.901,19.757-22.394,29.692c-0.453-0.158-0.905-0.315-1.359-0.474c1.338-6.271,2.676-12.542,4.013-18.813
			c-0.18-0.131-0.361-0.262-0.541-0.394c-5.39,7.812-10.78,15.624-16.743,24.269c-1.044-10.027,1.143-18.42,4.785-26.42
			c2.211-4.858,5.276-9.32,7.713-14.086c0.574-1.121,0.53-2.888,0.063-4.08c-0.258-0.657-1.988-0.737-3.054-1.077
			c-0.792-2.263-2.093-3.665-4.784-3.234c-2.422,0.39-4.52-0.171-5.982-2.433c-0.294-0.457-1.269-0.475-2.736-0.965
			c1.413,3.928,2.584,7.18,3.753,10.432c-4.16,2.177-8.32,4.354-12.868,6.734c0.276-7.855,3.532-13.957,8.024-19.897
			c-2.27,0.502-4.539,1.003-7.759,1.713c1.067-2,1.776-3.33,2.599-4.873c-0.959-0.602-1.961-1.231-3.372-2.116
			c2.342-1.99,4.422-3.758,6.501-5.524c0.351-0.065,0.7-0.129,0.15-0.028c0.468-0.361,0.182-0.141-0.104,0.079
			c-7.917,1.993-15.834,3.985-23.751,5.979c-2.041,0.442-4.079,0.886-6.119,1.328c-8.019,1.633-16.038,3.267-24.057,4.899
			c-0.072-0.19-0.145-0.38-0.217-0.569c7.332-5.08,14.663-10.16,22.319-15.463c-10.257,1.041-19.87,8.107-31.116,1.662
			c8.75-6.938,18.401-10.945,27.917-15.191c1.004,0.539,1.962,1.367,3.024,1.534c1.085,0.17,2.517,0.005,3.317-0.624
			c0.436-0.342,0.226-2.227-0.32-2.93c-0.863-1.113-2.253-1.818-3.324-2.623c0.217-1.593,0.429-3.149,0.646-4.737
			c-3.246,0.22-6.029,0.409-9.047,0.615c0.693,2.015,1.225,3.561,1.758,5.106c-12.638,1.312-25.277,2.625-37.915,3.938
			c-0.062-0.155-0.125-0.312-0.188-0.467c2.168-0.929,4.336-1.859,7.627-3.27c-8.677-1.643-16.359-3.098-24.937-4.723
			c5.23-0.493,9.713-0.828,14.169-1.38c1.841-0.228,3.621-0.931,5.431-1.404c5.875-1.536,11.703-3.301,17.643-4.513
			c3.836-0.783,7.838-0.754,11.886-1.79c-5.849-1.007-11.699-2.014-17.548-3.02c-0.036-0.305-0.072-0.611-0.108-0.917
			c13.671-2.514,27.343-5.028,41.343-7.603c-1.044-0.781-2.03-1.455-2.945-2.214c-2.423-2.005-2.907-4.803-1.411-7.181
			c0.78-1.244,3.296-1.916,5.034-1.929c3.398-0.025,6.801,0.596,10.547,0.231c-4.441-3.66-8.622-7.713-13.384-10.893
			c-8.047-5.373-13.434-12.922-18.573-20.786l0.154-0.155c8.552,4.443,17.103,8.886,25.661,13.333
			c-0.962-2.311-2.017-4.847-3.072-7.384c0.397-0.277,0.793-0.553,1.19-0.83c4.964,4.634,9.928,9.268,14.907,13.915
			c2.223-1.303,2.003-2.477,0.495-4.5c-2.6-3.489-4.66-7.381-6.947-11.102c0.417-0.29,0.833-0.58,1.25-0.869
			c2.667,3.157,5.335,6.314,8.242,9.753c0.832-4.344,0.262-7.535-2.619-10.567c-3.402-3.58-6.187-7.747-9.241-11.661l-0.032,0.031
			c1.801,0.499,3.601,0.999,5.403,1.499c0.1,0.131,0.2,0.263,0.301,0.394c-0.007-0.08,0.016-0.193-0.028-0.233
			c-0.078-0.07-0.195-0.095-0.298-0.139c0.623-3.292,2.14-4.068,4.823-2.344c2.757,1.77,5.439,3.655,8.154,5.489
			c0.29,0.221,0.58,0.443,0.869,0.664c0.045,0.092,0.076,0.197,0.142,0.272c0.034,0.039,0.129,0.024,0.196,0.033
			c-0.131-0.085-0.263-0.17-0.394-0.254c-0.17-0.343-0.339-0.686-0.509-1.028c-0.65-1.988-1.301-3.976-1.952-5.965
			c0.275-0.21,0.55-0.419,0.824-0.63c4.138,3.922,8.275,7.843,12.737,12.073c0.204-2.087,0.392-4.008,0.579-5.93
			c1.451-0.143,2.903-0.286,5.519-0.543c-2.05-3.221-3.6-5.656-5.149-8.091c0.95-2.494,1.901-4.987,3.106-8.154
			c1.549,2.057,2.431,3.226,3.312,4.396c0.068,0.349,0.136,0.697,0.032,0.158c0.318,0.41,0.116,0.151-0.085-0.109
			c0.01-8.574,0.216-17.155-0.045-25.721c-0.16-5.316-1.209-10.601-1.487-15.919c-0.102-1.943,0.871-3.942,1.354-5.914
			c0.562-0.032,1.124-0.062,1.686-0.093c3.908,12.659,7.816,25.319,11.77,38.128c1.496-2.849,2.878-5.481,4.261-8.114
			c0.375,0.018,0.751,0.036,1.127,0.054c1.868,5.079,3.736,10.159,5.6,15.237c-1.223-0.671-2.37-1.576-3.672-1.962
			c-3.006-0.89-3.154,2.099-4.436,3.546c1.029,0.763,2.01,1.606,3.1,2.271c1.646,1.004,3.369,1.885,5.062,2.818
			c-0.108,0.265-0.219,0.529-0.327,0.794c0.971-0.229,1.94-0.458,2.912-0.687c0.744,0.639,1.49,1.278,2.235,1.918
			c0.354-0.153,0.711-0.306,1.067-0.46c0-6.04,0-12.081,0-18.122c0.397-0.052,0.793-0.105,1.189-0.157
			c1.671,6.683,3.341,13.367,5.012,20.05c0.216-0.036,0.431-0.072,0.646-0.108c-1.396-11.453-2.793-22.906-4.188-34.359
			c0.35-0.109,0.699-0.219,1.05-0.329c3.139,8.554,6.278,17.107,9.39,25.588c0.918-3.263,1.85-6.579,2.562-9.113
			c1.813,0,2.925,0,4.731,0c0.539,0.689,1.598,2.042,2.822,3.608c0.734-1.8,1.351-3.309,2.329-5.704
			c0.892,2.4,1.513,4.071,2.131,5.741c-0.852,0.842-2.432,1.698-2.415,2.521c0.058,3.016,1.418,5.215,4.682,4.657
			c0.803,2.665,1.518,5.032,2.231,7.397c0.33,0.121,0.66,0.241,0.99,0.361c0.63-1.222,1.355-2.405,1.858-3.677
			c0.392-0.984,0.153-2.487,0.805-3.047c2.082-1.789,1.638-3.758,0.992-5.872c4.898-3.012,5.775-8.121,7.083-13.119
			c0.778-2.977,2.242-5.776,4.25-8.374c-0.9,7.915-1.794,15.831-2.711,23.744c-0.352,3.027-0.919,6.039-1.064,9.073
			c-0.062,1.261,0.718,2.564,1.007,3.499c5.685-6.215,11.046-12.075,16.406-17.934c0.099,0.105,0.2,0.207,0.304,0.307
			c-1.692,5.731-3.381,11.464-5.081,17.192c-0.394,1.325-0.833,2.635-1.558,4.912c1.487-1.207,2.187-2.038,3.078-2.461
			c12.704-6.033,20.308-18.015,30.943-26.452c0.491-0.389,1.038-0.71,1.56-1.063L397.363,148.508z M385.853,198.365
			c-1.037,0.493-2.073,0.988-3.11,1.481c-4.089,2.475-8.292,4.781-12.236,7.47c-3.982,2.714-7.707,5.808-11.545,8.734
			c-0.298-0.266-0.595-0.532-0.893-0.798c1.096-1.777,2.192-3.553,3.287-5.331c0.106-0.123,0.214-0.245,0.319-0.368
			c-0.125,0.104-0.251,0.208-0.377,0.313c-1.524,0.778-3.05,1.556-4.575,2.335l-0.005-0.006c0.192-1.662,0.384-3.324,0.62-5.379
			c-2.767,1.134-5.144,2.108-7.52,3.081l-0.002-0.002c1.439-2.387,2.88-4.775,4.575-7.588c-2.947,0.468-5.38,0.856-8.403,1.337
			c0.303-1.639,0.551-2.988,0.826-4.486c-1.024-0.181-2.058-0.365-3.728-0.662c1.905-2.367,3.513-4.365,5.121-6.363
			c-0.616-0.56-1.231-1.12-1.847-1.679c-3.688,4.097-7.375,8.195-10.987,12.208c-0.744-5.373-1.536-11.107-2.33-16.838
			c-0.523,0.04-1.046,0.081-1.57,0.122c0.183,4.166,0.366,8.332,0.547,12.498c-0.354,0.024-0.708,0.05-1.062,0.075
			c-1.379-8.534-2.757-17.068-4.136-25.601c-1.486,2.225-2.128,4.5-2.609,6.807c-0.496,2.378-0.833,4.788-1.355,7.867
			c-0.671-1.614-1.031-2.482-1.422-3.419c-7.157,5.311-5.277,11.095-5.632,22.736c-9.604-9.957-13.395-23.444-21.207-34.645
			c0.839,6.597,2.294,12.973,3.751,19.35c0.281,1.23,0.571,2.461,0.856,3.692l-0.043,0.037c-0.929-0.979-1.856-1.959-2.853-3.01
			c-2.568,1.37-1.83,2.794-0.574,4.584c1.93,2.75,4.944,5.704-0.16,8.437c-0.252,0.135-0.139,0.951-0.195,1.448l-0.059,0.06
			c-1.858-0.148-4.107-2.611-4.876,0.52c-3.539-3.04-6.995-6.008-10.451-8.977c-0.099-0.068-0.199-0.136-0.299-0.204
			c0.109,0.059,0.217,0.119,0.325,0.177c0.978,1.616,1.849,3.309,2.957,4.831c1.618,2.223,2.91,4.404,0.94,7.441
			c-4.091-2.289-8.216-4.595-12.34-6.902c-0.043-0.091-0.069-0.199-0.136-0.27c-0.041-0.044-0.141-0.032-0.215-0.044
			c0.109,0.112,0.22,0.224,0.329,0.336c3.6,4.353,6.981,8.913,10.87,12.989c2.828,2.964,6.326,5.289,9.524,7.899
			c-2.648,0.204-4.995-0.51-7.342-0.51c-3.119,0-6.25,0.476-9.353,0.908c-1.405,0.196-2.869,1.353-4.111,1.103
			c-13.908-2.804-13.897-2.855-19.723-1.287c11.586,3.532,23.519,7.171,35.454,10.81c0.02,0.167,0.041,0.334,0.061,0.501
			c-7.478,0.797-14.955,1.594-22.433,2.391c10.196,6.396,21.633,2.002,32.438,4.251c-5.946,1.118-12.477,0.799-16.686,6.571
			c1.438,0.566,2.584,1.017,4.189,1.649c-7.454,2.557-14.445,4.955-21.435,7.353c0.083,0.358,0.166,0.716,0.249,1.074
			c7.352-0.934,14.704-1.867,23.208-2.948c-1.785,1.159-2.572,1.669-4.288,2.782c2.909,0,4.7,0,6.531,0
			c-0.589,1.924-4.387,2.926-1.334,4.657c-3.767,4.524-7.483,8.986-11.199,13.448c-0.093,0.04-0.2,0.064-0.273,0.127
			c-0.044,0.038-0.036,0.136-0.052,0.207c0.105-0.115,0.209-0.23,0.313-0.346c3.71-1.911,7.421-3.822,11.131-5.734
			c-1.135,2.159-2.764,3.764-3.897,5.662c-0.816,1.37-0.865,3.175-1.458,4.707c-0.438,1.13-1.203,2.134-1.946,3.406
			c3.766,1.065,4.745-2.036,6.571-3.641c1.656-1.455,3.272-2.955,4.906-4.433l0.071,0.059c-2.334,3.54-4.667,7.081-7.001,10.622
			c12.034-5.287,18.006-16.246,26.184-25.331c-1.628,7.411-3.256,14.821-4.885,22.229c0.242,0.033,0.483,0.064,0.725,0.098
			c2.474-4.104,4.946-8.207,7.421-12.311c2.34-0.147,4.739-0.226,4.259-3.659c1.336,1.168,2.674,2.336,3.986,3.481
			c-0.383-2.437-0.795-5.063-1.383-8.793c2.42,5.932,4.392,10.765,6.362,15.596c0.242-0.133,0.483-0.264,0.724-0.396
			c0-4.079,0-8.158,0-12.722c1.894,3.266,3.575,6.166,5.813,10.024c0-2.66,0-4.218,0-5.773c0.392-0.172,0.784-0.346,1.176-0.518
			c4.729,7.726,9.454,15.451,14.181,23.176c0.237-0.125,0.474-0.248,0.71-0.371c-0.82-2.826-1.639-5.653-2.459-8.48
			c0.261-0.096,0.521-0.193,0.782-0.29c1.589,3.308,3.181,6.617,4.771,9.927c0.245-0.106,0.49-0.213,0.734-0.317
			c-1.63-8.728-3.259-17.456-4.889-26.185c0.37-0.121,0.739-0.242,1.109-0.363c1.542,2.711,3.03,5.451,4.639,8.121
			c1.701,2.821,3.515,5.574,5.279,8.358c0.102,0.343,0.201,0.685,0.302,1.028c0.098-0.07,0.285-0.196,0.281-0.203
			c-0.18-0.286-0.374-0.561-0.568-0.838c-0.374-2.273-0.446-4.653-1.193-6.797c-1.2-3.45-2.848-6.746-4.307-10.107
			c2.923,1.016,4.223,4.405,7.728,3.164c0.125,0.337,0.25,0.676,0.374,1.012c0.1-0.074,0.291-0.199,0.282-0.216
			c-0.166-0.306-0.356-0.599-0.542-0.896c-0.663-1.635-1.324-3.269-1.993-4.916c6.367,1.568,12.517,3.084,18.665,4.598
			c0.112-0.335,0.226-0.671,0.335-1.007c-3.986-2.695-7.975-5.392-11.849-8.011c0.341-0.783,0.635-1.457,0.928-2.132l0.007-0.006
			c5.664,0.287,11.328,0.572,16.992,0.859c0.056-0.413,0.108-0.827,0.161-1.24c-6.767-1.977-13.534-3.953-20.302-5.929
			c0.022-0.175,0.046-0.35,0.067-0.524c5.618,0,11.237,0,16.854,0c0.041-0.358,0.082-0.716,0.124-1.075
			c-4.398-1.525-8.796-3.049-12.767-4.426c6.796-2.429,13.683-4.893,20.57-7.356c-0.117-0.246-0.231-0.492-0.348-0.739
			c-3.278-0.376-6.556-0.753-10.525-1.209c3.827-1.748,6.957-3.099,10.019-4.592c7.797-3.801,17.082-4.509,23.231-11.349
			c-12.999-0.9-24.132,7.134-37.025,8.248c2.325-1.313,4.647-2.624,6.971-3.937c-0.076-0.191-0.151-0.382-0.228-0.573
			c-2.089,0.519-4.176,1.037-6.775,1.682c0.85-1.372,1.349-2.178,2.125-3.43c-2.465-0.31-4.497-0.566-6.53-0.823
			c-0.263-0.37-0.525-0.74-0.788-1.109c2.595-1.913,5.191-3.825,7.785-5.737c-0.317-0.295-0.638-0.59-0.956-0.884
			c-3.515,0.874-7.03,1.748-10.544,2.622c-0.261-0.406-0.521-0.812-0.781-1.218c0.661-0.343,1.392-0.597,1.975-1.04
			c4.334-3.29,8.639-6.616,12.953-9.93c0.308-0.081,0.615-0.162,0.925-0.242c-0.308-0.168-0.614-0.335-0.922-0.504
			c0.803-1.245,1.604-2.49,2.404-3.74c0.999-0.542,1.997-1.082,2.994-1.624c0.108-0.122,0.218-0.243,0.324-0.365
			C386.094,198.147,385.974,198.256,385.853,198.365L385.853,198.365z M349.278,309.79c-0.563,6.655,0.513,7.879,6.099,7.222
			c0.957-0.111,1.998-0.309,2.883-0.056c2.165,0.616,4.258,1.472,6.152,2.147c-0.294-1.998-0.651-3.476-0.699-4.965
			c-0.081-2.465-1.025-3.531-3.587-2.859c-1.049,0.275-2.871,0.715-3.156,0.287C354.958,308.559,352.252,309.223,349.278,309.79z
			 M400.085,271.468c2.808-0.883,5.074-3.426,8.363-1.909c0.585,0.271,1.916-1.072,3.429-1.988c-3.245-2.35-5.913-4.282-9.076-6.572
			C397.366,262.055,396.427,264.602,400.085,271.468z M419.357,236.422c-0.313-0.619-0.626-1.238-0.939-1.857
			c-2.153,0.484-4.831,0.375-6.271,1.656c-0.969,0.861-0.185,3.692-0.185,5.641c0.581,0.218,1.162,0.435,1.743,0.653
			C415.59,240.484,417.474,238.453,419.357,236.422L419.357,236.422z M396.204,197.045c4.557-1.54,5.474-3.791,3.631-8.41
			C394.916,189.412,393.97,191.499,396.204,197.045z M355.784,192.04c3.526-0.841,5.632-2.339,4.698-6.185
			C354.464,185.343,353.944,185.976,355.784,192.04z M382.391,299.457c0.282-0.256,0.565-0.512,0.847-0.768
			c-0.37-0.438-0.741-0.875-1.111-1.313c-0.259,0.243-0.515,0.484-0.771,0.727C381.699,298.557,382.046,299.007,382.391,299.457z
			 M276.012,311.453c-0.063-0.196-0.125-0.393-0.189-0.588c-0.083,0.074-0.243,0.158-0.236,0.224
			c0.024,0.202,0.111,0.396,0.174,0.593C275.844,311.605,275.927,311.529,276.012,311.453L276.012,311.453z M354.213,295.93
			c-0.031-0.111-0.061-0.222-0.09-0.33c-0.09,0.026-0.255,0.051-0.257,0.084c-0.007,0.107,0.046,0.219,0.077,0.33
			C354.032,295.986,354.122,295.958,354.213,295.93z M387.609,259.271c-0.088-0.032-0.18-0.065-0.269-0.099
			c-0.013,0.127-0.025,0.253-0.038,0.379c0.094-0.018,0.203-0.013,0.278-0.062C387.621,259.464,387.602,259.348,387.609,259.271
			L387.609,259.271z M380.14,192.41l-0.111,0.211l0.18,0.017L380.14,192.41z"/>
	</g>
	<path id="path64" fill="#B03025" d="M404.568,116.685c2.503,0.885,4.152,1.497,5.823,2.052c2.866,0.952,3.9,3.82,2.26,6.486
		c-1.9,3.089-3.854,6.147-5.854,9.326c-2.004-2.269-3.715-4.206-5.604-6.347C402.238,124.636,403.407,120.649,404.568,116.685z"/>
</g>
<g id="Can" inkscape:label="Can" inkscape:groupmode="layer">
	<path id="path214" fill="#38312B" d="M366.377,492.988C242.35,510.23,204.01,477.702,204.01,477.702
		c6.666,36.978,83.911,44.117,159.658,32.641c158.328-23.985,136.486-79.939,136.486-79.939S478.235,477.437,366.377,492.988
		L366.377,492.988z"/>
	<path id="path216" fill="#38312B" d="M443.479,16.314c-3.95-17.225-74.102-21.58-159.145-9.355
		C199.023,19.221,133.518,42.77,135.026,60.427l1.802,12.542c0,0,119.792,30.486,159.671,24.197
		c40.85-6.442,147.977-73.907,147.977-73.907"/>
	<path id="path218" fill="#67452B" d="M434.724,17.458c0,0-57.751-12.958-140.403-1.077
		c-111.653,16.051-151.839,43.43-151.839,43.43s20.23,17.667,150.828-1.451C394.592,43.537,434.724,17.458,434.724,17.458z"/>
	<path id="path220" fill="#006561" d="M204.044,477.938c0,0,37.766,33.481,161.795,16.242
		c111.859-15.547,134.61-63.467,134.61-63.467l-56.074-408.18c0,0-35.663,30.106-145.893,47.04
		c-104.338,16.026-161.831,2.134-161.831,2.134L204.044,477.938z"/>
	<path id="path222" fill="#B58C51" d="M422.251,178.163l26.607,1.168c0,0-0.378,208.474-5.569,210.123
		c-131.97,41.938-201.392,27.075-201.392,27.075l-60.928-202.09l31.473-7.212l-19.801-58.607c0,0,92.534-32.799,230.852-32.205
		C426.206,116.427,422.251,178.163,422.251,178.163L422.251,178.163z"/>
	<path id="path224" fill="#19181B" d="M412.299,189.466l30.077,1.645c0,0-0.635,189.409-5.283,190.927
		c-118.173,38.346-191.011,26.208-191.011,26.208L191.43,223.145l32.854-7.564l-17.979-54.39c0,0,82.844-30.034,206.864-28.946
		C415.603,132.266,412.299,189.466,412.299,189.466L412.299,189.466z"/>
	<path id="path226" fill="#FFFFFF" d="M256.752,237.727l-16.317,2.293l4.178-6.002l6.196,44.091l-11.457,1.61l-6.197-44.092
		l5.735,4.609l-16.349,2.298l-1.222-8.69l34.212-4.808L256.752,237.727z M286.148,273.963c-3.004,0.423-5.921,0.296-8.75-0.378
		c-2.812-0.699-5.383-1.946-7.713-3.739c-2.331-1.796-4.301-4.134-5.909-7.015c-1.59-2.905-2.665-6.353-3.226-10.344
		c-0.561-3.991-0.476-7.591,0.254-10.8c0.731-3.21,1.96-5.986,3.687-8.33c1.749-2.346,3.88-4.232,6.392-5.657
		c2.535-1.428,5.325-2.356,8.372-2.785c3.046-0.428,5.974-0.303,8.782,0.374c2.83,0.675,5.409,1.899,7.737,3.672
		c2.328,1.773,4.274,4.103,5.839,6.99c1.587,2.884,2.66,6.321,3.222,10.312c0.562,3.991,0.467,7.603-0.282,10.837
		c-0.73,3.21-1.98,6-3.746,8.371c-1.746,2.367-3.885,4.276-6.416,5.727C291.878,272.622,289.13,273.544,286.148,273.963
		L286.148,273.963z M284.877,264.92c1.802-0.253,3.429-0.974,4.881-2.163c1.45-1.21,2.508-3.022,3.175-5.435
		c0.689-2.416,0.762-5.555,0.219-9.417c-0.546-3.883-1.48-6.87-2.802-8.96c-1.325-2.111-2.847-3.527-4.568-4.248
		c-1.723-0.742-3.475-0.988-5.256-0.738c-1.781,0.25-3.408,0.971-4.882,2.163c-1.455,1.167-2.528,2.948-3.22,5.343
		c-0.673,2.37-0.737,5.497-0.191,9.38c0.545,3.884,1.472,6.893,2.778,9.029c1.325,2.11,2.851,3.548,4.577,4.312
		C281.333,264.926,283.096,265.17,284.877,264.92z M317.19,268.78l-13.431-46.521l11.812-1.66l10.947,44.737l-1.622,0.13
		l0.974-46.314l14.161-1.99l13.669,44.255l-1.595,0.323l-1.809-46.021l11.813-1.66l-0.087,48.421l-17.573,2.469l-11.002-39.051
		l1.159-0.163l0.188,40.572L317.19,268.78z M385.691,259.152l-11.2,1.574l-6.671-47.471l17.669-2.483l20.661,41.698l-2.028,0.744
		l-6.21-44.188l11.167-1.569l6.672,47.47l-17.798,2.502l-20.639-41.537l2.189-0.767L385.691,259.152z"/>
	<path id="path228" fill="#FFFFFF" d="M252.843,164.542c3.433-0.482,6.3-0.393,8.603,0.268c2.303,0.661,4.081,1.79,5.333,3.386
		c1.274,1.593,2.071,3.527,2.391,5.801c0.323,2.296,0.149,4.333-0.52,6.112c-0.671,1.757-1.629,3.194-2.873,4.309
		c-1.225,1.091-2.538,1.79-3.939,2.096c1.444-0.159,3,0.016,4.669,0.526c1.668,0.509,3.163,1.491,4.483,2.947
		c1.321,1.455,2.171,3.535,2.551,6.238c0.353,2.51,0.17,4.866-0.549,7.068c-0.722,2.18-2.167,4.046-4.333,5.597
		c-2.149,1.527-5.208,2.57-9.177,3.128l-19.728,2.773l-6.672-47.471L252.843,164.542z M247.1,187.667l-4.2-2.561l9.366-1.316
		c2.231-0.314,3.793-1.036,4.684-2.168c0.912-1.135,1.259-2.485,1.038-4.051c-0.147-1.052-0.496-1.9-1.046-2.545
		c-0.529-0.647-1.28-1.089-2.254-1.324c-0.974-0.235-2.169-0.253-3.585-0.054l-11.039,1.552l4.435-6.039L247.1,187.667z
		 M256.004,203.613c2.188-0.308,3.746-1.052,4.674-2.233c0.928-1.18,1.278-2.586,1.049-4.217c-0.121-0.858-0.381-1.62-0.781-2.286
		c-0.379-0.668-0.894-1.22-1.545-1.653c-0.631-0.437-1.384-0.736-2.26-0.897s-1.85-0.167-2.923-0.016l-10.105,1.42l3.331-3.618
		l2.773,19.728l-5.928-4.582L256.004,203.613z M280.091,169.574l4.435-6.038l2.682,19.085l-3.018-2.793l17.283-2.428l1.221,8.689
		l-17.282,2.429l2.136-3.484l2.701,19.214l-5.928-4.582l23.462-3.297l1.221,8.689l-29.834,4.193l-6.672-47.471l29.834-4.193
		l1.221,8.69L280.091,169.574z M310.801,204.806l4.749-49.109l18.216-2.561l18.069,45.902l-11.779,1.655l-14.426-39.358l0.064-0.009
		l-3.146,41.828L310.801,204.806z M318.402,193.038l-1.235-8.786l22.979-3.23l1.234,8.787L318.402,193.038z M365.615,197.102
		l-11.199,1.574l-6.672-47.471l17.669-2.483l20.662,41.697l-2.029,0.745l-6.21-44.188l11.167-1.57l6.672,47.471l-17.798,2.501
		l-20.639-41.536l2.189-0.768L365.615,197.102z"/>
	<path id="path230" fill="#00919E" d="M261.762,290.107c3.726-0.524,6.808-0.42,9.246,0.313s4.313,1.946,5.627,3.638
		c1.31,1.67,2.128,3.662,2.453,5.974c0.331,2.356,0.158,4.464-0.519,6.321c-0.681,1.836-1.649,3.334-2.905,4.494
		c-1.234,1.157-2.537,1.901-3.909,2.232c1.398-0.151,2.945,0.031,4.643,0.549c1.72,0.514,3.258,1.521,4.614,3.025
		c1.378,1.5,2.265,3.652,2.659,6.459c0.36,2.559,0.176,4.998-0.55,7.322c-0.73,2.299-2.236,4.284-4.519,5.955
		c-2.264,1.646-5.551,2.772-9.86,3.379l-21.717,3.051l-6.979-49.661L261.762,290.107z M256.183,314.169l-4.946-2.944l9.697-1.363
		c2.02-0.283,3.392-0.945,4.115-1.985c0.743-1.065,1.021-2.261,0.835-3.585c-0.129-0.92-0.43-1.68-0.903-2.275
		c-0.451-0.602-1.115-1.012-1.993-1.231c-0.881-0.242-1.995-0.269-3.342-0.08l-11.38,1.601l5.267-6.99L256.183,314.169z
		 M264.658,330.008c2.02-0.283,3.411-0.972,4.173-2.063c0.782-1.117,1.076-2.36,0.884-3.729c-0.095-0.674-0.299-1.309-0.612-1.905
		c-0.312-0.598-0.739-1.109-1.28-1.537c-0.518-0.431-1.168-0.739-1.95-0.928c-0.759-0.191-1.644-0.215-2.654-0.072l-10.572,1.484
		l3.943-4.193l2.801,19.933l-6.989-5.267L264.658,330.008z M287.346,337.154l4.569-51.285l21.582-3.033l18.461,48.048l-13.905,1.954
		l-14.223-40.369l0.066-0.01l-2.645,42.741L287.346,337.154z M295.98,325.297l-1.433-10.201l24.511-3.445l1.434,10.201
		L295.98,325.297z M355.121,328.521c-3.681,0.518-7.063,0.397-10.146-0.359c-3.085-0.78-5.645-2.217-7.679-4.311
		c-2.011-2.099-3.26-4.875-3.746-8.332c-0.041-0.293-0.082-0.584-0.123-0.877c-0.041-0.291-0.082-0.582-0.123-0.875l13.569-1.906
		c0.035,0.246,0.069,0.494,0.104,0.74c0.034,0.248,0.068,0.494,0.104,0.741c0.221,1.571,0.888,2.816,2.001,3.735
		c1.136,0.917,2.703,1.234,4.701,0.953c1.93-0.271,3.406-0.764,4.427-1.48c1.04-0.74,1.469-1.763,1.286-3.064
		c-0.136-0.965-0.789-1.789-1.961-2.471c-1.149-0.686-2.663-1.275-4.54-1.766c-1.855-0.495-3.907-0.928-6.157-1.298
		c-2.438-0.413-4.801-1.099-7.087-2.06c-2.264-0.964-4.199-2.352-5.804-4.164c-1.608-1.834-2.622-4.242-3.042-7.229
		c-0.433-3.075,0.052-5.821,1.452-8.238c1.396-2.439,3.449-4.443,6.158-6.015c2.731-1.575,5.859-2.609,9.384-3.105
		c3.658-0.514,7.005-0.399,10.039,0.341c3.056,0.737,5.582,2.1,7.577,4.086c1.996,1.984,3.225,4.617,3.686,7.894
		c0.041,0.291,0.08,0.571,0.118,0.841s0.077,0.551,0.118,0.842l-13.568,1.907c-0.016-0.112-0.04-0.28-0.071-0.505
		c-0.035-0.247-0.06-0.426-0.076-0.539c-0.205-1.459-0.794-2.635-1.766-3.527c-0.95-0.897-2.424-1.205-4.422-0.925
		c-1.975,0.278-3.451,0.851-4.427,1.722c-0.954,0.867-1.335,1.984-1.144,3.354c0.136,0.965,0.705,1.755,1.707,2.369
		c0.998,0.592,2.328,1.092,3.987,1.5c1.682,0.404,3.572,0.826,5.671,1.263c3.156,0.632,5.958,1.429,8.404,2.39
		c2.443,0.938,4.429,2.273,5.954,4.004c1.547,1.729,2.53,4.086,2.949,7.07c0.439,3.12-0.03,5.887-1.407,8.301
		c-1.382,2.392-3.475,4.357-6.279,5.896C362.169,326.959,358.893,327.992,355.121,328.521L355.121,328.521z M416.059,268.422
		l6.98,49.662l-13.604,1.911l-3.227-22.962l6.597,2.472l-27.44,3.856l5.688-3.992l3.199,22.76l-13.603,1.912l-6.979-49.662
		l13.602-1.912l3.246,23.098l-6.576-2.338l27.439-3.855l-5.683,4.025l-3.241-23.063L416.059,268.422z"/>
	<defs>
		<filter id="Adobe_OpacityMaskFilter" filterUnits="userSpaceOnUse" x="244.414" y="330.326" width="205.396" height="105.395">
			<feColorMatrix  type="matrix" values="1 0 0 0 0  0 1 0 0 0  0 0 1 0 0  0 0 0 1 0"/>
		</filter>
	</defs>
	<mask maskUnits="userSpaceOnUse" x="244.414" y="330.326" width="205.396" height="105.395" id="mask27284">
		<path id="path27286" fill="#FFFFFF" filter="url(#Adobe_OpacityMaskFilter)" d="M412.299,189.466l30.077,1.645
			c0,0-0.635,189.409-5.283,190.927c-118.173,38.346-191.011,26.208-191.011,26.208L191.43,223.145l32.854-7.564l-17.979-54.39
			c0,0,82.844-30.034,206.864-28.946C415.603,132.266,412.299,189.466,412.299,189.466L412.299,189.466z"/>
	</mask>
	<path id="path235" mask="url(#mask27284)" fill="#FFFFFF" d="M372.117,330.326c-0.198,0.02-0.405,0.053-0.607,0.084
		c0.532,2.902,1.06,5.808,1.584,8.723c-0.914,0.494-1.827,0.98-2.779,1.498c-0.152-0.406-0.171-0.8-0.252-1.184
		c-0.082-0.396-0.146-0.796-0.225-1.209c-0.201,0.029-0.392,0.055-0.6,0.082c0.135,0.754,0.274,1.506,0.408,2.229
		c-0.193,0.158-0.364,0.297-0.541,0.438c-0.095,0.076-0.181,0.148-0.277,0.221c-0.219,0.16-0.35,0.358-0.439,0.604
		c-0.145,0.409-0.24,0.833-0.49,1.217c-0.074,0.116-0.018,0.228,0.059,0.346c0.203,0.327,0.378,0.675,0.559,1.014
		c0.094,0.182,0.065,0.335-0.002,0.51c-0.216,0.588-0.386,1.181-0.635,1.754c-0.096,0.229-0.104,0.43-0.064,0.645
		c2.063,11.143,4.042,22.292,5.943,33.449c0.019,0.141,0.042,0.285,0.07,0.436c-0.413,0.096-0.811,0.12-1.254,0.07
		c-0.019-0.104-0.037-0.224-0.059-0.348c-0.989-5.75-1.996-11.493-3.027-17.24c-0.006-0.014-0.011-0.027-0.012-0.039
		c0.017-0.346-0.205-0.494-0.586-0.512c-0.092-0.491-0.182-0.987-0.273-1.49c-0.287,0.038-0.559,0.077-0.867,0.125
		c-0.035-0.184-0.071-0.346-0.104-0.512c-0.031-0.167-0.063-0.34-0.092-0.51c-0.035-0.166-0.06-0.338-0.09-0.518
		c-0.297,0.042-0.568,0.08-0.873,0.125c-0.093-0.547-0.226-1.059-0.559-1.521c-0.338-0.468-0.82-0.799-1.355-1.037
		c-0.523-0.232-1.129-0.324-1.75-0.34c-0.036-0.18-0.069-0.363-0.107-0.557c-0.191,0.027-0.365,0.054-0.584,0.084
		c-0.062-0.227-0.094-0.454-0.143-0.672c-0.041-0.223-0.084-0.447-0.129-0.688c-0.226,0.034-0.428,0.066-0.682,0.104
		c0.086,0.432,0.173,0.874,0.262,1.33c-0.144,0.029-0.254,0.055-0.393,0.084c0.033,0.182,0.069,0.375,0.105,0.561
		c-0.737,0.154-1.288,0.518-1.693,1.014c-0.334,0.409-0.5,0.896-0.572,1.396c-0.027,0.196,0.041,0.395,0,0.57
		c-0.044,0.206,0.012,0.386,0.031,0.605c-0.411,0.064-0.827,0.129-1.254,0.197c0.115,0.58,0.223,1.128,0.324,1.672
		c-0.186,0.21-0.358,0.41-0.574,0.652c0.065,0.342,0.147,0.75,0.232,1.184c-0.166,0.025-0.321,0.051-0.492,0.08
		c0.029,0.156,0.056,0.275,0.076,0.4c0.716,3.637,1.416,7.27,2.109,10.908c0.393,1.102,0.509,2.253,0.74,3.387
		c0.232,1.146,0.44,2.297,0.654,3.441c0.023,0.139,0.05,0.277,0.094,0.514c-0.321-0.391-0.584-0.702-0.893-1.068
		c-0.072,0.357-0.131,0.641-0.186,0.926c-0.067,0.33-0.067,0.329-0.395,0.383c-0.032,0.003-0.062,0.01-0.123,0.02
		c-0.736-3.872-1.48-7.736-2.234-11.617c-0.363,0.055-0.695,0.109-1.063,0.168c-0.101-0.518-0.196-1.014-0.301-1.531
		c-0.365,0.059-0.693,0.111-1.059,0.172c-0.032-0.169-0.049-0.324-0.102-0.469c-0.104-0.27,0.006-0.518,0.105-0.76
		c0.134-0.335,0.302-0.662,0.475-1.041c-0.757,0.122-1.461,0.234-2.164,0.352c-0.262,0.044-0.526,0.051-0.773,0.133
		c-0.944,0.314-1.949,0.379-2.928,0.561c-0.99,0.188-2.007,0.279-2.973,0.531c-0.977,0.255-1.984,0.363-2.98,0.6
		c0.207,0.966,0.415,1.938,0.629,2.938c-0.275,0.008-0.527,0.041-0.781,0.027c-0.309-0.023-0.625-0.024-0.918,0.027
		c-3.018,0.516-6.017,1.072-9.049,1.645c0.119,0.531,0.239,1.055,0.361,1.598c-0.771,0.148-1.512,0.289-2.287,0.438
		c0.034,0.135,0.059,0.258,0.092,0.379c0.451,1.982,0.903,3.963,1.352,5.947c0.058,0.241,0.053,0.237-0.232,0.4
		c-0.126,0.066-0.227,0.201-0.361,0.232c-0.318,0.076-0.509,0.322-0.791,0.465c-0.241,0.116-0.495,0.293-0.67,0.527
		c-0.148,0.193-0.329,0.377-0.496,0.566c0.063,0.277,0.124,0.539,0.189,0.818c-0.246,0.045-0.477,0.089-0.721,0.135
		c0.147,0.645,0.29,1.273,0.441,1.924c-0.478,0.094-0.934,0.186-1.41,0.279c-1.133-4.893-2.289-9.785-3.455-14.672
		c-0.246-0.016-0.47-0.047-0.701,0.002c-0.228,0.049-0.468,0.063-0.693,0.051c-0.524-0.02-1.039,0.115-1.564,0.063
		c-0.192-0.016-0.396,0.043-0.602,0.051c-0.209,0.008-0.43-0.023-0.645,0.014c-0.214,0.038-0.436,0.057-0.646,0.047
		c-0.563-0.031-1.07,0.149-1.602,0.25c-0.728,0.135-1.453,0.297-2.199,0.451c0.078,0.301,0.153,0.588,0.229,0.904
		c-0.103,0.032-0.196,0.086-0.273,0.068c-0.259-0.046-0.491,0.043-0.738,0.076c-0.325,0.047-0.657,0.068-0.977,0.119
		c-0.323,0.057-0.637,0.193-0.949,0.189c-0.379-0.009-0.718,0.086-1.074,0.154c-0.479,0.092-0.907,0.347-1.406,0.391
		c-0.266,0.19-0.609,0.232-0.873,0.436c-0.206,0.166-0.289,0.299-0.219,0.537c0.231,0.846,0.44,1.699,0.664,2.555
		c0.016,0.055,0.03,0.11,0.045,0.162c-0.274,0.106-0.527,0.203-0.797,0.313c0.78,3.012,1.562,6.033,2.344,9.1
		c-0.25,0.069-0.5,0.114-0.74,0.172c-0.246,0.051-0.493,0.121-0.742,0.154c-0.142,0.02-0.288-0.025-0.438-0.037
		c-0.214-0.025-0.435-0.057-0.654-0.064c-0.168-0.004-0.254-0.054-0.287-0.201c-0.043-0.186-0.091-0.364-0.145-0.57
		c-0.402,0.022-0.803,0.01-1.209,0.053c-0.207,0.025-0.425,0.026-0.631,0.07c-0.195,0.039-0.388-0.037-0.596,0.041
		c-0.201,0.075-0.428,0.1-0.646,0.148c-0.195,0.043-0.399,0.097-0.605,0.141c-0.405,0.078-0.759,0.253-1.07,0.508
		c-0.104,0.082-0.202,0.232-0.387,0.115c-0.437,0.049-0.873,0.038-1.313,0.086c-0.596,0.064-1.17,0.192-1.742,0.334
		c-0.192,0.049-0.362,0.137-0.545,0.213c-0.178,0.075-0.382,0.049-0.555,0.199c-0.141,0.124-0.381,0.14-0.58,0.232
		c-0.387,0.178-0.752,0.374-1.113,0.594c-0.098,0.067-0.17,0.076-0.289,0.057c-0.735-0.135-1.471-0.277-2.196-0.451
		c-0.355-0.09-0.712-0.143-1.074-0.217c-0.347-0.066-0.699-0.123-1.031-0.209c-0.13-0.035-0.288-0.143-0.334-0.252
		c-0.159-0.379-0.436-0.701-0.619-1.068c-0.09-0.18-0.242-0.328-0.359-0.492c-0.203,0.053-0.39,0.096-0.617,0.146
		c-0.073-0.206-0.125-0.426-0.186-0.641c-0.068-0.22-0.129-0.443-0.195-0.676c-0.244,0.059-0.473,0.115-0.736,0.178
		c-0.718-2.5-1.433-4.987-2.164-7.488c-1.014,0.252-1.991,0.492-3.002,0.746c-0.108-0.361-0.212-0.715-0.32-1.078
		c-2.981,0.746-5.927,1.504-8.879,2.273c0.059,0.182,0.108,0.354,0.168,0.555c-0.47,0.26-0.929,0.516-1.404,0.771
		c1.109,3.559,2.197,7.098,3.283,10.654c-0.638,0.166-1.266,0.335-1.9,0.502c0.089,0.301,0.183,0.592,0.279,0.902
		c-0.467,0.123-0.916,0.243-1.383,0.369c0.312,1.005,0.614,1.978,0.932,3.002c-0.27-0.068-0.502-0.12-0.734-0.174
		c-0.777-0.184-1.563-0.371-2.348-0.551c-0.139-0.032-0.296-0.06-0.432-0.037c-0.644,0.095-1.308,0.039-1.93,0.25
		c-0.5-0.032-0.948,0.164-1.396,0.311c-0.848,0.283-1.654,0.65-2.381,1.146c-0.554,0.374-1.004,0.837-1.443,1.309
		c-0.132,0.141-0.196,0.332-0.295,0.51c-0.385,0.02-0.733-0.081-1.094-0.133c-0.028-0.006-0.054-0.029-0.082-0.033
		c-0.602-0.112-1.206-0.21-1.813-0.313c-0.161-0.031-0.317,0.087-0.48,0.008c-0.466,0.13-0.957,0.148-1.43,0.211
		c-0.818,0.108-1.57,0.403-2.342,0.629c-0.318,0.089-0.623,0.265-0.928,0.412c-0.303,0.15-0.595,0.317-0.891,0.473
		c-0.362,0.185-0.699,0.415-1.049,0.609c-0.303,0.173-0.471,0.475-0.604,0.789c-1.818-0.097-3.441,0.391-4.848,1.449
		c-0.23-0.083-0.459-0.153-0.684-0.24c-0.259-0.104-0.531-0.043-0.781-0.018c-0.443,0.047-0.893-0.005-1.326,0.111
		c-0.126-0.089-0.238,0.019-0.354,0.029c-0.118,0.014-0.236,0.001-0.35,0.023c-0.33,0.067-0.657,0.127-0.98,0.215
		c-0.334,0.085-0.661,0.2-0.986,0.303c-0.048,0.019-0.094,0.028-0.139,0.043c3.331,9.309,6.601,18.621,9.809,27.953
		c62.113-19.429,127.862-31.233,195.588-34.426c-0.555-9.16-1.16-18.298-1.822-27.459c-0.273,0.115-0.331,0.38-0.525,0.566
		c-0.569-0.433-1.164-0.417-1.789-0.156c-0.217,0.09-0.447,0.16-0.645,0.287c-0.105,0.059-0.186,0.055-0.301,0.023
		c-0.283-0.082-0.526-0.275-0.854-0.279c-0.054,0.002-0.129-0.116-0.152-0.191c-0.033-0.09-0.021-0.197-0.029-0.299
		c-0.192-2.47-0.388-4.934-0.59-7.402c-0.007-0.142-0.024-0.283-0.035-0.439c-1.253,0.07-2.473,0.135-3.721,0.211
		c-0.034-0.427-0.067-0.841-0.104-1.25c-0.42-0.039-2.636,0.076-3.748,0.197c0.023,0.264,0.049,0.533,0.08,0.842
		c-0.374,0.026-0.756-0.014-1.076,0.086c-0.313,0.096-0.64,0.181-0.947,0.281c-0.314,0.102-0.653,0.158-0.982,0.277
		c0.237,2.533,0.472,5.065,0.705,7.605c-0.131,0.051-0.16-0.074-0.232-0.1c-0.084-0.031-0.178-0.059-0.24-0.105
		c-0.233-0.178-0.536-0.104-0.787-0.199c-0.332,0.119-0.706,0.172-0.965,0.43c-0.116,0.111-0.224,0.236-0.33,0.354
		c-0.521-0.1-1.006-0.261-1.541-0.252c-0.14,0.002-0.293-0.061-0.455-0.047c-0.4,0.034-0.815,0.027-1.209,0.104
		c-0.174,0.042-0.355,0.072-0.531,0.117c-0.188,0.049-0.358,0.131-0.535,0.203c-0.164,0.069-0.319,0.145-0.48,0.213
		c-0.014-0.009-0.031-0.014-0.039-0.023c-0.011-0.013-0.022-0.021-0.025-0.035c-0.367-3.605-0.737-7.214-1.117-10.836
		c-8.187,0.617-16.329,1.35-24.471,2.203c-0.033-0.173-0.062-0.336-0.098-0.514c-3.013,0.319-6.014,0.649-9.041,1
		c0.607,4.057,1.202,8.125,1.789,12.205c-0.43-0.025-0.816-0.061-1.213-0.039c-0.226,0.014-0.466-0.047-0.691,0.01
		c-0.687,0.168-1.389,0.301-1.939,0.746c-0.092,0.068-0.192,0.129-0.311,0.211c-0.071-0.474-0.142-0.954-0.215-1.441
		c-0.168,0.018-0.308,0.035-0.486,0.055c-0.067-0.438-0.144-0.857-0.186-1.283c-0.015-0.146-0.086-0.287-0.174-0.369
		c-0.437-0.393-0.732-0.891-1.158-1.293c-0.085-0.074-0.164-0.164-0.152-0.293c0.008-0.067-0.015-0.139-0.029-0.211
		c-1.648-10.713-3.373-21.426-5.182-32.152c-0.228-0.013-0.454,0.043-0.68,0.063c-0.232,0.028-0.461,0.061-0.738,0.094
		c0.033-0.414,0.172-0.775,0.336-1.158c-0.195,0.024-0.386,0.048-0.59,0.072c-0.063-0.354-0.121-0.673-0.174-0.98
		c0.255-0.377,0.504-0.753,0.758-1.141c-1.275-0.164-2.52-0.324-3.809-0.479c-0.09-0.522-0.191-1.083-0.291-1.658
		c-0.217,0.031-0.396,0.053-0.611,0.082c0.095,0.526,0.187,1.056,0.281,1.607c-0.375,0.053-0.673-0.108-1-0.139
		c-0.328-0.022-0.647-0.098-1.018-0.156C373.178,336.161,372.652,333.244,372.117,330.326L372.117,330.326z"/>
</g>
</svg>
