<?xml version="1.0" standalone="no"?>
<!DOCTYPE svg PUBLIC "-//W3C//DTD SVG 20010904//EN"
 "http://www.w3.org/TR/2001/REC-SVG-20010904/DTD/svg10.dtd">
<svg version="1.0" xmlns="http://www.w3.org/2000/svg"
 width="554.000000pt" height="554.000000pt" viewBox="0 0 554.000000 554.000000"
 preserveAspectRatio="xMidYMid meet">
<metadata>
Created by potrace 1.14, written by Peter Selinger 2001-2017
</metadata>
<g transform="translate(0.000000,554.000000) scale(0.100000,-0.100000)"
fill="#000000" stroke="none">
<path d="M2880 5335 c-779 -64 -1636 -284 -1853 -475 -84 -74 -83 -66 -29
-391 l38 -226 -32 13 c-55 23 -90 18 -129 -18 -28 -26 -37 -45 -46 -91 -12
-65 -1 -89 46 -101 17 -4 24 -14 27 -41 2 -19 3 -35 1 -35 -2 0 -39 18 -82 40
-74 38 -101 47 -101 34 0 -3 30 -39 68 -79 77 -85 98 -129 76 -160 -29 -41
-53 -92 -59 -128 l-7 -36 -50 25 c-92 47 -217 93 -320 118 -152 37 -168 39
-168 26 0 -19 155 -86 353 -152 206 -69 197 -61 176 -144 -10 -39 -15 -45 -32
-40 -11 3 -61 10 -111 17 -106 13 -159 4 -164 -28 -4 -26 81 -64 198 -89 47
-9 86 -18 88 -20 2 -1 -10 -21 -27 -45 -17 -23 -31 -47 -31 -54 0 -19 -30 -39
-102 -69 -67 -28 -132 -82 -144 -120 -4 -12 -24 -39 -44 -62 -21 -23 -41 -55
-45 -73 -5 -22 -12 -31 -26 -31 -67 0 -269 -60 -269 -80 0 -9 111 -20 202 -20
64 0 69 -2 99 -35 18 -19 50 -41 72 -47 47 -14 53 -26 41 -86 -8 -42 -12 -46
-53 -58 -70 -20 -120 -82 -136 -165 -6 -35 -8 -35 -103 -63 -53 -16 -105 -30
-114 -33 -26 -6 -22 -23 5 -23 12 0 49 7 82 15 94 23 110 20 134 -20 12 -21
38 -44 66 -57 37 -18 45 -26 41 -43 -3 -11 -6 -30 -6 -42 0 -15 -17 -34 -55
-60 -62 -43 -69 -55 -25 -47 40 9 39 -3 -9 -103 -38 -79 -40 -80 -81 -86 -51
-7 -81 -33 -95 -85 -8 -29 -19 -42 -53 -59 -47 -23 -72 -42 -72 -52 0 -11 83
-10 112 1 22 8 37 5 81 -15 49 -22 54 -27 50 -51 -7 -33 11 -54 65 -78 77 -34
168 -1 201 72 l18 40 26 -20 c35 -28 53 -26 152 20 48 22 89 40 91 40 2 0 4
-24 4 -53 0 -71 20 -90 91 -88 29 0 61 3 71 7 10 3 18 3 18 0 0 -4 -42 -61
-93 -129 -142 -186 -280 -397 -259 -397 19 0 127 87 179 143 28 31 93 113 143
182 l92 125 30 -25 c40 -34 91 -33 159 3 l54 28 48 -62 c26 -35 47 -67 47 -72
0 -5 -9 -17 -20 -27 -10 -9 -26 -36 -35 -59 -18 -47 -10 -84 27 -123 l21 -22
-42 -65 c-23 -35 -51 -87 -62 -115 -31 -83 1 -64 81 49 40 55 73 100 75 100 1
0 22 -7 46 -15 24 -9 51 -14 60 -12 14 4 22 -33 58 -246 47 -280 60 -318 141
-389 277 -245 1112 -274 1945 -68 196 48 455 135 455 152 0 4 -168 8 -373 8
-404 0 -435 3 -512 55 -20 14 -39 24 -42 21 -2 -2 3 -18 11 -35 9 -16 16 -33
16 -36 0 -3 -249 -4 -552 -3 -553 3 -553 3 -603 26 -60 28 -119 82 -148 137
-32 61 -35 197 -8 306 31 121 107 271 189 370 167 202 354 306 677 375 27 5
23 8 -51 33 -108 35 -183 83 -259 163 -75 79 -108 132 -143 231 -22 61 -26 89
-26 187 0 101 3 124 27 190 15 41 30 82 33 91 4 12 -3 19 -24 27 -84 29 -142
129 -142 245 1 112 61 193 162 217 122 30 245 -51 265 -173 5 -35 8 -38 32
-32 14 4 29 9 32 13 4 4 -7 54 -23 111 -16 57 -26 107 -21 111 4 4 27 10 50
13 48 6 40 19 79 -136 16 -64 18 -68 43 -65 l26 3 3 107 c3 119 -3 112 88 123
l50 6 38 -123 c21 -68 39 -124 40 -124 0 -1 11 -5 24 -9 l23 -7 -7 140 -7 139
39 6 c80 14 74 27 74 -163 0 -97 4 -170 9 -170 5 0 31 -16 56 -36 26 -19 49
-33 52 -30 3 3 -7 93 -22 201 -14 107 -25 201 -23 207 3 8 37 18 82 24 l78 11
86 -174 c48 -95 89 -173 92 -173 3 0 -5 81 -19 180 -13 99 -23 182 -20 184 2
2 25 6 50 9 l46 6 22 -162 c12 -89 24 -163 26 -166 3 -2 35 19 71 48 133 103
244 142 419 148 137 6 201 -6 321 -58 218 -93 385 -325 413 -572 25 -222 -47
-426 -209 -588 -73 -73 -101 -94 -180 -132 -52 -25 -110 -48 -127 -52 -48 -10
-40 -21 20 -28 28 -4 85 -14 124 -24 68 -15 74 -15 91 0 10 9 32 17 49 17 28
0 32 -4 38 -38 6 -35 11 -40 88 -79 77 -40 82 -41 101 -25 44 40 61 146 30
190 -12 18 -13 26 -4 37 23 28 7 68 -38 98 -39 26 -42 31 -29 46 22 25 29 56
17 86 -6 14 -7 25 -3 23 152 -77 302 -132 318 -116 23 23 -86 135 -188 194
-65 37 -67 39 -43 51 17 9 25 24 29 53 7 52 10 56 39 36 33 -23 56 -20 95 14
21 18 45 30 63 30 15 0 36 3 45 6 24 10 67 101 63 137 -4 38 -48 71 -107 81
-28 4 -46 14 -58 32 -16 25 -16 28 0 56 25 44 21 63 -20 97 l-37 30 40 -11
c65 -18 231 -15 291 6 29 9 55 21 58 26 3 4 -16 16 -42 26 -37 13 -89 18 -225
22 l-178 4 40 45 c71 81 52 130 -74 189 l-71 33 58 1 c76 0 80 14 28 92 -22
34 -41 71 -41 82 0 12 -9 35 -19 52 -17 28 -35 38 -96 59 -16 5 -8 13 45 41
80 42 124 86 114 117 -16 55 -143 147 -201 147 -21 0 -15 7 34 49 83 70 193
195 193 220 0 11 -79 -4 -124 -23 -20 -8 -56 -29 -82 -46 -35 -25 -52 -30 -72
-26 -15 4 -43 10 -63 15 -19 4 -49 16 -66 26 l-32 18 50 47 c55 52 62 81 28
124 -20 25 -27 27 -80 24 -33 -2 -59 0 -59 3 0 17 61 57 95 62 47 7 85 45 85
84 0 32 65 99 106 109 42 10 64 33 64 68 0 17 9 42 20 56 20 25 26 50 13 50
-5 -1 -19 -7 -33 -15 -14 -8 -45 -15 -70 -15 -55 0 -64 -6 -83 -51 -16 -40
-75 -80 -144 -98 -26 -7 -50 -22 -60 -38 -78 -113 -126 -132 -176 -69 -17 21
-56 50 -88 67 -33 16 -59 32 -59 35 0 3 14 25 30 49 41 60 19 73 -29 16 -29
-33 -43 -41 -68 -41 -18 0 -33 4 -33 10 0 5 -25 190 -55 412 -43 312 -60 409
-74 428 -39 54 -180 100 -363 120 -130 13 -595 11 -788 -5z m644 -1652 c16
-115 30 -220 33 -234 5 -26 4 -26 -67 -33 -40 -4 -77 -9 -84 -12 -7 -3 -46 65
-96 166 -46 93 -88 170 -92 170 -10 0 -12 18 17 -181 14 -95 24 -173 23 -174
-5 -4 -98 -16 -98 -13 0 2 -15 105 -34 231 -37 261 -47 229 72 245 l63 9 89
-176 c100 -198 102 -197 70 14 -11 72 -20 142 -20 157 0 27 2 28 81 36 12 2
20 -34 43 -205z m-492 -95 c48 -122 87 -222 85 -224 -1 -1 -25 -5 -53 -9 l-52
-7 -17 52 -17 51 -42 -6 c-91 -14 -93 -15 -100 -47 -3 -17 -6 -41 -6 -54 0
-16 -6 -24 -17 -24 -10 0 -34 -3 -53 -6 l-36 -6 23 224 c12 122 22 230 22 240
1 12 16 19 64 26 122 19 101 40 199 -210z m-402 165 c0 -10 3 -28 6 -39 5 -21
0 -23 -86 -35 l-92 -12 7 -56 c4 -31 8 -57 9 -59 2 -1 34 2 72 7 37 6 69 9 70
8 1 -1 5 -18 9 -38 l7 -36 -69 -9 c-75 -10 -82 -18 -68 -92 l6 -34 67 7 c123
13 117 14 120 -26 l3 -36 -128 -17 c-70 -10 -135 -18 -143 -19 -11 -2 -21 45
-46 228 -18 127 -32 231 -31 231 1 1 63 11 137 22 74 11 138 20 143 21 4 0 7
-7 7 -16z m-372 -78 c53 -45 50 -126 -6 -172 -22 -19 -24 -23 -9 -23 30 0 72
-27 85 -55 29 -64 5 -140 -53 -168 -30 -14 -253 -53 -260 -45 -7 7 -66 451
-60 456 9 9 154 29 217 31 47 1 62 -3 86 -24z m-93 -656 c8 -36 -4 -49 -50
-49 -59 -1 -59 0 -30 -205 14 -103 25 -189 23 -190 -2 -1 -24 -6 -50 -9 -56
-8 -48 -29 -78 199 -12 88 -23 165 -25 171 -2 8 -19 9 -56 3 -29 -5 -54 -7
-55 -6 -1 1 -5 18 -9 38 l-7 36 139 20 c194 29 190 29 198 -8z m2918 -244 l18
-25 -26 12 c-14 6 -25 17 -25 25 0 20 13 15 33 -12z"/>
<path d="M2856 3678 c-3 -29 -6 -79 -6 -110 l0 -57 38 5 c20 3 42 7 48 9 12 4
-54 205 -67 205 -3 0 -9 -24 -13 -52z"/>
<path d="M2078 3613 c-19 -5 -21 -17 -12 -75 7 -42 15 -45 77 -27 77 21 68
110 -11 108 -20 -1 -45 -3 -54 -6z"/>
<path d="M2093 3423 c-7 -2 -11 -14 -9 -26 3 -12 8 -39 11 -61 l6 -38 47 7
c57 8 82 29 82 66 0 41 -24 59 -78 58 -26 0 -53 -3 -59 -6z"/>
<path d="M3415 3088 c5 -30 45 -319 45 -325 0 -2 -13 -3 -29 -3 -17 0 -32 -4
-35 -8 -3 -5 15 -35 39 -68 25 -32 57 -89 71 -126 27 -69 44 -79 44 -28 0 34
35 152 61 202 24 46 24 57 2 52 -15 -4 -35 29 -103 165 -46 94 -88 171 -93
171 -4 0 -5 -15 -2 -32z"/>
<path d="M2950 2997 c0 -50 2 -57 20 -57 23 0 23 0 8 54 -18 64 -28 65 -28 3z"/>
<path d="M2383 3004 c-49 -24 -69 -85 -55 -164 14 -75 43 -125 81 -138 27 -9
32 -6 86 48 l58 59 -7 56 c-14 121 -83 180 -163 139z"/>
<path d="M4154 2916 c-233 -53 -394 -254 -394 -491 0 -447 541 -668 855 -349
180 184 192 462 27 671 -106 134 -318 207 -488 169z"/>
<path d="M2819 2706 c-117 -45 -195 -115 -243 -216 -28 -59 -31 -74 -31 -165
0 -92 3 -106 32 -167 119 -252 434 -310 636 -119 166 157 163 419 -5 577 -76
71 -144 98 -258 101 -63 2 -107 -2 -131 -11z"/>
<path d="M3545 2224 c-17 -84 -51 -171 -89 -228 l-42 -63 23 -134 c12 -74 22
-135 23 -136 0 -1 62 -23 66 -23 2 0 4 9 4 20 0 15 7 20 28 21 35 1 75 4 190
14 81 6 95 5 105 -9 11 -16 19 -15 97 4 47 11 100 20 118 20 43 0 41 16 -3 24
-53 10 -203 90 -264 139 -97 81 -186 211 -221 322 -17 54 -28 63 -35 29z"/>
<path d="M3261 1801 c-24 -18 -24 -18 -4 -38 10 -10 27 -30 36 -43 23 -34 30
-21 22 44 -8 60 -16 66 -54 37z"/>
<path d="M3185 1760 c-11 -5 -33 -14 -50 -21 l-30 -13 40 -5 c31 -5 43 -2 53
12 18 23 12 36 -13 27z"/>
<path d="M2930 1499 c-370 -27 -649 -220 -759 -526 -33 -90 -45 -161 -36 -204
13 -57 25 -59 432 -59 l368 0 2 118 c2 206 71 404 203 581 34 46 60 84 58 86
-9 7 -186 10 -268 4z"/>
<path d="M4143 1499 c-217 -16 -413 -95 -549 -222 -117 -110 -196 -240 -229
-380 -22 -93 -20 -133 10 -162 l24 -25 855 0 855 0 28 24 c24 21 27 30 26 77
-4 155 -124 376 -266 492 -185 151 -444 219 -754 196z"/>
<path d="M1063 1171 c-77 -56 -105 -173 -59 -244 24 -36 62 -35 112 1 65 47
102 97 109 145 9 56 -4 81 -55 107 -51 26 -60 25 -107 -9z"/>
</g>
</svg>
