<?xml version="1.0" standalone="no"?>
<!DOCTYPE svg PUBLIC "-//W3C//DTD SVG 20010904//EN"
 "http://www.w3.org/TR/2001/REC-SVG-20010904/DTD/svg10.dtd">
<svg version="1.0" xmlns="http://www.w3.org/2000/svg"
 width="1100.000000pt" height="1100.000000pt" viewBox="0 0 1100.000000 1100.000000"
 preserveAspectRatio="xMidYMid meet">
<metadata>
Created by potrace 1.14, written by Peter Selinger 2001-2017
</metadata>
<g transform="translate(0.000000,1100.000000) scale(0.100000,-0.100000)"
fill="#000000" stroke="none">
<path d="M6060 10609 c-124 -7 -470 -34 -565 -44 -1302 -137 -2520 -420 -3180
-740 -312 -151 -449 -277 -447 -410 1 -27 37 -268 82 -534 44 -266 79 -485 77
-487 -1 -2 -30 11 -64 28 -121 60 -241 31 -305 -72 -20 -32 -33 -75 -45 -147
-17 -101 -17 -103 3 -130 12 -15 45 -38 75 -50 l54 -22 12 -63 c21 -109 26
-106 -95 -42 -59 32 -127 68 -152 80 -48 23 -121 46 -128 40 -2 -2 49 -60 114
-127 163 -172 190 -209 205 -273 10 -48 10 -58 -5 -78 -9 -13 -31 -44 -50 -71
-44 -60 -75 -142 -83 -218 -3 -32 -8 -59 -10 -59 -2 0 -52 24 -111 54 -272
136 -517 221 -811 281 -143 29 -151 30 -151 12 0 -17 126 -84 277 -146 67 -27
265 -97 440 -154 175 -58 330 -110 344 -115 l26 -10 -26 -127 -26 -127 -45 6
c-25 3 -106 14 -180 26 -196 29 -325 23 -366 -17 -60 -60 91 -135 411 -203 83
-18 154 -36 159 -40 4 -5 -12 -35 -37 -68 -26 -33 -60 -89 -78 -125 -35 -75
-50 -87 -151 -123 -91 -33 -170 -73 -226 -113 -46 -34 -117 -134 -127 -180 -3
-16 -29 -48 -64 -79 -64 -56 -111 -136 -111 -188 0 -31 -2 -33 -47 -39 -226
-30 -412 -79 -503 -133 l-45 -26 35 -7 c19 -4 141 -13 270 -19 129 -7 242 -15
251 -19 10 -3 28 -22 41 -41 30 -44 102 -93 170 -115 95 -31 100 -46 72 -182
-18 -84 -32 -103 -76 -103 -48 0 -135 -39 -178 -81 -52 -50 -100 -150 -124
-256 l-19 -82 -41 -7 c-23 -3 -95 -23 -161 -44 -66 -21 -145 -43 -175 -50 -57
-13 -80 -25 -80 -42 0 -13 74 -3 235 32 205 45 191 47 241 -35 23 -38 55 -80
70 -92 25 -19 43 -28 135 -62 l27 -10 -14 -73 c-7 -40 -16 -83 -19 -95 -3 -15
-42 -48 -109 -93 -143 -95 -150 -110 -45 -86 35 9 65 14 66 12 11 -11 -26
-115 -86 -240 l-68 -143 -49 -7 c-151 -21 -204 -60 -225 -166 -10 -52 -18 -66
-52 -95 -22 -19 -61 -42 -86 -52 -72 -27 -111 -55 -111 -81 0 -22 1 -22 31 -6
29 15 34 15 70 -2 38 -17 39 -17 100 11 l61 27 61 -28 c34 -15 85 -40 114 -56
l51 -29 -5 -58 -6 -59 44 -32 c24 -18 68 -44 98 -58 46 -21 63 -24 116 -19
165 16 248 82 299 240 5 15 12 13 57 -23 82 -65 131 -54 408 84 36 19 75 36
87 40 20 6 21 4 13 -41 -19 -118 -4 -196 45 -228 43 -28 88 -33 187 -19 115
16 129 17 129 4 0 -5 -49 -72 -109 -148 -234 -298 -516 -708 -605 -880 l-17
-33 28 14 c41 21 148 102 222 166 94 82 223 237 419 505 l174 237 40 -37 c61
-54 120 -78 181 -70 48 5 146 47 230 97 37 23 37 23 51 4 8 -11 55 -74 104
-139 l90 -120 -49 -59 c-70 -84 -93 -131 -93 -197 -1 -65 34 -134 89 -175 l34
-26 -71 -107 c-38 -59 -86 -138 -105 -177 -40 -79 -76 -176 -68 -183 13 -13
65 43 152 163 51 72 108 150 126 174 49 68 54 69 149 37 51 -17 99 -26 123
-24 l39 3 82 -494 c46 -272 90 -515 100 -540 9 -25 36 -75 59 -111 128 -198
392 -343 815 -446 l115 -28 950 -3 c915 -3 955 -3 1100 17 751 104 1414 269
1890 472 128 54 313 147 375 187 22 15 -48 16 -905 21 l-930 5 -79 28 c-273
96 -378 314 -320 658 34 203 147 481 269 664 29 44 52 81 51 82 0 1 -37 -7
-81 -17 -44 -10 -106 -23 -137 -30 l-57 -11 -60 -117 c-108 -214 -166 -417
-180 -641 -13 -212 10 -343 89 -501 20 -41 41 -85 44 -98 l8 -23 -984 3 -983
3 -79 28 c-236 83 -348 259 -333 525 10 190 71 401 179 614 38 75 67 142 63
148 -3 5 0 10 8 10 8 0 43 39 79 87 336 457 807 719 1433 799 143 18 512 24
634 11 51 -6 71 -5 66 2 -3 6 1 11 9 11 10 0 16 9 16 23 0 13 12 34 26 46 24
21 29 22 62 9 19 -7 40 -22 46 -32 6 -11 21 -31 34 -45 12 -15 25 -34 28 -43
8 -28 42 -23 37 5 -2 12 -16 90 -32 173 -17 96 -24 160 -19 174 4 12 5 33 2
46 -4 14 -1 31 7 40 18 22 87 48 125 47 61 -1 81 -11 87 -43 4 -16 13 -30 20
-30 10 0 24 -66 52 -242 21 -134 41 -250 46 -258 6 -13 98 -50 124 -50 4 0 5
16 2 35 -3 19 -2 37 3 40 5 3 59 7 122 10 103 4 390 27 496 40 40 4 42 3 42
-21 0 -21 4 -25 18 -19 36 15 245 55 368 72 176 23 551 23 724 -1 144 -19 321
-57 433 -93 44 -13 81 -22 84 -19 3 3 -4 24 -15 47 -15 29 -18 47 -12 59 14
26 73 50 124 50 45 0 45 0 56 -42 28 -108 49 -177 58 -194 12 -21 188 -124
212 -124 24 0 107 57 130 90 33 46 68 131 75 180 8 57 -9 134 -40 181 l-24 37
27 51 27 51 -20 37 c-14 26 -46 55 -102 93 -76 50 -80 55 -62 68 52 37 74 146
44 219 -8 19 -15 37 -15 39 0 2 33 -15 73 -37 100 -56 228 -116 317 -149 88
-32 260 -74 268 -65 15 15 -57 125 -128 196 -81 81 -146 127 -300 210 -55 30
-100 57 -100 61 0 3 22 14 50 23 27 9 53 22 57 28 5 7 10 51 13 99 3 48 9 90
12 94 4 3 33 -10 65 -30 87 -54 116 -50 194 21 l62 58 62 -2 c85 -4 117 19
167 117 68 133 71 171 21 231 -34 39 -133 89 -179 89 -54 0 -95 25 -133 80
l-33 49 31 48 c50 75 53 113 11 166 -24 30 -107 80 -199 119 -72 31 -101 53
-101 78 0 16 19 30 41 30 5 0 15 -15 23 -32 21 -51 101 -93 226 -119 149 -31
379 -32 500 -2 83 21 180 57 180 68 0 9 -75 37 -170 62 -91 24 -108 25 -407
27 -171 0 -315 4 -319 8 -4 4 25 41 63 81 121 127 131 203 37 286 -44 39 -191
116 -267 141 -67 21 -39 35 66 32 164 -5 175 21 67 168 -39 52 -72 101 -74
110 -3 8 -10 40 -16 70 -22 115 -91 181 -215 209 -31 7 -55 16 -53 21 2 4 44
29 93 55 212 111 265 156 265 226 0 56 -19 87 -92 151 -114 100 -212 152 -313
166 l-49 7 74 58 c115 88 263 240 356 364 46 62 84 114 84 116 0 8 -126 -14
-175 -30 -73 -23 -159 -68 -251 -129 -90 -60 -127 -67 -174 -33 -17 13 -48 23
-77 25 -26 2 -59 6 -73 9 -35 9 -153 87 -143 95 4 3 38 28 75 54 97 67 123
105 123 177 0 67 -21 104 -76 131 -42 22 -128 23 -192 4 -42 -12 -47 -12 -47
1 0 59 105 143 177 143 95 0 164 61 184 163 22 112 114 204 226 227 39 8 66
21 86 41 25 26 28 34 22 68 -7 44 13 102 49 141 71 76 54 104 -35 58 -56 -28
-74 -33 -144 -33 -110 -1 -145 -24 -159 -106 -7 -42 -26 -60 -128 -122 -78
-48 -145 -77 -180 -77 -44 0 -84 -31 -120 -93 -85 -146 -173 -210 -256 -187
-34 8 -48 21 -76 63 -42 63 -89 98 -213 160 -50 26 -94 50 -97 55 -3 5 24 48
59 97 58 79 63 89 48 100 -17 13 -36 -4 -134 -118 -20 -23 -34 -28 -91 -34
-65 -6 -67 -5 -72 18 -3 13 -53 373 -111 799 -58 426 -110 797 -117 824 -37
165 -359 274 -933 316 -160 11 -843 11 -1045 -1z m948 -3351 c35 -249 65 -460
68 -469 4 -13 -23 -20 -172 -41 l-176 -25 -174 349 c-96 191 -176 348 -177
348 -4 0 1 -36 59 -448 30 -214 36 -275 26 -281 -15 -9 -193 -34 -199 -27 -6
5 -135 927 -131 931 3 3 342 54 344 51 0 0 79 -160 175 -355 96 -195 175 -347
177 -340 1 8 -20 174 -48 369 -27 194 -47 356 -45 359 6 5 145 28 185 30 l26
1 62 -452z m-987 -154 c150 -382 175 -450 161 -455 -10 -3 -59 -11 -111 -18
-76 -10 -96 -9 -102 1 -5 7 -23 52 -40 101 l-32 87 -51 -6 c-28 -4 -87 -12
-131 -18 l-80 -11 -7 -55 c-3 -30 -6 -78 -7 -107 -1 -40 -5 -53 -18 -57 -31
-8 -204 -28 -209 -23 -4 3 86 958 90 964 3 4 341 51 350 49 5 -1 89 -204 187
-452z m-808 344 c3 -13 9 -50 13 -84 l6 -61 -171 -23 c-94 -13 -176 -27 -181
-30 -7 -4 -5 -41 5 -110 9 -57 17 -105 18 -106 1 -1 58 7 127 17 181 27 165
32 177 -58 5 -43 9 -79 8 -81 -3 -4 -251 -41 -272 -42 -16 0 -16 -20 -2 -132
14 -104 -7 -98 217 -66 83 12 155 19 158 16 8 -9 27 -148 21 -155 -5 -5 -532
-82 -567 -83 -13 0 -27 80 -78 453 -35 248 -65 459 -68 468 -4 14 36 22 278
56 156 22 288 41 294 42 7 0 14 -9 17 -21z m-773 -141 c90 -46 135 -179 96
-281 -16 -41 -63 -92 -112 -123 -17 -10 -14 -12 19 -12 142 -3 234 -169 181
-326 -21 -61 -80 -118 -148 -144 -63 -24 -494 -87 -505 -75 -7 8 -132 878
-131 915 0 13 37 22 213 47 241 36 316 35 387 -1z m2960 -1219 c29 -211 56
-386 59 -390 3 -4 42 27 86 68 246 233 572 364 905 364 577 0 1072 -356 1255
-903 47 -140 65 -255 65 -412 0 -644 -430 -1167 -1070 -1302 -118 -24 -372
-24 -490 0 -265 56 -481 170 -671 354 -201 195 -323 418 -380 696 -26 126 -28
338 -4 472 21 120 76 281 131 384 24 46 42 86 40 88 -2 3 -47 -1 -100 -8 -53
-7 -98 -10 -101 -7 -3 2 -81 159 -174 349 -120 242 -170 335 -170 314 0 -16
22 -181 48 -365 27 -184 47 -336 46 -338 -4 -5 -208 -32 -211 -29 -5 5 -134
930 -130 934 3 4 340 52 343 49 1 -1 81 -161 177 -356 104 -209 176 -344 176
-329 0 14 -22 180 -49 370 -28 189 -47 346 -45 349 6 6 136 27 180 29 l31 1
53 -382z m-993 -132 l-6 -383 72 -49 c212 -145 373 -377 445 -642 23 -87 26
-115 26 -272 0 -158 -3 -185 -27 -275 -33 -124 -127 -317 -196 -403 -28 -34
-51 -70 -51 -79 0 -9 -3 -13 -6 -10 -4 4 -33 -18 -66 -48 -88 -82 -175 -140
-289 -194 -549 -261 -1204 -33 -1476 514 -89 177 -118 318 -110 534 6 176 29
283 92 418 19 42 35 77 35 78 0 1 -28 5 -62 8 -176 14 -321 135 -379 315 -33
102 -38 270 -11 359 46 149 166 259 320 292 209 44 394 -45 488 -234 34 -69
63 -190 64 -267 0 -21 2 -38 3 -38 11 0 127 63 127 69 0 4 -34 123 -75 266
-41 142 -74 260 -72 261 3 3 199 34 216 34 5 0 37 -114 70 -253 l62 -254 37 6
37 6 8 260 c5 143 10 261 12 263 4 5 267 43 271 40 1 -2 43 -136 93 -298 50
-162 97 -298 104 -302 6 -4 18 -8 25 -8 15 0 15 38 1 373 -6 142 -9 260 -7
263 5 5 171 31 207 33 l24 1 -6 -384z m-2119 7 c7 -51 7 -80 1 -84 -6 -3 -55
-12 -110 -19 -54 -7 -101 -15 -103 -19 -2 -3 20 -177 50 -385 29 -209 52 -381
51 -383 -6 -5 -210 -33 -215 -29 -2 3 -28 174 -57 381 -29 207 -56 379 -59
382 -5 6 -172 -13 -207 -23 -13 -4 -18 11 -27 78 -7 45 -11 83 -9 84 4 4 615
91 648 93 25 1 26 -2 37 -76z m2389 -2175 c-3 -8 -6 -5 -6 6 -1 11 2 17 5 13
3 -3 4 -12 1 -19z"/>
<path d="M5677 7370 c-10 -60 -30 -400 -24 -406 10 -10 177 17 177 29 0 6 -30
92 -66 191 -37 100 -70 190 -74 201 -6 16 -8 13 -13 -15z"/>
<path d="M4127 7150 c-27 -5 -51 -11 -53 -13 -4 -4 11 -134 22 -185 5 -25 5
-25 131 -1 71 14 103 47 103 106 0 36 -6 50 -29 74 -25 25 -37 29 -78 28 -26
-1 -70 -5 -96 -9z"/>
<path d="M4187 6778 c-66 -10 -68 -11 -63 -37 3 -14 10 -64 17 -111 6 -47 14
-88 18 -92 7 -7 163 16 183 28 59 33 79 88 55 147 -28 67 -84 84 -210 65z"/>
<path d="M8263 5895 c-269 -49 -522 -203 -683 -417 -147 -195 -223 -420 -223
-663 -1 -753 724 -1282 1438 -1049 352 115 626 404 723 763 23 87 26 114 26
281 1 163 -2 195 -22 268 -118 431 -454 743 -879 817 -103 18 -281 18 -380 0z"/>
<path d="M5861 5878 l-1 -146 41 -7 c22 -4 42 -5 44 -3 4 4 -67 263 -79 293
-3 6 -5 -56 -5 -137z"/>
<path d="M4758 5945 c-94 -24 -144 -89 -154 -206 -7 -75 14 -202 46 -277 72
-166 280 -183 363 -29 19 37 22 57 22 157 -1 130 -17 199 -64 270 -50 76 -128
107 -213 85z"/>
<path d="M5683 5496 c-202 -39 -372 -132 -509 -279 -246 -265 -308 -657 -154
-984 185 -395 618 -601 1035 -493 88 22 220 82 291 130 319 220 461 638 342
1010 -52 162 -157 319 -286 426 -82 68 -240 147 -347 175 -104 26 -277 33
-372 15z"/>
<path d="M7010 3098 c-14 -11 -35 -28 -48 -38 l-22 -18 26 -52 c19 -38 29 -49
37 -41 6 6 26 11 43 11 32 0 33 1 27 38 -20 133 -22 135 -63 100z"/>
<path d="M5804 3080 c-693 -57 -1231 -385 -1508 -920 -134 -260 -196 -537
-152 -684 21 -70 58 -111 133 -148 l68 -33 807 -3 c445 -1 808 -1 808 0 0 2
-7 38 -15 81 -19 102 -19 342 0 471 60 401 255 789 548 1093 48 50 84 93 80
96 -15 9 -196 36 -308 47 -122 11 -322 11 -461 0z"/>
<path d="M8224 3080 c-717 -64 -1245 -393 -1522 -945 -94 -188 -152 -398 -152
-548 0 -135 41 -207 147 -259 l68 -33 1690 0 1690 0 56 26 c122 58 166 143
156 304 -15 230 -130 520 -302 757 -80 110 -240 268 -356 351 -106 76 -332
192 -460 236 -106 36 -290 78 -429 97 -128 17 -461 26 -586 14z"/>
<path d="M2125 2286 c-56 -26 -133 -102 -163 -162 -25 -50 -51 -139 -53 -184
-2 -50 38 -149 77 -187 48 -49 84 -45 176 16 99 67 171 140 205 209 23 47 28
70 28 134 0 67 -3 79 -24 102 -26 27 -156 96 -181 96 -8 0 -37 -11 -65 -24z"/>
</g>
</svg>
